<?xml version="1.0" encoding="utf-8"?>
<!-- Generator: Adobe Illustrator 24.0.1, SVG Export Plug-In . SVG Version: 6.00 Build 0)  -->
<svg version="1.1" id="Capa_1" xmlns="http://www.w3.org/2000/svg" xmlns:xlink="http://www.w3.org/1999/xlink" x="0px" y="0px"
	 width="841.9px" height="196.7px" viewBox="0 0 841.9 196.7" style="enable-background:new 0 0 841.9 196.7;" xml:space="preserve"
	>
<style type="text/css">
	.st0{fill:#262C2D;}
</style>
<path class="st0" d="M191.7,97.9c0,51.2-41.5,92.6-92.6,92.6S6.5,149,6.5,97.9c0-51.2,41.5-92.6,92.6-92.6S191.7,46.7,191.7,97.9z
	 M88.7,87.5l-47.1,61.7c-1.7,1.7-1.7,4.4,0,6.1c1.7,1.7,4.4,1.7,6.1,0l61.7-47.1l47.1-61.7c1.7-1.7,1.7-4.4,0-6.1
	c-1.7-1.7-4.4-1.7-6.1,0L88.7,87.5z M104.2,92.7c2.8,2.8,2.8,7.5,0,10.3c-2.8,2.8-7.5,2.8-10.3,0c-2.8-2.8-2.8-7.5,0-10.3
	C96.8,89.9,101.4,89.9,104.2,92.7z"/>
<path class="st0" d="M278,66.6h17l16.7,43.8l16.9-43.8h16.8v62.5h-10.6V77.2h-0.2l-19,51.9h-7.8l-19-51.9h-0.2v51.9H278V66.6z"/>
<path class="st0" d="M549.3,124.5c-7.7,4.1-16.3,6.2-25.9,6.2c-4.8,0-9.3-0.8-13.3-2.3c-4-1.6-7.5-3.8-10.4-6.6
	c-2.9-2.9-5.2-6.3-6.8-10.3c-1.7-4-2.5-8.4-2.5-13.3c0-5,0.8-9.5,2.5-13.6c1.6-4.1,3.9-7.6,6.8-10.5c2.9-2.9,6.4-5.1,10.4-6.7
	c4-1.6,8.5-2.3,13.3-2.3c4.8,0,9.2,0.6,13.4,1.7c4.2,1.1,7.9,3.2,11.2,6.1l-8.2,8.3c-2-1.9-4.4-3.4-7.3-4.5
	c-2.9-1.1-5.9-1.6-9.1-1.6c-3.2,0-6.2,0.6-8.8,1.7c-2.6,1.1-4.9,2.7-6.8,4.8c-1.9,2-3.3,4.4-4.4,7.1c-1,2.7-1.5,5.6-1.5,8.7
	c0,3.4,0.5,6.4,1.5,9.3c1,2.8,2.5,5.3,4.4,7.3c1.9,2.1,4.1,3.7,6.8,4.9c2.6,1.2,5.5,1.8,8.8,1.8c2.8,0,5.5-0.3,8-0.8
	c2.5-0.5,4.7-1.4,6.7-2.5v-14.7h-12.8V92.6h23.9V124.5z"/>
<path class="st0" d="M703.4,66.6h41.4v10.1h-30.3V92h28.7v10.1h-28.7v17h31.9v10.1h-43V66.6z"/>
<path class="st0" d="M805.4,76.7h-19.2V66.6h49.4v10.1h-19.2v52.4h-11.1V76.7z"/>
<path class="st0" d="M597.8,66.6h14.7l30.3,46.4h0.2V66.6h11.1v62.5H640l-30.9-47.9h-0.2v47.9h-11.1V66.6z"/>
<path class="st0" d="M415,66.6h9.6l26.9,62.5h-12.7l-5.8-14.3h-27.1l-5.6,14.3h-12.4L415,66.6z M429.1,105.3l-9.6-25.4l-9.8,25.4
	H429.1z"/>
</svg>
