<svg id="svg" version="1.1" width="400" height="75.75" xmlns="http://www.w3.org/2000/svg" xmlns:xlink="http://www.w3.org/1999/xlink" style="display: block;"><g id="svgg"><path id="path0" d="M174.833 18.975 C 174.833 19.053,174.068 19.167,173.133 19.228 C 172.198 19.289,171.391 19.403,171.341 19.480 C 171.291 19.557,170.894 19.673,170.458 19.737 C 170.023 19.801,169.667 19.916,169.667 19.991 C 169.667 20.067,169.329 20.179,168.917 20.241 C 168.504 20.303,168.167 20.418,168.167 20.497 C 168.167 20.576,167.942 20.690,167.667 20.750 C 167.392 20.810,167.167 20.923,167.167 21.000 C 167.167 21.077,166.942 21.190,166.667 21.250 C 166.392 21.310,166.167 21.424,166.167 21.502 C 166.167 21.580,166.004 21.696,165.804 21.759 C 165.605 21.822,165.362 21.941,165.263 22.023 C 164.460 22.691,164.267 22.833,164.160 22.833 C 164.001 22.833,160.833 26.001,160.833 26.160 C 160.833 26.267,160.691 26.460,160.023 27.263 C 159.941 27.362,159.822 27.605,159.759 27.804 C 159.696 28.004,159.580 28.167,159.502 28.167 C 159.424 28.167,159.310 28.392,159.250 28.667 C 159.190 28.942,159.079 29.167,159.005 29.167 C 158.930 29.167,158.818 29.372,158.755 29.623 C 158.692 29.874,158.588 30.118,158.524 30.165 C 158.376 30.274,157.661 32.499,157.664 32.842 C 157.666 32.984,157.591 33.176,157.498 33.269 C 157.405 33.362,157.281 34.279,157.222 35.308 C 157.163 36.337,157.052 37.218,156.974 37.266 C 156.790 37.380,156.791 38.500,156.975 38.500 C 157.053 38.500,157.160 39.373,157.213 40.441 C 157.265 41.508,157.380 42.427,157.467 42.482 C 157.555 42.538,157.680 42.977,157.745 43.458 C 157.811 43.940,157.924 44.333,157.997 44.333 C 158.070 44.333,158.179 44.596,158.239 44.917 C 158.299 45.237,158.412 45.500,158.489 45.500 C 158.566 45.500,158.677 45.755,158.736 46.067 C 158.794 46.378,158.953 46.725,159.088 46.837 C 159.223 46.949,159.333 47.144,159.333 47.270 C 159.333 47.397,159.408 47.500,159.500 47.500 C 159.592 47.500,159.667 47.599,159.667 47.721 C 159.667 48.226,162.666 52.000,163.068 52.000 C 163.136 52.000,163.417 52.225,163.692 52.500 C 163.967 52.775,164.291 53.000,164.412 53.000 C 164.532 53.000,164.668 53.096,164.713 53.213 C 164.758 53.331,165.085 53.574,165.439 53.755 C 165.793 53.936,166.121 54.121,166.167 54.167 C 166.327 54.327,167.788 55.000,167.977 55.000 C 168.081 55.000,168.167 55.072,168.167 55.159 C 168.167 55.247,168.429 55.367,168.750 55.428 C 169.071 55.488,169.333 55.597,169.333 55.670 C 169.333 55.742,169.727 55.856,170.208 55.921 C 170.690 55.987,171.127 56.109,171.180 56.192 C 171.233 56.276,172.039 56.390,172.971 56.447 C 173.904 56.504,174.667 56.614,174.667 56.692 C 174.667 56.770,175.267 56.833,176.000 56.833 C 176.733 56.833,177.333 56.770,177.333 56.692 C 177.333 56.614,178.096 56.504,179.029 56.447 C 179.961 56.390,180.767 56.276,180.820 56.192 C 180.873 56.109,181.310 55.987,181.792 55.921 C 182.273 55.856,182.667 55.734,182.667 55.651 C 182.667 55.568,182.798 55.500,182.958 55.499 C 183.119 55.498,183.451 55.393,183.697 55.265 C 183.943 55.136,184.374 54.981,184.655 54.919 C 184.937 54.857,185.167 54.738,185.167 54.653 C 185.167 54.569,185.268 54.500,185.391 54.500 C 185.515 54.500,185.789 54.350,186.000 54.167 C 186.211 53.983,186.485 53.833,186.609 53.833 C 186.732 53.833,186.833 53.763,186.833 53.678 C 186.833 53.592,186.995 53.471,187.193 53.408 C 187.390 53.346,187.718 53.116,187.920 52.897 C 188.123 52.679,188.345 52.500,188.414 52.500 C 188.586 52.500,191.167 49.889,191.167 49.714 C 191.167 49.637,191.317 49.446,191.500 49.289 C 191.683 49.132,191.833 48.898,191.833 48.769 C 191.833 48.641,191.946 48.492,192.083 48.440 C 192.221 48.387,192.333 48.229,192.333 48.089 C 192.333 47.948,192.400 47.833,192.482 47.833 C 192.564 47.833,192.678 47.646,192.735 47.417 C 192.793 47.188,192.913 47.000,193.003 47.000 C 193.093 47.000,193.167 46.921,193.167 46.824 C 193.167 46.653,193.704 45.340,193.985 44.828 C 194.061 44.687,194.180 44.312,194.248 43.995 C 194.316 43.677,194.440 43.332,194.524 43.228 C 194.607 43.123,194.722 42.542,194.779 41.936 C 194.835 41.329,194.946 40.833,195.024 40.833 C 195.103 40.833,195.167 39.446,195.167 37.750 C 195.167 36.054,195.101 34.667,195.022 34.667 C 194.942 34.667,194.825 34.142,194.761 33.500 C 194.698 32.858,194.581 32.333,194.500 32.333 C 194.420 32.333,194.303 31.996,194.241 31.583 C 194.179 31.171,194.071 30.833,194.000 30.833 C 193.929 30.833,193.821 30.571,193.761 30.250 C 193.701 29.929,193.586 29.667,193.506 29.667 C 193.425 29.667,193.310 29.442,193.250 29.167 C 193.190 28.892,193.077 28.667,193.000 28.667 C 192.923 28.667,192.810 28.442,192.750 28.167 C 192.690 27.892,192.576 27.667,192.498 27.667 C 192.420 27.667,192.306 27.509,192.245 27.317 C 192.184 27.124,192.010 26.831,191.859 26.664 C 191.707 26.497,191.246 25.970,190.833 25.493 C 190.421 25.017,189.866 24.429,189.600 24.188 C 189.335 23.947,188.877 23.506,188.583 23.208 C 188.290 22.910,187.963 22.667,187.858 22.667 C 187.753 22.667,187.667 22.593,187.667 22.503 C 187.667 22.413,187.485 22.294,187.262 22.238 C 187.040 22.182,186.817 22.031,186.767 21.902 C 186.718 21.772,186.562 21.667,186.422 21.667 C 186.282 21.667,186.167 21.598,186.167 21.513 C 186.167 21.429,185.942 21.310,185.667 21.250 C 185.392 21.190,185.167 21.077,185.167 21.000 C 185.167 20.923,184.942 20.810,184.667 20.750 C 184.392 20.690,184.167 20.578,184.167 20.501 C 184.167 20.425,183.867 20.312,183.500 20.250 C 183.133 20.188,182.833 20.077,182.833 20.004 C 182.833 19.931,182.477 19.818,182.042 19.753 C 181.606 19.689,181.164 19.565,181.059 19.478 C 180.954 19.392,180.108 19.275,179.178 19.219 C 178.249 19.162,177.449 19.052,177.401 18.974 C 177.287 18.790,174.833 18.790,174.833 18.975 M256.833 18.975 C 256.833 19.053,256.068 19.167,255.133 19.228 C 254.198 19.289,253.391 19.403,253.341 19.480 C 253.291 19.557,252.894 19.673,252.458 19.737 C 252.023 19.801,251.667 19.924,251.667 20.010 C 251.667 20.096,251.498 20.169,251.292 20.172 C 251.085 20.175,250.617 20.323,250.250 20.500 C 249.883 20.677,249.490 20.825,249.375 20.828 C 249.260 20.831,249.167 20.900,249.167 20.982 C 249.167 21.064,248.979 21.178,248.750 21.235 C 248.521 21.293,248.333 21.413,248.333 21.503 C 248.333 21.593,248.239 21.667,248.124 21.667 C 247.909 21.667,246.586 22.557,246.142 23.000 C 246.005 23.137,245.548 23.512,245.127 23.833 C 244.706 24.154,244.240 24.619,244.093 24.867 C 243.945 25.114,243.616 25.527,243.361 25.783 C 243.106 26.040,242.848 26.381,242.787 26.542 C 242.727 26.702,242.608 26.833,242.523 26.833 C 242.439 26.833,242.322 27.021,242.265 27.250 C 242.207 27.479,242.093 27.667,242.010 27.667 C 241.927 27.667,241.810 27.892,241.750 28.167 C 241.690 28.442,241.577 28.667,241.500 28.667 C 241.423 28.667,241.310 28.892,241.250 29.167 C 241.190 29.442,241.075 29.667,240.994 29.667 C 240.914 29.667,240.799 29.929,240.739 30.250 C 240.679 30.571,240.571 30.833,240.500 30.833 C 240.429 30.833,240.321 31.171,240.259 31.583 C 240.197 31.996,240.080 32.333,240.000 32.333 C 239.919 32.333,239.802 32.860,239.738 33.504 C 239.675 34.147,239.558 34.714,239.478 34.764 C 239.289 34.881,239.289 41.000,239.478 41.000 C 239.558 41.000,239.675 41.523,239.738 42.163 C 239.801 42.802,239.915 43.364,239.990 43.411 C 240.066 43.458,240.179 43.834,240.241 44.248 C 240.303 44.662,240.424 45.000,240.510 45.000 C 240.596 45.000,240.667 45.082,240.667 45.183 C 240.667 45.405,241.102 46.426,241.441 47.000 C 241.576 47.229,241.729 47.548,241.780 47.708 C 241.831 47.869,241.930 48.000,242.001 48.000 C 242.072 48.000,242.178 48.188,242.235 48.417 C 242.293 48.646,242.413 48.833,242.503 48.833 C 242.593 48.833,242.667 48.942,242.667 49.075 C 242.667 49.208,242.764 49.377,242.883 49.450 C 243.003 49.523,243.274 49.832,243.486 50.137 C 244.008 50.883,245.297 52.156,246.050 52.667 C 246.388 52.896,246.665 53.140,246.666 53.208 C 246.666 53.277,246.782 53.333,246.922 53.333 C 247.062 53.333,247.218 53.439,247.267 53.568 C 247.317 53.698,247.540 53.849,247.762 53.905 C 247.985 53.961,248.167 54.074,248.167 54.157 C 248.167 54.239,248.392 54.356,248.667 54.417 C 248.942 54.477,249.167 54.590,249.167 54.667 C 249.167 54.744,249.392 54.856,249.667 54.917 C 249.942 54.977,250.167 55.092,250.167 55.172 C 250.167 55.253,250.429 55.367,250.750 55.428 C 251.071 55.488,251.333 55.597,251.333 55.670 C 251.333 55.742,251.727 55.856,252.208 55.921 C 252.690 55.987,253.127 56.109,253.180 56.192 C 253.233 56.276,254.039 56.390,254.971 56.447 C 255.904 56.504,256.667 56.614,256.667 56.692 C 256.667 56.770,257.267 56.833,258.000 56.833 C 258.733 56.833,259.333 56.770,259.333 56.692 C 259.333 56.614,260.127 56.505,261.098 56.450 C 262.068 56.395,262.949 56.279,263.056 56.191 C 263.163 56.103,263.606 55.978,264.042 55.913 C 264.477 55.849,264.833 55.736,264.833 55.662 C 264.833 55.589,265.133 55.479,265.500 55.417 C 265.867 55.355,266.167 55.242,266.167 55.165 C 266.167 55.089,266.392 54.977,266.667 54.917 C 266.942 54.856,267.167 54.754,267.167 54.690 C 267.167 54.626,267.373 54.484,267.625 54.376 C 268.070 54.184,268.664 53.836,268.833 53.667 C 268.879 53.621,269.179 53.401,269.500 53.179 C 269.821 52.957,270.143 52.675,270.217 52.554 C 270.290 52.433,270.430 52.333,270.528 52.333 C 270.716 52.333,272.833 50.241,272.833 50.055 C 272.833 49.995,271.918 49.021,270.800 47.890 C 268.574 45.638,268.311 45.510,267.532 46.292 C 266.825 47.001,265.547 48.000,265.347 48.000 C 265.248 48.000,265.167 48.062,265.167 48.137 C 265.167 48.317,262.802 49.500,262.443 49.500 C 262.291 49.500,262.167 49.571,262.167 49.658 C 262.167 49.746,261.715 49.868,261.163 49.930 C 260.611 49.993,260.119 50.109,260.070 50.189 C 259.952 50.379,256.380 50.377,256.262 50.186 C 256.212 50.105,255.758 49.987,255.252 49.924 C 254.747 49.861,254.333 49.743,254.333 49.662 C 254.333 49.581,254.071 49.466,253.750 49.406 C 253.429 49.345,253.167 49.230,253.167 49.148 C 253.167 49.067,253.072 49.000,252.956 49.000 C 252.585 49.000,251.022 47.849,250.123 46.913 C 248.980 45.724,249.004 45.756,248.273 44.500 C 247.405 43.008,247.392 42.979,247.250 42.328 C 247.181 42.010,247.061 41.709,246.983 41.660 C 246.906 41.610,246.792 41.029,246.730 40.368 C 246.669 39.707,246.555 39.167,246.476 39.167 C 246.398 39.167,246.333 38.567,246.333 37.833 C 246.333 37.100,246.398 36.500,246.476 36.500 C 246.555 36.500,246.667 35.984,246.725 35.354 C 246.784 34.723,246.944 33.992,247.082 33.729 C 247.219 33.465,247.332 33.081,247.332 32.875 C 247.333 32.669,247.402 32.500,247.487 32.500 C 247.571 32.500,247.690 32.275,247.750 32.000 C 247.810 31.725,247.924 31.500,248.002 31.500 C 248.080 31.500,248.197 31.331,248.261 31.125 C 248.699 29.719,252.325 26.527,253.825 26.227 C 254.104 26.171,254.333 26.065,254.333 25.991 C 254.333 25.918,254.747 25.806,255.252 25.743 C 255.758 25.679,256.212 25.561,256.262 25.481 C 256.389 25.276,259.789 25.294,259.917 25.500 C 259.973 25.592,260.238 25.667,260.504 25.667 C 261.412 25.667,264.888 27.111,265.217 27.625 C 265.290 27.740,265.459 27.833,265.592 27.833 C 265.725 27.833,265.833 27.892,265.833 27.964 C 265.833 28.036,266.042 28.218,266.298 28.369 C 266.553 28.520,267.046 28.911,267.393 29.238 C 268.191 29.991,268.147 29.998,269.068 28.958 C 270.874 26.919,271.273 26.471,271.702 25.999 C 272.138 25.519,272.500 24.957,272.500 24.761 C 272.500 24.603,271.216 23.333,271.057 23.333 C 270.975 23.333,270.790 23.202,270.646 23.042 C 270.503 22.881,270.214 22.637,270.006 22.500 C 269.797 22.363,269.541 22.174,269.438 22.081 C 269.335 21.989,269.031 21.801,268.763 21.665 C 267.818 21.183,267.667 21.086,267.667 20.960 C 267.667 20.891,267.573 20.833,267.458 20.832 C 267.344 20.832,267.041 20.722,266.785 20.589 C 266.529 20.455,266.060 20.297,265.743 20.238 C 265.426 20.178,265.167 20.070,265.167 19.997 C 265.167 19.924,264.773 19.811,264.292 19.745 C 263.810 19.680,263.373 19.557,263.319 19.472 C 263.265 19.387,262.418 19.272,261.438 19.217 C 260.457 19.161,259.616 19.052,259.568 18.975 C 259.453 18.790,256.833 18.790,256.833 18.975 M213.292 19.278 C 212.948 19.319,212.667 19.414,212.667 19.487 C 212.667 19.561,212.345 19.666,211.951 19.719 C 211.557 19.773,211.013 19.933,210.743 20.074 C 210.472 20.216,210.156 20.332,210.042 20.332 C 209.927 20.333,209.833 20.402,209.833 20.487 C 209.833 20.571,209.608 20.690,209.333 20.750 C 209.058 20.810,208.833 20.931,208.833 21.018 C 208.833 21.106,208.705 21.226,208.549 21.286 C 208.176 21.429,207.573 21.928,206.776 22.750 C 205.806 23.752,205.667 23.927,205.667 24.139 C 205.667 24.246,205.593 24.333,205.503 24.333 C 205.413 24.333,205.293 24.521,205.235 24.750 C 205.178 24.979,205.072 25.167,205.000 25.167 C 204.929 25.167,204.818 25.448,204.754 25.792 C 204.689 26.135,204.550 26.522,204.443 26.651 C 204.159 26.996,204.173 33.197,204.458 33.292 C 204.573 33.330,204.667 33.478,204.667 33.621 C 204.667 34.433,207.022 37.500,207.645 37.500 C 207.749 37.500,207.833 37.570,207.833 37.655 C 207.833 37.741,207.999 37.863,208.201 37.927 C 208.403 37.992,208.670 38.147,208.796 38.272 C 208.921 38.397,209.168 38.500,209.345 38.500 C 209.522 38.500,209.667 38.569,209.667 38.653 C 209.667 38.738,209.892 38.856,210.167 38.917 C 210.442 38.977,210.667 39.089,210.667 39.165 C 210.667 39.242,210.967 39.355,211.333 39.417 C 211.700 39.479,212.000 39.591,212.000 39.666 C 212.000 39.741,212.375 39.854,212.833 39.917 C 213.292 39.980,213.667 40.092,213.667 40.167 C 213.667 40.241,214.042 40.354,214.500 40.417 C 214.958 40.480,215.372 40.594,215.419 40.671 C 215.466 40.747,215.918 40.862,216.421 40.924 C 216.925 40.987,217.374 41.098,217.419 41.171 C 217.464 41.243,217.875 41.354,218.333 41.417 C 218.791 41.480,219.204 41.593,219.251 41.668 C 219.297 41.743,219.635 41.855,220.001 41.917 C 220.367 41.979,220.667 42.094,220.667 42.174 C 220.667 42.253,220.929 42.367,221.250 42.428 C 221.571 42.488,221.833 42.599,221.833 42.674 C 221.833 42.749,221.991 42.861,222.183 42.922 C 222.679 43.079,223.833 44.314,223.833 44.687 C 223.833 44.859,223.908 45.000,224.000 45.000 C 224.207 45.000,224.224 47.111,224.018 47.239 C 223.937 47.289,223.823 47.517,223.766 47.745 C 223.568 48.533,221.643 50.000,220.807 50.000 C 220.675 50.000,220.473 50.094,220.358 50.208 C 220.092 50.474,215.464 50.480,215.136 50.215 C 215.015 50.118,214.592 49.984,214.195 49.919 C 213.798 49.853,213.273 49.695,213.028 49.567 C 212.783 49.440,212.504 49.335,212.406 49.334 C 212.041 49.332,209.708 48.025,208.801 47.315 C 208.463 47.050,208.142 46.833,208.087 46.833 C 208.033 46.833,207.769 46.608,207.500 46.333 C 206.857 45.676,206.496 45.703,205.905 46.453 C 205.636 46.794,205.304 47.188,205.167 47.330 C 205.029 47.471,204.617 47.957,204.250 48.409 C 203.883 48.861,203.377 49.444,203.125 49.705 C 202.700 50.144,202.489 51.000,202.806 51.000 C 202.882 51.000,203.163 51.223,203.431 51.495 C 203.698 51.768,204.010 51.993,204.125 51.995 C 204.240 51.998,204.333 52.060,204.333 52.133 C 204.333 52.206,204.631 52.450,204.996 52.675 C 205.360 52.900,205.660 53.134,205.662 53.195 C 205.665 53.257,205.892 53.356,206.167 53.417 C 206.442 53.477,206.667 53.578,206.667 53.642 C 206.667 53.826,209.107 55.000,209.491 55.000 C 209.588 55.000,209.667 55.070,209.667 55.156 C 209.667 55.243,210.004 55.364,210.417 55.425 C 210.829 55.487,211.167 55.596,211.167 55.666 C 211.167 55.737,211.598 55.848,212.125 55.914 C 212.652 55.979,213.189 56.119,213.317 56.224 C 213.640 56.489,221.961 56.496,222.131 56.231 C 222.196 56.130,222.606 55.994,223.042 55.930 C 223.477 55.865,223.833 55.752,223.833 55.678 C 223.833 55.603,224.133 55.495,224.500 55.436 C 224.867 55.377,225.167 55.261,225.167 55.178 C 225.167 55.095,225.385 54.978,225.653 54.920 C 225.920 54.861,226.180 54.705,226.231 54.573 C 226.281 54.441,226.438 54.333,226.578 54.333 C 226.718 54.333,226.834 54.277,226.834 54.208 C 226.835 54.140,227.115 53.896,227.457 53.667 C 228.169 53.188,228.820 52.504,228.828 52.226 C 228.831 52.121,228.946 51.992,229.083 51.940 C 229.221 51.887,229.333 51.729,229.333 51.589 C 229.333 51.448,229.407 51.333,229.497 51.333 C 229.587 51.333,229.707 51.146,229.765 50.917 C 229.822 50.688,229.930 50.500,230.005 50.500 C 230.079 50.500,230.193 50.256,230.258 49.958 C 230.322 49.660,230.442 49.374,230.524 49.322 C 230.606 49.269,230.720 48.613,230.778 47.863 C 230.835 47.114,230.947 46.500,231.025 46.500 C 231.103 46.500,231.167 46.087,231.167 45.583 C 231.167 45.079,231.102 44.667,231.024 44.667 C 230.946 44.667,230.839 44.123,230.788 43.458 C 230.737 42.794,230.577 42.025,230.432 41.750 C 230.287 41.475,230.168 41.156,230.168 41.042 C 230.167 40.927,230.092 40.833,230.000 40.833 C 229.908 40.833,229.833 40.755,229.833 40.660 C 229.833 39.963,226.796 37.167,226.040 37.167 C 225.926 37.167,225.833 37.098,225.833 37.013 C 225.833 36.929,225.608 36.810,225.333 36.750 C 225.058 36.690,224.833 36.575,224.833 36.494 C 224.833 36.414,224.571 36.299,224.250 36.239 C 223.929 36.179,223.667 36.071,223.667 36.000 C 223.667 35.929,223.329 35.821,222.917 35.759 C 222.504 35.697,222.167 35.581,222.167 35.502 C 222.167 35.422,221.754 35.306,221.250 35.243 C 220.746 35.180,220.333 35.067,220.333 34.993 C 220.333 34.918,219.920 34.806,219.414 34.743 C 218.909 34.679,218.459 34.569,218.414 34.496 C 218.370 34.424,217.958 34.313,217.500 34.250 C 217.042 34.187,216.667 34.076,216.667 34.003 C 216.667 33.931,216.331 33.821,215.921 33.759 C 215.510 33.698,215.136 33.585,215.089 33.509 C 215.042 33.433,214.740 33.322,214.419 33.261 C 214.097 33.201,213.833 33.086,213.833 33.006 C 213.833 32.925,213.608 32.810,213.333 32.750 C 213.058 32.690,212.833 32.571,212.833 32.487 C 212.833 32.402,212.747 32.333,212.642 32.333 C 212.336 32.333,211.358 31.239,211.239 30.764 C 211.179 30.525,211.063 30.289,210.982 30.239 C 210.900 30.188,210.833 29.781,210.833 29.333 C 210.833 28.886,210.900 28.478,210.982 28.428 C 211.063 28.378,211.180 28.138,211.240 27.896 C 211.434 27.126,212.450 26.288,214.083 25.551 C 214.842 25.208,218.929 25.123,219.139 25.445 C 219.200 25.539,219.559 25.664,219.936 25.723 C 220.314 25.782,220.839 25.943,221.103 26.081 C 221.367 26.219,221.715 26.332,221.875 26.332 C 222.035 26.333,222.167 26.402,222.167 26.487 C 222.167 26.571,222.392 26.690,222.667 26.750 C 222.942 26.810,223.167 26.920,223.167 26.994 C 223.167 27.067,223.298 27.169,223.458 27.220 C 223.744 27.311,224.668 27.835,224.833 28.000 C 225.448 28.614,226.667 29.075,226.667 28.692 C 226.667 28.615,226.798 28.397,226.958 28.208 C 227.119 28.019,227.362 27.698,227.500 27.495 C 227.637 27.292,227.844 27.028,227.958 26.908 C 228.073 26.788,228.167 26.622,228.167 26.538 C 228.167 26.454,228.317 26.249,228.500 26.083 C 228.683 25.917,228.833 25.715,228.833 25.634 C 228.833 25.552,228.910 25.395,229.003 25.285 C 229.710 24.446,229.833 24.227,229.833 23.808 C 229.833 23.534,229.743 23.333,229.620 23.333 C 229.503 23.333,229.279 23.183,229.122 23.000 C 228.965 22.817,228.731 22.667,228.603 22.667 C 228.474 22.667,228.326 22.554,228.273 22.417 C 228.220 22.279,228.062 22.167,227.922 22.167 C 227.782 22.167,227.667 22.100,227.667 22.018 C 227.667 21.936,227.479 21.822,227.250 21.765 C 227.021 21.707,226.833 21.593,226.833 21.510 C 226.833 21.427,226.608 21.310,226.333 21.250 C 226.058 21.190,225.833 21.075,225.833 20.994 C 225.833 20.914,225.571 20.799,225.250 20.739 C 224.929 20.679,224.667 20.570,224.667 20.496 C 224.667 20.423,224.367 20.312,224.001 20.250 C 223.635 20.188,223.297 20.076,223.251 20.001 C 223.204 19.926,222.773 19.811,222.291 19.745 C 221.810 19.680,221.366 19.547,221.305 19.450 C 221.191 19.270,214.536 19.127,213.292 19.278 M294.548 19.573 C 294.438 19.701,294.298 19.999,294.239 20.236 C 294.179 20.473,294.067 20.667,293.989 20.667 C 293.912 20.667,293.799 20.929,293.739 21.250 C 293.679 21.571,293.563 21.833,293.481 21.833 C 293.400 21.833,293.333 21.927,293.332 22.042 C 293.332 22.156,293.226 22.451,293.098 22.697 C 292.970 22.943,292.814 23.374,292.752 23.655 C 292.691 23.937,292.571 24.167,292.487 24.167 C 292.402 24.167,292.331 24.260,292.328 24.375 C 292.325 24.490,292.177 24.883,292.000 25.250 C 291.823 25.617,291.675 26.010,291.672 26.125 C 291.669 26.240,291.593 26.333,291.502 26.333 C 291.411 26.333,291.289 26.633,291.231 27.000 C 291.172 27.367,291.065 27.667,290.992 27.667 C 290.919 27.667,290.810 27.892,290.750 28.167 C 290.690 28.442,290.579 28.667,290.505 28.667 C 290.431 28.667,290.321 28.929,290.261 29.250 C 290.201 29.571,290.080 29.833,289.992 29.833 C 289.905 29.833,289.833 29.927,289.832 30.042 C 289.832 30.156,289.726 30.451,289.598 30.697 C 289.470 30.943,289.314 31.374,289.252 31.655 C 289.191 31.937,289.071 32.167,288.987 32.167 C 288.902 32.167,288.831 32.260,288.828 32.375 C 288.825 32.490,288.677 32.883,288.500 33.250 C 288.323 33.617,288.175 34.010,288.172 34.125 C 288.169 34.240,288.093 34.333,288.002 34.333 C 287.911 34.333,287.789 34.633,287.731 35.000 C 287.672 35.367,287.565 35.667,287.492 35.667 C 287.419 35.667,287.310 35.892,287.250 36.167 C 287.190 36.442,287.079 36.667,287.005 36.667 C 286.931 36.667,286.821 36.929,286.761 37.250 C 286.701 37.571,286.580 37.833,286.492 37.833 C 286.405 37.833,286.333 37.927,286.332 38.042 C 286.332 38.156,286.226 38.451,286.098 38.697 C 285.970 38.943,285.814 39.374,285.752 39.655 C 285.691 39.937,285.575 40.167,285.494 40.167 C 285.414 40.167,285.299 40.429,285.239 40.750 C 285.179 41.071,285.069 41.333,284.995 41.333 C 284.921 41.333,284.810 41.558,284.750 41.833 C 284.690 42.108,284.571 42.333,284.487 42.333 C 284.402 42.333,284.331 42.465,284.328 42.625 C 284.325 42.785,284.177 43.217,284.000 43.583 C 283.823 43.950,283.675 44.344,283.672 44.458 C 283.669 44.573,283.600 44.667,283.519 44.667 C 283.437 44.667,283.321 44.929,283.261 45.250 C 283.201 45.571,283.080 45.833,282.992 45.833 C 282.905 45.833,282.833 45.912,282.833 46.009 C 282.833 46.168,282.588 46.768,281.905 48.275 C 281.774 48.564,281.667 48.920,281.667 49.067 C 281.667 49.213,281.598 49.333,281.513 49.333 C 281.429 49.333,281.310 49.558,281.250 49.833 C 281.190 50.108,281.071 50.333,280.987 50.333 C 280.902 50.333,280.833 50.456,280.833 50.607 C 280.833 50.757,280.690 51.188,280.515 51.565 C 279.914 52.860,279.667 53.467,279.667 53.650 C 279.667 53.751,279.598 53.833,279.513 53.833 C 279.429 53.833,279.307 54.077,279.242 54.375 C 279.178 54.673,279.065 54.955,278.992 55.002 C 278.919 55.048,278.808 55.292,278.745 55.543 L 278.631 56.000 282.232 56.000 C 285.722 56.000,285.833 55.990,285.833 55.667 C 285.833 55.483,285.892 55.333,285.964 55.333 C 286.036 55.333,286.277 54.808,286.500 54.167 C 286.723 53.525,286.960 53.000,287.028 53.000 C 287.096 53.000,287.201 52.737,287.261 52.417 C 287.321 52.096,287.431 51.833,287.505 51.833 C 287.579 51.833,287.691 51.603,287.752 51.322 C 287.814 51.041,287.970 50.610,288.098 50.364 C 288.226 50.118,288.332 49.823,288.332 49.708 C 288.333 49.594,288.400 49.500,288.481 49.500 C 288.563 49.500,288.679 49.237,288.739 48.917 C 288.799 48.596,288.914 48.333,288.994 48.333 C 289.075 48.333,289.190 48.108,289.250 47.832 L 289.360 47.330 297.708 47.373 L 306.056 47.417 306.219 47.917 C 306.310 48.192,306.436 48.454,306.501 48.500 C 306.566 48.546,306.670 48.865,306.734 49.208 C 306.797 49.552,306.917 49.833,307.000 49.833 C 307.083 49.833,307.201 50.096,307.261 50.417 C 307.321 50.737,307.431 51.000,307.505 51.000 C 307.579 51.000,307.691 51.230,307.752 51.511 C 307.814 51.792,307.970 52.224,308.098 52.470 C 308.226 52.715,308.332 53.010,308.332 53.125 C 308.333 53.240,308.400 53.333,308.481 53.333 C 308.563 53.333,308.679 53.596,308.739 53.917 C 308.799 54.237,308.912 54.500,308.989 54.500 C 309.066 54.500,309.182 54.781,309.247 55.125 C 309.412 56.004,309.368 55.995,313.305 55.997 L 316.860 56.000 316.742 55.458 C 316.678 55.160,316.565 54.878,316.492 54.832 C 316.419 54.785,316.308 54.541,316.245 54.290 C 316.182 54.039,316.064 53.833,315.982 53.833 C 315.900 53.833,315.831 53.702,315.828 53.542 C 315.825 53.381,315.677 52.950,315.500 52.583 C 315.323 52.217,315.175 51.823,315.172 51.708 C 315.169 51.594,315.100 51.500,315.019 51.500 C 314.937 51.500,314.821 51.237,314.761 50.917 C 314.701 50.596,314.583 50.333,314.500 50.333 C 314.417 50.333,314.299 50.071,314.239 49.750 C 314.179 49.429,314.063 49.167,313.981 49.167 C 313.900 49.167,313.831 49.073,313.828 48.958 C 313.825 48.844,313.677 48.450,313.500 48.083 C 313.323 47.717,313.175 47.285,313.172 47.125 C 313.169 46.965,313.098 46.833,313.013 46.833 C 312.929 46.833,312.810 46.608,312.750 46.333 C 312.690 46.058,312.571 45.833,312.487 45.833 C 312.402 45.833,312.333 45.717,312.333 45.574 C 312.333 45.340,312.129 44.824,311.405 43.225 C 311.274 42.936,311.167 42.617,311.167 42.516 C 311.167 42.416,311.095 42.333,311.008 42.333 C 310.920 42.333,310.799 42.071,310.739 41.750 C 310.679 41.429,310.569 41.167,310.495 41.167 C 310.421 41.167,310.310 40.942,310.250 40.667 C 310.190 40.392,310.078 40.167,310.001 40.167 C 309.925 40.167,309.812 39.867,309.750 39.500 C 309.688 39.133,309.575 38.833,309.499 38.833 C 309.422 38.833,309.310 38.608,309.250 38.333 C 309.190 38.058,309.079 37.833,309.005 37.833 C 308.931 37.833,308.821 37.571,308.761 37.250 C 308.701 36.929,308.586 36.667,308.506 36.667 C 308.425 36.667,308.309 36.437,308.248 36.155 C 308.186 35.874,308.030 35.443,307.902 35.197 C 307.774 34.951,307.668 34.656,307.668 34.542 C 307.667 34.427,307.595 34.333,307.508 34.333 C 307.420 34.333,307.299 34.071,307.239 33.750 C 307.179 33.429,307.069 33.167,306.995 33.167 C 306.921 33.167,306.810 32.942,306.750 32.667 C 306.690 32.392,306.581 32.167,306.508 32.167 C 306.435 32.167,306.328 31.867,306.269 31.500 C 306.211 31.133,306.089 30.833,305.998 30.833 C 305.907 30.833,305.831 30.740,305.828 30.625 C 305.825 30.510,305.677 30.117,305.500 29.750 C 305.323 29.383,305.175 28.990,305.172 28.875 C 305.169 28.760,305.098 28.667,305.013 28.667 C 304.929 28.667,304.809 28.437,304.748 28.155 C 304.686 27.874,304.530 27.443,304.402 27.197 C 304.274 26.951,304.168 26.656,304.168 26.542 C 304.167 26.427,304.100 26.333,304.019 26.333 C 303.937 26.333,303.821 26.071,303.761 25.750 C 303.701 25.429,303.586 25.167,303.506 25.167 C 303.425 25.167,303.310 24.942,303.250 24.667 C 303.190 24.392,303.081 24.167,303.008 24.167 C 302.935 24.167,302.828 23.867,302.769 23.500 C 302.711 23.133,302.589 22.833,302.498 22.833 C 302.407 22.833,302.331 22.740,302.328 22.625 C 302.325 22.510,302.177 22.117,302.000 21.750 C 301.823 21.383,301.675 20.990,301.672 20.875 C 301.669 20.760,301.599 20.667,301.517 20.667 C 301.434 20.667,301.300 20.385,301.219 20.042 L 301.071 19.417 297.911 19.379 C 295.384 19.349,294.710 19.388,294.548 19.573 M83.333 37.833 L 83.333 56.000 97.083 56.000 L 110.833 56.000 110.833 52.917 L 110.833 49.833 100.500 49.833 L 90.167 49.833 90.167 45.333 L 90.167 40.833 99.167 40.833 L 108.167 40.833 108.167 37.750 L 108.167 34.667 99.167 34.667 L 90.167 34.667 90.167 30.251 L 90.167 25.836 100.375 25.793 L 110.583 25.750 110.629 22.708 L 110.674 19.667 97.004 19.667 L 83.333 19.667 83.333 37.833 M118.594 19.816 C 118.488 19.987,119.717 21.917,120.458 22.744 C 120.573 22.872,120.667 23.045,120.667 23.129 C 120.667 23.213,120.817 23.417,121.000 23.583 C 121.183 23.749,121.333 23.954,121.333 24.038 C 121.333 24.122,121.427 24.288,121.542 24.408 C 121.656 24.528,121.862 24.794,122.000 25.000 C 122.138 25.206,122.329 25.459,122.426 25.562 C 122.523 25.665,122.652 25.881,122.712 26.042 C 122.773 26.202,122.900 26.333,122.995 26.333 C 123.089 26.333,123.167 26.415,123.167 26.515 C 123.167 26.616,123.298 26.869,123.458 27.079 C 123.619 27.290,123.862 27.627,124.000 27.830 C 124.138 28.033,124.700 28.823,125.250 29.587 C 125.800 30.350,126.362 31.139,126.500 31.340 C 126.638 31.541,126.881 31.877,127.042 32.087 C 127.202 32.297,127.333 32.517,127.333 32.575 C 127.333 32.685,127.353 32.711,128.167 33.667 C 128.440 33.987,128.707 34.381,128.760 34.542 C 128.813 34.702,128.926 34.833,129.011 34.833 C 129.097 34.833,129.167 34.948,129.167 35.089 C 129.167 35.229,129.279 35.387,129.417 35.440 C 129.554 35.492,129.667 35.641,129.667 35.769 C 129.667 35.898,129.817 36.132,130.000 36.289 C 130.183 36.446,130.333 36.638,130.333 36.716 C 130.333 36.793,130.448 36.972,130.589 37.113 C 130.874 37.398,130.768 37.999,130.395 38.217 C 130.269 38.290,130.167 38.459,130.167 38.592 C 130.167 38.725,130.110 38.834,130.042 38.834 C 129.973 38.835,129.729 39.116,129.500 39.459 C 129.271 39.803,129.009 40.168,128.917 40.271 C 128.825 40.375,128.637 40.627,128.500 40.832 C 128.362 41.037,128.119 41.377,127.958 41.587 C 127.798 41.797,127.667 42.051,127.667 42.151 C 127.667 42.251,127.610 42.334,127.542 42.334 C 127.473 42.335,127.229 42.616,127.000 42.959 C 126.771 43.303,126.509 43.668,126.417 43.771 C 126.325 43.875,126.138 44.127,126.000 44.332 C 125.862 44.537,125.619 44.877,125.458 45.087 C 125.298 45.297,125.167 45.519,125.167 45.580 C 125.167 45.641,125.073 45.788,124.958 45.908 C 124.844 46.028,124.638 46.292,124.500 46.495 C 124.267 46.840,123.901 47.312,123.503 47.785 C 123.410 47.895,123.333 48.052,123.333 48.134 C 123.333 48.215,123.183 48.417,123.000 48.583 C 122.817 48.749,122.667 48.954,122.667 49.038 C 122.667 49.122,122.573 49.295,122.458 49.423 C 122.141 49.776,121.955 50.026,121.500 50.707 C 121.271 51.050,121.027 51.332,120.958 51.332 C 120.890 51.333,120.833 51.434,120.833 51.558 C 120.833 51.681,120.683 51.917,120.500 52.083 C 120.317 52.249,120.167 52.452,120.167 52.533 C 120.167 52.614,120.090 52.771,119.997 52.882 C 119.377 53.617,119.167 53.897,119.167 53.986 C 119.167 54.041,118.997 54.273,118.790 54.502 C 118.464 54.861,118.000 55.697,118.000 55.925 C 118.000 55.966,119.766 56.000,121.924 56.000 L 125.849 56.000 126.133 55.501 C 126.289 55.227,126.473 55.002,126.542 55.001 C 126.610 55.000,126.667 54.885,126.667 54.745 C 126.667 54.604,126.772 54.449,126.902 54.399 C 127.031 54.350,127.182 54.127,127.238 53.905 C 127.294 53.682,127.413 53.500,127.503 53.500 C 127.593 53.500,127.667 53.404,127.667 53.287 C 127.667 53.170,127.817 52.946,128.000 52.789 C 128.183 52.632,128.333 52.398,128.333 52.269 C 128.333 52.141,128.446 51.992,128.583 51.940 C 128.721 51.887,128.833 51.729,128.833 51.589 C 128.833 51.448,128.907 51.333,128.997 51.333 C 129.087 51.333,129.206 51.151,129.262 50.929 C 129.318 50.706,129.469 50.484,129.598 50.434 C 129.728 50.384,129.833 50.229,129.833 50.089 C 129.833 49.948,129.890 49.831,129.958 49.829 C 130.027 49.826,130.267 49.526,130.492 49.162 C 130.717 48.798,130.960 48.500,131.034 48.500 C 131.107 48.500,131.167 48.422,131.167 48.327 C 131.167 48.129,131.852 47.112,132.042 47.028 C 132.110 46.997,132.167 46.864,132.167 46.731 C 132.167 46.598,132.279 46.446,132.417 46.394 C 132.554 46.341,132.667 46.205,132.667 46.091 C 132.667 45.977,132.798 45.726,132.958 45.533 C 133.624 44.733,133.833 44.422,133.833 44.234 C 133.833 44.125,133.946 43.992,134.083 43.940 C 134.221 43.887,134.333 43.729,134.333 43.589 C 134.333 43.448,134.397 43.333,134.475 43.333 C 134.552 43.333,134.690 43.167,134.781 42.963 C 134.940 42.607,134.964 42.619,135.412 43.296 C 135.668 43.683,135.935 44.000,136.004 44.000 C 136.074 44.000,136.178 44.188,136.235 44.417 C 136.293 44.646,136.413 44.833,136.503 44.833 C 136.593 44.833,136.667 44.948,136.667 45.089 C 136.667 45.229,136.779 45.387,136.917 45.440 C 137.054 45.492,137.167 45.641,137.167 45.769 C 137.167 45.898,137.317 46.132,137.500 46.289 C 137.683 46.446,137.833 46.670,137.833 46.787 C 137.833 46.904,137.907 47.000,137.997 47.000 C 138.087 47.000,138.206 47.182,138.262 47.405 C 138.318 47.627,138.469 47.850,138.598 47.899 C 138.728 47.949,138.833 48.098,138.833 48.231 C 138.833 48.364,138.890 48.497,138.958 48.528 C 139.027 48.558,139.377 49.015,139.736 49.542 C 140.095 50.069,140.443 50.500,140.510 50.500 C 140.576 50.500,140.678 50.688,140.735 50.917 C 140.793 51.146,140.913 51.333,141.003 51.333 C 141.093 51.333,141.167 51.448,141.167 51.589 C 141.167 51.729,141.279 51.887,141.417 51.940 C 141.554 51.992,141.667 52.141,141.667 52.269 C 141.667 52.398,141.817 52.632,142.000 52.789 C 142.183 52.946,142.333 53.170,142.333 53.287 C 142.333 53.404,142.407 53.500,142.497 53.500 C 142.587 53.500,142.706 53.682,142.762 53.905 C 142.818 54.127,142.969 54.350,143.098 54.399 C 143.228 54.449,143.333 54.604,143.333 54.745 C 143.333 54.885,143.390 55.000,143.458 55.001 C 143.527 55.002,143.711 55.227,143.867 55.501 L 144.151 56.000 148.159 56.000 C 151.997 56.000,152.167 55.987,152.167 55.681 C 152.167 55.505,152.110 55.336,152.042 55.306 C 151.852 55.221,151.167 54.204,151.167 54.007 C 151.167 53.911,151.110 53.833,151.042 53.832 C 150.973 53.832,150.729 53.550,150.500 53.207 C 150.102 52.610,150.015 52.495,149.542 51.929 C 149.427 51.793,149.333 51.614,149.333 51.533 C 149.333 51.452,149.183 51.249,149.000 51.083 C 148.817 50.917,148.667 50.713,148.667 50.629 C 148.667 50.545,148.573 50.378,148.458 50.259 C 148.344 50.139,148.137 49.872,148.000 49.667 C 147.862 49.461,147.671 49.208,147.574 49.105 C 147.477 49.001,147.348 48.785,147.288 48.625 C 147.227 48.465,147.100 48.333,147.005 48.333 C 146.911 48.333,146.833 48.251,146.833 48.151 C 146.833 48.051,146.702 47.797,146.542 47.587 C 146.381 47.377,146.137 47.037,146.000 46.832 C 145.862 46.627,145.672 46.375,145.577 46.271 C 145.482 46.168,145.232 45.802,145.022 45.458 C 144.812 45.115,144.571 44.833,144.486 44.833 C 144.402 44.833,144.333 44.755,144.333 44.660 C 144.333 44.500,143.814 43.691,143.417 43.233 C 143.325 43.127,143.155 42.900,143.040 42.729 C 142.638 42.132,141.181 40.082,141.041 39.917 C 140.963 39.825,140.850 39.619,140.788 39.458 C 140.727 39.298,140.605 39.167,140.516 39.167 C 140.428 39.167,140.307 39.014,140.248 38.828 C 140.189 38.642,139.959 38.293,139.737 38.054 C 139.147 37.417,139.195 37.261,140.375 35.983 C 140.535 35.809,140.667 35.603,140.667 35.526 C 140.667 35.448,140.798 35.230,140.958 35.041 C 141.119 34.852,141.362 34.532,141.500 34.330 C 142.067 33.495,142.910 32.413,143.034 32.361 C 143.107 32.331,143.167 32.234,143.167 32.146 C 143.167 32.008,143.762 31.071,144.000 30.833 C 144.047 30.787,144.292 30.444,144.546 30.069 C 144.799 29.695,145.155 29.229,145.337 29.035 C 145.518 28.840,145.667 28.637,145.667 28.584 C 145.667 28.486,146.276 27.588,146.583 27.233 C 146.675 27.127,146.845 26.900,146.960 26.729 C 147.076 26.557,147.544 25.892,148.000 25.250 C 148.456 24.608,148.924 23.945,149.040 23.776 C 149.155 23.607,149.381 23.314,149.542 23.126 C 149.702 22.937,149.833 22.681,149.833 22.558 C 149.833 22.434,149.896 22.333,149.972 22.333 C 150.049 22.333,150.405 21.902,150.764 21.375 C 151.123 20.848,151.473 20.392,151.542 20.361 C 151.610 20.331,151.667 20.162,151.667 19.986 C 151.667 19.513,143.892 19.485,143.712 19.958 C 143.651 20.119,143.427 20.438,143.215 20.667 C 143.003 20.896,142.788 21.215,142.737 21.375 C 142.686 21.535,142.574 21.667,142.489 21.667 C 142.403 21.667,142.333 21.782,142.333 21.922 C 142.333 22.062,142.221 22.220,142.083 22.273 C 141.946 22.326,141.833 22.462,141.833 22.576 C 141.833 22.689,141.702 22.940,141.542 23.133 C 140.876 23.934,140.667 24.245,140.667 24.433 C 140.667 24.542,140.554 24.674,140.417 24.727 C 140.279 24.780,140.167 24.938,140.167 25.078 C 140.167 25.218,140.110 25.335,140.042 25.338 C 139.973 25.340,139.733 25.640,139.508 26.004 C 139.283 26.369,139.040 26.667,138.966 26.667 C 138.893 26.667,138.833 26.782,138.833 26.922 C 138.833 27.062,138.728 27.218,138.598 27.267 C 138.469 27.317,138.318 27.540,138.262 27.762 C 138.206 27.985,138.087 28.167,137.997 28.167 C 137.907 28.167,137.833 28.262,137.833 28.380 C 137.833 28.497,137.683 28.721,137.500 28.878 C 137.317 29.035,137.167 29.269,137.167 29.397 C 137.167 29.526,137.054 29.674,136.917 29.727 C 136.779 29.780,136.667 29.938,136.667 30.078 C 136.667 30.218,136.593 30.333,136.503 30.333 C 136.413 30.333,136.293 30.521,136.235 30.750 C 136.178 30.979,136.068 31.167,135.991 31.167 C 135.915 31.167,135.719 31.392,135.557 31.667 C 135.197 32.276,134.905 32.307,134.765 31.750 C 134.707 31.521,134.587 31.333,134.497 31.333 C 134.407 31.333,134.333 31.238,134.333 31.120 C 134.333 31.003,134.183 30.779,134.000 30.622 C 133.817 30.465,133.667 30.231,133.667 30.103 C 133.667 29.974,133.554 29.826,133.417 29.773 C 133.279 29.720,133.167 29.562,133.167 29.422 C 133.167 29.282,133.093 29.167,133.003 29.167 C 132.913 29.167,132.794 28.985,132.738 28.762 C 132.682 28.540,132.531 28.317,132.402 28.267 C 132.272 28.218,132.167 28.097,132.167 27.998 C 132.167 27.900,132.088 27.729,131.992 27.618 C 131.896 27.507,131.450 26.892,131.000 26.250 C 130.550 25.608,130.119 25.008,130.041 24.917 C 129.963 24.825,129.850 24.619,129.788 24.458 C 129.727 24.298,129.608 24.167,129.523 24.167 C 129.439 24.167,129.322 23.979,129.265 23.750 C 129.207 23.521,129.087 23.333,128.997 23.333 C 128.907 23.333,128.833 23.218,128.833 23.078 C 128.833 22.938,128.728 22.782,128.598 22.733 C 128.469 22.683,128.318 22.460,128.262 22.238 C 128.206 22.015,128.087 21.833,127.997 21.833 C 127.907 21.833,127.833 21.718,127.833 21.578 C 127.833 21.438,127.721 21.280,127.583 21.227 C 127.446 21.174,127.333 21.026,127.333 20.897 C 127.333 20.769,127.183 20.535,127.000 20.378 C 126.817 20.221,126.667 19.997,126.667 19.880 C 126.667 19.626,118.750 19.563,118.594 19.816 M325.333 37.833 L 325.333 56.000 338.250 56.000 L 351.167 56.000 351.167 52.917 L 351.167 49.833 341.667 49.833 L 332.167 49.833 332.167 34.750 L 332.167 19.667 328.750 19.667 L 325.333 19.667 325.333 37.833 M360.167 37.833 L 360.167 56.000 373.917 56.000 L 387.667 56.000 387.667 52.917 L 387.667 49.833 377.250 49.833 L 366.833 49.833 366.833 45.333 L 366.833 40.833 376.000 40.833 L 385.167 40.833 385.167 37.750 L 385.167 34.667 376.000 34.667 L 366.833 34.667 366.833 30.250 L 366.833 25.833 377.083 25.833 L 387.333 25.833 387.333 22.750 L 387.333 19.667 373.750 19.667 L 360.167 19.667 360.167 37.833 M177.902 25.476 C 177.951 25.555,178.349 25.662,178.787 25.714 C 179.225 25.766,179.808 25.926,180.083 26.070 C 180.358 26.214,180.715 26.332,180.875 26.332 C 181.035 26.333,181.167 26.392,181.167 26.463 C 181.167 26.535,181.373 26.682,181.625 26.791 C 182.239 27.055,183.025 27.588,183.590 28.125 C 183.711 28.240,183.871 28.337,183.946 28.341 C 184.022 28.345,184.233 28.538,184.417 28.769 C 184.600 29.001,184.992 29.466,185.288 29.803 C 185.584 30.141,185.827 30.510,185.829 30.625 C 185.832 30.740,185.900 30.833,185.982 30.833 C 186.064 30.833,186.178 31.021,186.235 31.250 C 186.293 31.479,186.413 31.667,186.503 31.667 C 186.593 31.667,186.669 31.760,186.672 31.875 C 186.675 31.990,186.823 32.383,187.000 32.750 C 187.177 33.117,187.325 33.542,187.328 33.694 C 187.331 33.847,187.408 33.997,187.499 34.028 C 187.590 34.058,187.713 34.667,187.774 35.381 C 187.834 36.094,187.947 36.717,188.025 36.765 C 188.211 36.880,188.210 39.167,188.024 39.167 C 187.945 39.167,187.831 39.707,187.770 40.368 C 187.708 41.029,187.594 41.610,187.517 41.660 C 187.439 41.709,187.319 42.010,187.250 42.328 C 187.181 42.646,187.064 43.021,186.991 43.161 C 186.676 43.763,185.582 45.601,185.423 45.794 C 184.920 46.408,183.474 47.833,183.356 47.833 C 183.280 47.833,183.083 47.983,182.917 48.167 C 182.751 48.350,182.520 48.500,182.405 48.500 C 182.289 48.500,182.169 48.556,182.139 48.625 C 182.015 48.903,179.983 49.742,178.750 50.024 C 177.641 50.277,174.530 50.398,174.280 50.196 C 174.172 50.109,173.690 49.984,173.208 49.920 C 172.727 49.855,172.333 49.734,172.333 49.651 C 172.333 49.568,172.210 49.500,172.060 49.500 C 171.740 49.500,170.349 48.844,170.030 48.542 C 169.909 48.427,169.746 48.333,169.669 48.333 C 169.071 48.333,166.314 45.342,165.791 44.125 C 165.682 43.873,165.538 43.667,165.471 43.667 C 165.404 43.667,165.299 43.403,165.239 43.081 C 165.178 42.760,165.069 42.459,164.996 42.414 C 164.922 42.369,164.809 42.013,164.744 41.624 C 164.679 41.235,164.542 40.864,164.440 40.799 C 164.177 40.633,164.180 35.137,164.443 34.817 C 164.549 34.689,164.689 34.227,164.753 33.792 C 164.818 33.356,164.938 33.000,165.019 33.000 C 165.100 33.000,165.167 32.914,165.167 32.810 C 165.167 32.590,165.836 31.181,166.083 30.881 C 166.175 30.769,166.344 30.566,166.458 30.429 C 166.573 30.293,166.667 30.119,166.667 30.044 C 166.667 29.416,170.479 26.511,171.638 26.256 C 171.929 26.192,172.167 26.080,172.167 26.006 C 172.167 25.932,172.561 25.822,173.043 25.762 C 173.525 25.702,174.031 25.582,174.168 25.496 C 174.479 25.299,177.782 25.282,177.902 25.476 M298.328 29.625 C 298.331 29.740,298.405 29.833,298.492 29.833 C 298.580 29.833,298.701 30.096,298.761 30.417 C 298.821 30.738,298.937 31.000,299.019 31.000 C 299.100 31.000,299.167 31.094,299.168 31.208 C 299.168 31.323,299.274 31.618,299.402 31.864 C 299.530 32.110,299.686 32.541,299.748 32.822 C 299.809 33.103,299.925 33.333,300.006 33.333 C 300.086 33.333,300.201 33.596,300.261 33.917 C 300.321 34.237,300.431 34.500,300.505 34.500 C 300.579 34.500,300.690 34.725,300.750 35.000 C 300.810 35.275,300.919 35.500,300.992 35.500 C 301.065 35.500,301.172 35.800,301.231 36.167 C 301.289 36.533,301.411 36.833,301.502 36.833 C 301.593 36.833,301.669 36.927,301.672 37.042 C 301.675 37.156,301.823 37.550,302.000 37.917 C 302.177 38.283,302.325 38.677,302.328 38.792 C 302.331 38.906,302.405 39.000,302.492 39.000 C 302.580 39.000,302.703 39.281,302.766 39.625 C 302.830 39.969,302.940 40.288,303.011 40.335 C 303.082 40.382,303.192 40.626,303.255 40.877 L 303.369 41.333 297.601 41.333 C 293.867 41.333,291.833 41.275,291.833 41.167 C 291.833 41.075,291.908 41.000,292.000 41.000 C 292.092 41.000,292.169 40.906,292.172 40.792 C 292.175 40.677,292.323 40.283,292.500 39.917 C 292.677 39.550,292.825 39.156,292.828 39.042 C 292.831 38.927,292.902 38.833,292.985 38.833 C 293.069 38.833,293.188 38.533,293.250 38.167 C 293.312 37.800,293.431 37.500,293.515 37.500 C 293.598 37.500,293.669 37.406,293.672 37.292 C 293.675 37.177,293.823 36.783,294.000 36.417 C 294.177 36.050,294.325 35.656,294.328 35.542 C 294.331 35.427,294.402 35.333,294.487 35.333 C 294.571 35.333,294.693 35.092,294.758 34.797 C 294.823 34.502,294.939 34.146,295.015 34.005 C 295.296 33.493,295.833 32.180,295.833 32.009 C 295.833 31.912,295.902 31.833,295.987 31.833 C 296.071 31.833,296.193 31.592,296.258 31.297 C 296.323 31.002,296.439 30.646,296.515 30.505 C 296.785 30.012,297.333 28.683,297.333 28.523 C 297.333 27.816,298.308 28.896,298.328 29.625 " stroke="none" fill="#000000" fill-rule="evenodd"></path><path id="path1" d="" stroke="none" fill="#800000" fill-rule="evenodd"></path><path id="path2" d="M41.499 12.585 C 41.277 12.852,40.627 13.972,40.292 14.667 C 40.181 14.896,40.051 15.121,40.003 15.167 C 39.923 15.244,39.708 15.608,39.266 16.417 C 39.165 16.600,39.046 16.787,39.000 16.833 C 38.954 16.879,38.729 17.290,38.500 17.747 C 38.271 18.204,38.008 18.659,37.917 18.759 C 37.825 18.859,37.600 19.235,37.417 19.593 C 37.233 19.952,36.990 20.345,36.875 20.468 C 36.760 20.590,36.667 20.757,36.667 20.837 C 36.667 20.918,36.217 21.729,35.667 22.640 C 35.117 23.550,34.667 24.379,34.667 24.481 C 34.667 24.583,34.608 24.667,34.537 24.667 C 34.465 24.667,34.316 24.873,34.206 25.125 C 34.096 25.377,33.777 25.958,33.497 26.417 C 33.217 26.875,32.899 27.438,32.789 27.667 C 32.680 27.896,32.551 28.121,32.503 28.167 C 32.370 28.294,32.020 28.870,31.794 29.333 C 31.682 29.563,31.551 29.787,31.503 29.833 C 31.456 29.879,31.229 30.290,31.000 30.747 C 30.771 31.204,30.508 31.659,30.417 31.759 C 30.325 31.859,30.100 32.235,29.917 32.593 C 29.733 32.952,29.490 33.345,29.375 33.468 C 29.260 33.590,29.167 33.798,29.167 33.929 C 29.167 34.060,29.092 34.167,29.000 34.167 C 28.908 34.167,28.833 34.250,28.833 34.352 C 28.833 34.454,28.458 35.158,28.000 35.917 C 27.542 36.675,27.167 37.380,27.167 37.481 C 27.167 37.583,27.100 37.667,27.019 37.667 C 26.938 37.667,26.829 37.798,26.776 37.958 C 26.723 38.119,26.411 38.700,26.083 39.250 C 25.756 39.800,25.398 40.438,25.287 40.667 C 25.177 40.896,25.011 41.164,24.919 41.262 C 24.826 41.361,24.600 41.736,24.417 42.096 C 24.233 42.456,24.037 42.788,23.981 42.833 C 23.924 42.879,23.826 43.085,23.761 43.292 C 23.697 43.498,23.574 43.667,23.489 43.667 C 23.403 43.667,23.333 43.750,23.333 43.852 C 23.333 43.954,22.958 44.658,22.500 45.417 C 22.042 46.175,21.667 46.880,21.667 46.981 C 21.667 47.083,21.608 47.167,21.537 47.167 C 21.465 47.167,21.318 47.373,21.209 47.625 C 21.018 48.070,20.669 48.664,20.500 48.833 C 20.454 48.879,20.229 49.290,20.000 49.747 C 19.771 50.204,19.508 50.659,19.417 50.759 C 19.325 50.859,19.100 51.236,18.917 51.596 C 18.733 51.956,18.527 52.275,18.458 52.306 C 18.390 52.336,18.333 52.438,18.333 52.532 C 18.333 52.627,17.958 53.325,17.500 54.083 C 17.042 54.842,16.667 55.546,16.667 55.648 C 16.667 55.750,16.593 55.833,16.503 55.833 C 16.413 55.833,16.293 56.021,16.235 56.250 C 16.178 56.479,16.064 56.667,15.982 56.667 C 15.900 56.667,15.833 56.750,15.833 56.851 C 15.833 56.952,15.346 57.844,14.750 58.833 C 14.154 59.822,13.667 60.714,13.667 60.816 C 13.667 60.917,13.597 61.000,13.511 61.000 C 13.426 61.000,13.303 61.169,13.239 61.375 C 13.174 61.581,13.076 61.788,13.019 61.833 C 12.747 62.055,12.335 63.068,12.464 63.198 C 12.545 63.278,13.603 63.322,14.816 63.297 L 17.023 63.250 17.470 62.417 C 17.716 61.958,17.956 61.546,18.003 61.500 C 18.051 61.454,18.183 61.229,18.297 61.000 C 18.411 60.771,18.731 60.208,19.008 59.750 C 19.285 59.292,19.601 58.729,19.711 58.500 C 19.820 58.271,19.949 58.046,19.997 58.000 C 20.130 57.872,20.480 57.297,20.706 56.833 C 20.818 56.604,20.949 56.379,20.997 56.333 C 21.044 56.288,21.271 55.876,21.500 55.420 C 21.729 54.963,21.992 54.507,22.083 54.407 C 22.175 54.307,22.400 53.932,22.583 53.574 C 22.767 53.215,23.010 52.822,23.125 52.699 C 23.240 52.576,23.333 52.369,23.333 52.238 C 23.333 52.107,23.392 52.000,23.463 52.000 C 23.535 52.000,23.684 51.794,23.794 51.542 C 23.904 51.290,24.223 50.708,24.503 50.250 C 24.783 49.792,25.101 49.229,25.211 49.000 C 25.320 48.771,25.450 48.546,25.500 48.500 C 25.550 48.454,25.682 48.229,25.794 48.000 C 26.015 47.548,26.367 46.967,26.500 46.833 C 26.546 46.788,26.771 46.375,27.000 45.917 C 27.229 45.458,27.454 45.046,27.500 45.000 C 27.632 44.868,27.984 44.288,28.208 43.833 C 28.320 43.604,28.507 43.318,28.623 43.196 C 28.739 43.075,28.833 42.869,28.833 42.738 C 28.833 42.607,28.902 42.500,28.987 42.500 C 29.071 42.500,29.190 42.275,29.250 42.000 C 29.310 41.725,29.412 41.500,29.475 41.500 C 29.538 41.500,29.776 41.145,30.003 40.711 C 30.231 40.278,30.510 39.822,30.625 39.699 C 30.740 39.577,30.833 39.369,30.833 39.238 C 30.833 39.107,30.892 39.000,30.963 39.000 C 31.035 39.000,31.184 38.794,31.294 38.542 C 31.404 38.290,31.723 37.708,32.003 37.250 C 32.283 36.792,32.601 36.229,32.711 36.000 C 32.820 35.771,32.949 35.546,32.997 35.500 C 33.044 35.454,33.165 35.267,33.266 35.083 C 33.699 34.291,33.922 33.911,34.000 33.833 C 34.046 33.787,34.271 33.376,34.500 32.920 C 34.729 32.463,34.992 32.007,35.083 31.907 C 35.175 31.807,35.400 31.432,35.583 31.074 C 35.767 30.715,36.010 30.322,36.125 30.199 C 36.240 30.076,36.333 29.869,36.333 29.738 C 36.333 29.607,36.392 29.500,36.463 29.500 C 36.535 29.500,36.684 29.294,36.794 29.042 C 36.904 28.790,37.223 28.208,37.503 27.750 C 37.783 27.292,38.101 26.729,38.211 26.500 C 38.320 26.271,38.449 26.046,38.497 26.000 C 38.627 25.874,38.959 25.320,39.300 24.658 C 39.468 24.332,39.994 23.421,40.469 22.634 C 40.944 21.848,41.333 21.120,41.333 21.019 C 41.333 20.917,41.408 20.833,41.500 20.833 C 41.605 20.833,41.667 21.912,41.667 23.736 C 41.667 26.714,41.576 27.196,40.875 27.963 C 40.760 28.088,40.667 28.298,40.667 28.429 C 40.667 28.560,40.608 28.667,40.537 28.667 C 40.465 28.667,40.316 28.873,40.206 29.125 C 40.096 29.377,39.777 29.958,39.497 30.417 C 39.217 30.875,38.899 31.438,38.789 31.667 C 38.680 31.896,38.551 32.121,38.503 32.167 C 38.456 32.212,38.323 32.419,38.208 32.625 C 38.094 32.831,37.906 33.169,37.792 33.375 C 37.677 33.581,37.546 33.787,37.500 33.833 C 37.454 33.879,37.229 34.292,37.000 34.750 C 36.771 35.208,36.546 35.621,36.500 35.667 C 36.424 35.743,36.295 35.961,35.766 36.910 C 35.665 37.090,35.490 37.339,35.375 37.464 C 35.260 37.588,35.167 37.798,35.167 37.929 C 35.167 38.060,35.098 38.167,35.013 38.167 C 34.929 38.167,34.810 38.392,34.750 38.667 C 34.690 38.942,34.576 39.167,34.498 39.167 C 34.420 39.167,34.183 39.523,33.970 39.958 C 33.757 40.394,33.490 40.849,33.375 40.970 C 33.260 41.091,33.167 41.298,33.167 41.429 C 33.167 41.560,33.108 41.667,33.037 41.667 C 32.965 41.667,32.816 41.873,32.706 42.125 C 32.596 42.377,32.277 42.958,31.997 43.417 C 31.717 43.875,31.398 44.438,31.288 44.667 C 31.178 44.896,31.011 45.164,30.919 45.262 C 30.826 45.361,30.600 45.736,30.417 46.096 C 30.233 46.456,30.046 46.788,30.000 46.833 C 29.954 46.879,29.729 47.290,29.500 47.747 C 29.271 48.204,29.008 48.659,28.917 48.759 C 28.825 48.859,28.600 49.235,28.417 49.593 C 28.233 49.952,27.990 50.345,27.875 50.468 C 27.760 50.590,27.667 50.762,27.667 50.849 C 27.667 50.935,27.463 51.324,27.214 51.712 C 26.664 52.568,26.064 53.604,25.792 54.167 C 25.681 54.396,25.544 54.621,25.487 54.667 C 25.360 54.770,24.878 55.650,24.735 56.042 C 24.676 56.202,24.562 56.333,24.481 56.333 C 24.400 56.333,24.333 56.417,24.333 56.519 C 24.333 56.620,23.958 57.325,23.500 58.083 C 23.042 58.842,22.667 59.546,22.667 59.648 C 22.667 59.750,22.592 59.833,22.500 59.833 C 22.408 59.833,22.333 59.918,22.333 60.021 C 22.333 60.124,22.000 60.757,21.593 61.427 C 20.435 63.334,20.365 63.242,23.013 63.296 L 25.276 63.342 25.596 62.715 C 25.773 62.371,25.992 62.007,26.083 61.907 C 26.175 61.807,26.400 61.432,26.583 61.074 C 26.767 60.715,27.010 60.322,27.125 60.199 C 27.240 60.076,27.333 59.869,27.333 59.738 C 27.333 59.607,27.408 59.500,27.500 59.500 C 27.592 59.500,27.667 59.417,27.667 59.315 C 27.667 59.213,28.042 58.509,28.500 57.750 C 28.958 56.991,29.333 56.287,29.333 56.185 C 29.333 56.083,29.400 56.000,29.481 56.000 C 29.562 56.000,29.671 55.869,29.724 55.708 C 29.777 55.548,30.089 54.967,30.417 54.417 C 30.744 53.867,31.102 53.229,31.211 53.000 C 31.320 52.771,31.449 52.546,31.497 52.500 C 31.664 52.339,32.014 51.746,32.209 51.292 C 32.318 51.040,32.465 50.833,32.537 50.833 C 32.608 50.833,32.667 50.726,32.667 50.595 C 32.667 50.464,32.769 50.255,32.895 50.129 C 33.020 50.004,33.180 49.717,33.250 49.492 C 33.321 49.267,33.429 49.046,33.491 49.000 C 33.688 48.854,34.833 46.881,34.833 46.687 C 34.833 46.584,34.892 46.500,34.963 46.500 C 35.035 46.500,35.182 46.294,35.291 46.042 C 35.482 45.596,35.831 45.002,36.000 44.833 C 36.046 44.788,36.271 44.375,36.500 43.917 C 36.729 43.458,36.954 43.046,37.000 43.000 C 37.046 42.954,37.189 42.729,37.319 42.500 C 37.449 42.271,37.770 41.708,38.033 41.250 C 38.297 40.792,38.602 40.229,38.712 40.000 C 38.823 39.771,38.989 39.503,39.081 39.404 C 39.174 39.306,39.400 38.932,39.583 38.574 C 39.767 38.215,40.010 37.822,40.125 37.699 C 40.240 37.576,40.333 37.399,40.333 37.304 C 40.333 37.209,40.543 36.821,40.800 36.441 C 41.056 36.061,41.337 35.600,41.425 35.417 C 41.533 35.189,41.598 36.056,41.629 38.154 C 41.654 39.844,41.616 41.269,41.546 41.321 C 41.475 41.374,41.229 41.790,41.000 42.247 C 40.771 42.704,40.508 43.159,40.417 43.259 C 40.325 43.359,40.100 43.735,39.917 44.093 C 39.733 44.452,39.490 44.845,39.375 44.968 C 39.260 45.090,39.167 45.291,39.167 45.415 C 39.167 45.538,39.110 45.664,39.042 45.694 C 38.929 45.744,38.666 46.195,37.845 47.742 C 37.701 48.013,37.490 48.337,37.375 48.463 C 37.260 48.588,37.167 48.798,37.167 48.929 C 37.167 49.060,37.108 49.167,37.037 49.167 C 36.965 49.167,36.812 49.373,36.697 49.625 C 36.310 50.470,36.089 50.833,35.960 50.833 C 35.891 50.833,35.833 50.913,35.833 51.011 C 35.833 51.109,35.458 51.823,35.000 52.599 C 34.542 53.375,34.167 54.083,34.167 54.172 C 34.167 54.261,34.092 54.333,34.000 54.333 C 33.908 54.333,33.833 54.417,33.833 54.519 C 33.833 54.620,33.458 55.325,33.000 56.083 C 32.542 56.842,32.167 57.546,32.167 57.648 C 32.167 57.750,32.097 57.833,32.011 57.833 C 31.926 57.833,31.804 58.002,31.740 58.208 C 31.677 58.415,31.409 58.906,31.146 59.300 C 30.882 59.694,30.667 60.082,30.667 60.161 C 30.667 60.241,30.610 60.331,30.542 60.361 C 30.473 60.392,30.229 60.790,30.000 61.247 C 29.771 61.704,29.490 62.178,29.375 62.301 C 29.260 62.423,29.167 62.706,29.167 62.929 L 29.167 63.333 31.390 63.333 C 33.526 63.333,33.621 63.319,33.809 62.958 C 33.916 62.752,34.231 62.208,34.508 61.750 C 34.785 61.292,35.101 60.729,35.211 60.500 C 35.320 60.271,35.454 60.046,35.509 60.000 C 35.563 59.954,35.657 59.804,35.717 59.667 C 35.777 59.529,36.012 59.117,36.238 58.750 C 36.465 58.383,36.822 57.746,37.033 57.333 C 37.244 56.921,37.492 56.503,37.583 56.404 C 37.675 56.306,37.900 55.932,38.083 55.574 C 38.267 55.215,38.510 54.822,38.625 54.699 C 38.740 54.576,38.833 54.369,38.833 54.238 C 38.833 54.107,38.892 54.000,38.963 54.000 C 39.035 54.000,39.184 53.794,39.294 53.542 C 39.404 53.290,39.723 52.708,40.003 52.250 C 40.283 51.792,40.601 51.229,40.711 51.000 C 40.820 50.771,40.950 50.546,41.000 50.500 C 41.050 50.454,41.201 50.192,41.337 49.917 C 41.565 49.454,41.587 49.653,41.629 52.550 C 41.667 55.175,41.633 55.724,41.420 55.937 C 41.281 56.076,41.167 56.298,41.167 56.429 C 41.167 56.560,41.099 56.667,41.016 56.667 C 40.934 56.667,40.779 56.873,40.673 57.125 C 40.344 57.908,40.093 58.333,39.960 58.333 C 39.891 58.333,39.833 58.417,39.833 58.519 C 39.833 58.620,39.458 59.325,39.000 60.083 C 38.542 60.842,38.167 61.540,38.167 61.634 C 38.167 61.728,38.110 61.831,38.042 61.861 C 37.825 61.958,37.328 63.023,37.426 63.181 C 37.595 63.455,70.994 63.377,71.099 63.103 C 71.148 62.976,70.958 62.499,70.677 62.043 C 70.396 61.586,70.167 61.128,70.167 61.023 C 70.167 60.919,70.092 60.833,70.000 60.833 C 69.908 60.833,69.833 60.762,69.833 60.675 C 69.833 60.588,69.618 60.194,69.354 59.800 C 69.091 59.406,68.823 58.915,68.760 58.708 C 68.696 58.502,68.574 58.333,68.489 58.333 C 68.403 58.333,68.333 58.250,68.333 58.148 C 68.333 58.046,67.958 57.342,67.500 56.583 C 67.042 55.825,66.667 55.127,66.667 55.032 C 66.667 54.938,66.610 54.836,66.542 54.806 C 66.473 54.775,66.235 54.413,66.012 54.000 C 65.790 53.587,65.565 53.212,65.512 53.167 C 65.460 53.121,65.229 52.708,65.000 52.250 C 64.771 51.792,64.546 51.379,64.500 51.333 C 64.331 51.164,63.982 50.570,63.791 50.125 C 63.682 49.873,63.535 49.667,63.463 49.667 C 63.392 49.667,63.333 49.560,63.333 49.429 C 63.333 49.298,63.240 49.088,63.125 48.962 C 62.933 48.752,62.500 48.003,61.845 46.750 C 61.701 46.475,61.527 46.225,61.458 46.194 C 61.390 46.164,61.333 46.038,61.333 45.915 C 61.333 45.791,61.240 45.590,61.125 45.468 C 61.010 45.345,60.767 44.952,60.583 44.593 C 60.400 44.235,60.174 43.861,60.081 43.762 C 59.989 43.664,59.823 43.396,59.712 43.167 C 59.602 42.938,59.297 42.375,59.033 41.917 C 58.770 41.458,58.449 40.896,58.319 40.667 C 58.189 40.438,58.044 40.212,57.997 40.167 C 57.949 40.121,57.820 39.896,57.711 39.667 C 57.601 39.438,57.283 38.875,57.003 38.417 C 56.723 37.958,56.404 37.377,56.294 37.125 C 56.184 36.873,56.035 36.667,55.963 36.667 C 55.892 36.667,55.833 36.560,55.833 36.429 C 55.833 36.298,55.740 36.090,55.625 35.968 C 55.510 35.845,55.267 35.452,55.083 35.093 C 54.900 34.735,54.675 34.359,54.583 34.259 C 54.492 34.159,54.229 33.704,54.000 33.247 C 53.771 32.790,53.544 32.379,53.497 32.333 C 53.449 32.287,53.318 32.063,53.206 31.833 C 52.980 31.370,52.630 30.794,52.497 30.667 C 52.449 30.621,52.320 30.396,52.211 30.167 C 52.101 29.938,51.783 29.375,51.503 28.917 C 51.223 28.458,50.904 27.877,50.794 27.625 C 50.684 27.373,50.535 27.167,50.463 27.167 C 50.392 27.167,50.333 27.083,50.333 26.981 C 50.333 26.880,49.958 26.175,49.500 25.417 C 49.042 24.658,48.667 23.954,48.667 23.852 C 48.667 23.750,48.592 23.667,48.500 23.667 C 48.408 23.667,48.333 23.560,48.333 23.429 C 48.333 23.298,48.240 23.090,48.125 22.968 C 48.010 22.845,47.767 22.452,47.583 22.093 C 47.400 21.735,47.174 21.361,47.081 21.262 C 46.989 21.164,46.823 20.896,46.713 20.667 C 46.602 20.438,46.244 19.800,45.917 19.250 C 45.589 18.700,45.277 18.119,45.224 17.958 C 45.171 17.798,45.062 17.667,44.981 17.667 C 44.900 17.667,44.833 17.583,44.833 17.481 C 44.833 17.380,44.458 16.675,44.000 15.917 C 43.542 15.158,43.167 14.454,43.167 14.352 C 43.167 14.250,43.092 14.167,43.000 14.167 C 42.908 14.167,42.833 14.060,42.833 13.929 C 42.833 13.798,42.739 13.591,42.623 13.470 C 42.507 13.349,42.322 13.044,42.210 12.792 C 41.980 12.273,41.801 12.221,41.499 12.585 " stroke="none" fill="#da291c" fill-rule="evenodd"></path><path id="path3" d="" stroke="none" fill="#ff0000" fill-rule="evenodd"></path><path id="path4" d="" stroke="none" fill="#ff5500" fill-rule="evenodd"></path></g></svg>