<?xml version="1.0" encoding="UTF-8" standalone="no"?>
<svg
   xmlns:dc="http://purl.org/dc/elements/1.1/"
   xmlns:cc="http://creativecommons.org/ns#"
   xmlns:rdf="http://www.w3.org/1999/02/22-rdf-syntax-ns#"
   xmlns:svg="http://www.w3.org/2000/svg"
   xmlns="http://www.w3.org/2000/svg"
   xmlns:sodipodi="http://sodipodi.sourceforge.net/DTD/sodipodi-0.dtd"
   xmlns:inkscape="http://www.inkscape.org/namespaces/inkscape"
   enable-background="new 0 0 50 50"
   id="Layer_1"
   version="1.1"
   viewBox="0 0 50 50"
   xml:space="preserve"
   inkscape:version="0.91 r13725"
   sodipodi:docname="github.svg"><metadata
     id="metadata10"><rdf:RDF><cc:Work
         rdf:about=""><dc:format>image/svg+xml</dc:format><dc:type
           rdf:resource="http://purl.org/dc/dcmitype/StillImage" /></cc:Work></rdf:RDF></metadata><defs
     id="defs8" /><sodipodi:namedview
     pagecolor="#ffffff"
     bordercolor="#666666"
     borderopacity="1"
     objecttolerance="10"
     gridtolerance="10"
     guidetolerance="10"
     inkscape:pageopacity="0"
     inkscape:pageshadow="2"
     inkscape:window-width="697"
     inkscape:window-height="480"
     id="namedview6"
     showgrid="false"
     inkscape:zoom="4.72"
     inkscape:cx="-4.0254237"
     inkscape:cy="24.788136"
     inkscape:window-x="0"
     inkscape:window-y="0"
     inkscape:window-maximized="0"
     inkscape:current-layer="Layer_1" /><path
     d="M45,1H5C2.8,1,1,2.8,1,5v40c0,2.2,1.8,4,4,4h40c2.2,0,4-1.8,4-4V5C49,2.8,47.2,1,45,1z"
     fill="#282828"
     id="path3"
     style="fill:#4f4f4f;fill-opacity:1" /><path
     d="M30.4,40h-4h-4c0,0,0-2.4,0-4c-5.5,1.2-7-3-7-3c-1-2-2-3-2-3c-2-1.2,0-1,0-1c2,0,3,2,3,2  c1.8,3,4.9,2.5,6,2c0-1,0.4-2.5,1-3c-4.4-0.5-8-3-8-8s1-6,2-7c-0.2-0.5-1-2.3,0-5c0,0,2,0,4,3c1-1,4-1,5-1c1,0,4,0,5,1c2-3,4-3,4-3  c1.1,2.7,0.2,4.5,0,5c1,1,2,2,2,7s-3.6,7.5-8,8c0.6,0.5,1,2.2,1,3L30.4,40L30.4,40z"
     fill="#FFFFFF"
     id="Cat_2_" /></svg>