<?xml version="1.0" encoding="utf-8"?>
<!-- Generator: Adobe Illustrator 19.2.0, SVG Export Plug-In . SVG Version: 6.00 Build 0)  -->
<!DOCTYPE svg PUBLIC "-//W3C//DTD SVG 1.1//EN" "http://www.w3.org/Graphics/SVG/1.1/DTD/svg11.dtd">
<svg version="1.1" id="Layer_1" xmlns="http://www.w3.org/2000/svg" xmlns:xlink="http://www.w3.org/1999/xlink" x="0px" y="0px"
	 viewBox="0 0 130 130" enable-background="new 0 0 130 130" xml:space="preserve">
<g>
	<path fill="none" stroke="#46196E" stroke-width="4" stroke-linecap="round" stroke-linejoin="round" stroke-miterlimit="10" d="
		M118,127H12c-4.971,0-9-4.029-9-9V12c0-4.971,4.029-9,9-9h106c4.971,0,9,4.029,9,9v106C127,122.971,122.971,127,118,127z"/>
	
		<line fill="none" stroke="#46196E" stroke-width="4" stroke-linecap="round" stroke-linejoin="round" stroke-miterlimit="10" x1="47" y1="65" x2="111" y2="65"/>
	
		<line fill="none" stroke="#46196E" stroke-width="4" stroke-linecap="round" stroke-linejoin="round" stroke-miterlimit="10" x1="47" y1="31" x2="111" y2="31"/>
	
		<line fill="none" stroke="#46196E" stroke-width="4" stroke-linecap="round" stroke-linejoin="round" stroke-miterlimit="10" x1="47" y1="99" x2="111" y2="99"/>
	
		<polyline fill="none" stroke="#46196E" stroke-width="4" stroke-linecap="round" stroke-linejoin="round" stroke-miterlimit="10" points="
		19,31 23,35 35,23 	"/>
	
		<polyline fill="none" stroke="#46196E" stroke-width="4" stroke-linecap="round" stroke-linejoin="round" stroke-miterlimit="10" points="
		19,65 23,69 35,57 	"/>
	
		<polyline fill="none" stroke="#46196E" stroke-width="4" stroke-linecap="round" stroke-linejoin="round" stroke-miterlimit="10" points="
		19,99 23,103 35,91 	"/>
</g>
</svg>
