<?xml version="1.0" encoding="UTF-8" standalone="no"?>
<svg
   xmlns:dc="http://purl.org/dc/elements/1.1/"
   xmlns:cc="http://creativecommons.org/ns#"
   xmlns:rdf="http://www.w3.org/1999/02/22-rdf-syntax-ns#"
   xmlns:svg="http://www.w3.org/2000/svg"
   xmlns="http://www.w3.org/2000/svg"
   xmlns:sodipodi="http://sodipodi.sourceforge.net/DTD/sodipodi-0.dtd"
   xmlns:inkscape="http://www.inkscape.org/namespaces/inkscape"
   width="8"
   height="8"
   viewBox="0 0 8 8"
   id="svg2"
   version="1.1"
   inkscape:version="0.91 r13725"
   sodipodi:docname="twitter.svg">
  <metadata
     id="metadata10">
    <rdf:RDF>
      <cc:Work
         rdf:about="">
        <dc:format>image/svg+xml</dc:format>
        <dc:type
           rdf:resource="http://purl.org/dc/dcmitype/StillImage" />
        <dc:title />
      </cc:Work>
    </rdf:RDF>
  </metadata>
  <defs
     id="defs8">
    <style
       id="style4141">.cls-1{fill:none;}.cls-2{fill:#1da1f2;}</style>
  </defs>
  <sodipodi:namedview
     pagecolor="#ffffff"
     bordercolor="#666666"
     borderopacity="1"
     objecttolerance="10"
     gridtolerance="10"
     guidetolerance="10"
     inkscape:pageopacity="0"
     inkscape:pageshadow="2"
     inkscape:window-width="1920"
     inkscape:window-height="1137"
     id="namedview6"
     showgrid="false"
     inkscape:zoom="29.5"
     inkscape:cx="-6.2372881"
     inkscape:cy="3.9322034"
     inkscape:window-x="-8"
     inkscape:window-y="-8"
     inkscape:window-maximized="1"
     inkscape:current-layer="svg2" />
  <path
     id="path9"
     d="m 2.512992,7.252499 c 3.0188077,0 4.6706682,-2.5034008 4.6706682,-4.6706673 0,-0.070428 0,-0.1408564 -0.00319,-0.2112846 C 7.5005976,2.1400552 7.7791097,1.8487387 7.9999975,1.5190067 7.7054798,1.6502595 7.3885526,1.7366937 7.0556198,1.7783105 7.394955,1.57663 7.6542594,1.2533004 7.7791097,0.869147 7.4621825,1.0580226 7.1100425,1.1924764 6.7354914,1.2661058 6.4345713,0.9459777 6.0088014,0.7474984 5.5382129,0.7474984 c -0.9059614,0 -1.6422564,0.7362944 -1.6422564,1.6422565 0,0.1280511 0.01601,0.2529009 0.04162,0.3745495 -1.363745,-0.067226 -2.573828,-0.7234888 -3.383753,-1.7158857 -0.140856,0.2432973 -0.220888,0.5250101 -0.220888,0.8259303 0,0.5698275 0.291316,1.0724286 0.729892,1.3669463 -0.268907,-0.0096 -0.521808,-0.083233 -0.742698,-0.2048817 0,0.0064 0,0.012806 0,0.022409 0,0.7939171 0.566628,1.4597831 1.315727,1.6102437 -0.137656,0.038412 -0.281712,0.057623 -0.432174,0.057623 -0.105641,0 -0.208082,-0.0096 -0.307321,-0.028809 0.208082,0.6530612 0.816326,1.1268503 1.533413,1.1396557 -0.563426,0.4417765 -1.270909,0.7042816 -2.039215,0.7042816 -0.131254,0 -0.262506,-0.0064 -0.390557,-0.022409 0.72349,0.4609843 1.587836,0.733093 2.513004,0.733093"
     class="st1"
     inkscape:connector-curvature="0"
     style="fill:#4f4f4f;fill-opacity:1" />
</svg>
