<?xml version="1.0" encoding="UTF-8" standalone="no"?>
<!-- Generator: Adobe Illustrator 19.2.1, SVG Export Plug-In . SVG Version: 6.00 Build 0)  -->

<svg
   xmlns:dc="http://purl.org/dc/elements/1.1/"
   xmlns:cc="http://creativecommons.org/ns#"
   xmlns:rdf="http://www.w3.org/1999/02/22-rdf-syntax-ns#"
   xmlns:svg="http://www.w3.org/2000/svg"
   xmlns="http://www.w3.org/2000/svg"
   xmlns:sodipodi="http://sodipodi.sourceforge.net/DTD/sodipodi-0.dtd"
   xmlns:inkscape="http://www.inkscape.org/namespaces/inkscape"
   version="1.1"
   id="svg2"
   inkscape:version="0.91 r13725"
   sodipodi:docname="dcd18 logo new.svg"
   x="0px"
   y="0px"
   viewBox="0 0 300 300"
   style="enable-background:new 0 0 300 300;"
   xml:space="preserve"
   inkscape:export-filename="E:\Love\Silver Moon Art &amp; Design\Clients\DCD18\Logo\dcd18 logo new.png"
   inkscape:export-xdpi="85.761299"
   inkscape:export-ydpi="85.761299"><metadata
   id="metadata31"><rdf:RDF><cc:Work
       rdf:about=""><dc:format>image/svg+xml</dc:format><dc:type
         rdf:resource="http://purl.org/dc/dcmitype/StillImage" /></cc:Work></rdf:RDF></metadata><defs
   id="defs29"><path
   style="opacity:1;fill:none;fill-opacity:1;stroke:#bebcf2;stroke-width:0.77700001;stroke-linecap:round;stroke-linejoin:round;stroke-miterlimit:4;stroke-dasharray:none;stroke-opacity:1"
   d="m 150.84945,364.78504 c 36.10757,-15.21707 141.42135,-39.73266 233.00852,2.69374"
   id="path4379-6"
   inkscape:connector-curvature="0"
   sodipodi:nodetypes="cc" />
	

		
		
	
			
		
				
				
				
				
				
				
				
				
				
				
					
				
				
					
			</defs><sodipodi:namedview
   pagecolor="#ffffff"
   bordercolor="#666666"
   borderopacity="1"
   objecttolerance="10"
   gridtolerance="10"
   guidetolerance="10"
   inkscape:pageopacity="0"
   inkscape:pageshadow="2"
   inkscape:window-width="1920"
   inkscape:window-height="1137"
   id="namedview27"
   showgrid="false"
   inkscape:zoom="1.1125147"
   inkscape:cx="35.365519"
   inkscape:cy="151.96256"
   inkscape:window-x="-8"
   inkscape:window-y="-8"
   inkscape:window-maximized="1"
   inkscape:current-layer="svg2" />
<style
   type="text/css"
   id="style3">
	.st0{fill:#DE8051;}
	.st1{fill:#FFFFFF;}
	.st2{fill:#90B4FE;}
	.st3{fill:#3D6AB3;}
	.st4{fill:#C44551;}
</style>

<style
   id="style4160"
   type="text/css">
	.st0{fill:#A481EB;}
	.st1{fill:#5B53A3;}
	.st2{fill:#A84A3D;}
	.st3{fill:#DE8C51;}
	.st4{fill:#FFFFFF;}
	.st5{fill:#393467;}
	.st6{fill:#F2F2F2;}
	.st7{fill:#90B4FE;}
	.st8{fill:none;stroke:#DE8C51;stroke-width:7;stroke-miterlimit:10;}
</style>

<g
   id="g4612"
   inkscape:export-xdpi="85.761299"
   inkscape:export-ydpi="85.761299"><circle
     style="fill:#de8051"
     id="circle9"
     r="150"
     cy="150"
     cx="150"
     class="st0" /><path
     style="fill:#ffffff"
     d="M 289.2,150 C 289.2,226.9 226.9,289.2 150,289.2 73.1,289.2 10.8,226.9 10.8,150 10.8,73.1 73.1,10.8 150,10.8 l 0,0 c 76.9,0 139.2,62.3 139.2,139.2 l 0,0 z"
     class="st1"
     inkscape:connector-curvature="0"
     id="path4167_1_" /><path
     inkscape:connector-curvature="0"
     id="path4441-8_1_"
     d="m 84.699219,115.25 0,52.80078 6.300781,0 0,-52.80078 -6.300781,0 z m 64.500001,3.20117 c -2.5,0 -4.89922,2.09961 -5.19922,4.59961 -0.4,2.5 1.40039,4.59961 3.90039,4.59961 2.5,0 4.89883,-2.09961 5.29883,-4.59961 0.3,-2.5 -1.5,-4.59961 -4,-4.59961 z m -33.5,15.69922 c -9.9,0 -17.599611,7.70039 -17.599611,17.40039 0,9.6 7.699611,17.40039 17.599611,17.40039 9.9,0 17.60156,-7.80039 17.60156,-17.40039 0,-9.6 -7.70156,-17.40039 -17.60156,-17.40039 z m 97.30078,0 c -4.1,0 -8.30039,2.40039 -9.90039,5.90039 l -0.0996,0 0,-5.09961 -6.30078,0 -0.0996,33.09961 6.30078,0 0,-16.59961 c 0,-7.3 3.3,-10.59961 9.5,-10.59961 1,0 1.99961,0.2 3.09961,0.5 l 0.30076,-6.80078 c -0.8,-0.3 -1.80078,-0.40039 -2.80078,-0.40039 z m 23.19922,0 c -9.9,0 -17.09961,7.50039 -17.09961,17.40039 0,9.8 6.5,17.40039 17,17.40039 6.3,0 11.09961,-2.20078 14.59961,-6.80078 L 246,158.55078 c -2.4,3 -5.19961,5 -9.09961,5 -5.8,0 -11.09961,-3.79961 -11.09961,-9.59961 l 26.5,-0.0996 0,-2.20117 c 0,-8.5 -4.50156,-17.5 -16.10156,-17.5 z M 65,134.25 c -10.299999,0 -17.300781,7.3 -17.300781,17.5 0,10.2 7.100781,17.20117 17.300781,17.20117 4.8,0 9.3,-1.49961 12.5,-5.09961 l -4.5,-4.5 c -2.099999,2.4 -4.5,3.69922 -8,3.69922 -6.5,0 -10.699219,-4.99922 -10.699219,-11.19922 0,-6.2 3.498828,-11.70117 10.298828,-11.70117 3.5,0 5.901173,1.30117 8.201172,3.70117 l 4.898438,-4.40039 C 74.399219,135.85117 69.8,134.25 65,134.25 Z m 92.69922,0.60156 0,21.29883 c 0,8.8 5.6,12.59961 12,12.59961 5.1,0 9.30039,-2.39844 10.90039,-5.89844 l 0.0996,0 0,5.09961 6.30078,0 0,-33 -6.30078,0 0,17 c 0,7.7 -3.99922,11 -9.19922,11 -4,0 -7.5,-2.3 -7.5,-8.5 l 0,-19.59961 -6.30078,0 z m -13.89844,0.0996 -5.30078,37.59962 c -0.6,4.2 -2.1,6.40039 -5.5,6.40039 -0.8,0 -1.7,-0.29961 -2.5,-0.59961 l -1.5,5.79883 c 1.3,0.5 2.50039,0.59961 3.90039,0.59961 10,0 11.39883,-8.6 11.79883,-12 l 5.40039,-37.79883 -6.29883,0 z M 236,139.15039 c 6.3,0 9.4,4.09961 9.5,9.59961 l -19.69922,0 c 0,-4.4 3.99922,-9.59961 10.19922,-9.59961 z m -120.30078,0.90039 c 6.7,0 10.90039,4.8 10.90039,11.5 0,6.7 -4.20039,11.5 -10.90039,11.5 -6.7,0 -10.89844,-4.8 -10.89844,-11.5 0,-6.7 4.19844,-11.5 10.89844,-11.5 z"
     style="fill:#90b4fe" /><g
     transform="translate(-0.0999975,3.905e-4)"
     id="g4604"><g
       id="g4596"><path
         style="fill:#586ab3;fill-opacity:1"
         d="m 32,201.1 c 19.3,45.6 64.9,77.7 118.1,77.7 53.2,0 98.8,-32.1 118.1,-77.7 l -236.2,0 0,0 z"
         class="st3"
         inkscape:connector-curvature="0"
         id="path3545-7-2-4-4-6-4-1-3-5-8_1_" /><path
         inkscape:connector-curvature="0"
         id="path3545-7-2-4-4-6-4-1-3-1_1_"
         d="m 32,201.09961 c 5.144305,12.15442 12.172062,23.33663 20.699219,33.2207 l 0,-20.12109 9.701172,0 c 13.9,0 25.599609,6.60117 25.599609,20.70117 0,10.86706 -5.070461,16.96251 -12.929688,19.87305 4.783563,3.42842 9.81357,6.54207 15.064454,9.30078 9.079647,-6.00132 15.064454,-15.49217 15.064454,-28.375 0,-20.5 -10.99922,-30.99961 -27.19922,-34.59961 l -46,0 z m 94.59961,0 -29.767579,66.23047 c 5.743269,2.60353 11.713979,4.79648 17.876949,6.54687 L 120.40039,260 l 33.40039,0 7.6582,18.28906 c 5.46648,-0.47571 10.83299,-1.29003 16.08008,-2.42383 2.10719,-0.46389 4.19548,-0.95341 6.22461,-1.49023 0.0198,-0.005 0.0388,-0.0104 0.0586,-0.0156 4.04463,-1.08967 8.00256,-2.3861 11.87695,-3.84766 l 0,-25.61133 18.80078,-28.5 c 0.16603,8.35277 5.66964,11.13018 10.92578,13.05469 4.89149,1.79101 9.95029,3.40185 10.08594,7.51953 0.12451,3.77929 -2.4125,6.42578 -6.3125,6.42578 -4,0 -7.49922,-1.8 -10.69922,-5 l -8.59961,9.40039 c 3.83316,3.3657 8.74666,7.0054 13.70117,8.03711 10.55946,-7.33874 19.94641,-16.20619 27.82422,-26.28711 C 245.87932,219.65147 230,221.27465 230,213.19922 c 0,-3.9 2.98269,-5.69028 6.85938,-5.05469 2.86179,0.4692 5.94574,2.47563 8.74023,4.95508 l 8.20117,-10.5 c -0.65438,-0.5609 -1.31046,-1.03219 -1.96484,-1.5 l -47.59766,0 -17.53906,28.09961 -16.54102,-28.09961 -43.55859,0 z m 21.59961,0.40039 29.5,43.40039 0,22 -29.5,-65.40039 z m -11.39844,17.30078 10.59961,25.79883 -21,0 10.40039,-25.79883 z"
         style="fill:#90b4fe" /></g><g
       id="g4600"><path
         style="fill:#c44551;fill-opacity:1"
         d="m 31.999995,98.9 c 19.3,-45.6 64.9,-77.699998 118.100005,-77.699998 53.2,0 98.8,32.099998 118.1,77.699998 l -236.200005,0 0,0 z"
         class="st3"
         inkscape:connector-curvature="0"
         id="path3545-7-2-4-4-6-4-1-3-5-8_1_-1" /><path
         sodipodi:nodetypes="sccsscccccsscccccccsccccccscccccccsccccccccccccssccccccs"
         inkscape:connector-curvature="0"
         id="path3545-7-2-4-4-6-4-1-3-9-3_1_"
         d="m 150.09961,21.199219 c -9.12436,0 -18.01674,0.965052 -26.59961,2.759765 l 0.0996,46.441407 c 0,9.9 -7.09922,17.298828 -16.69922,17.298828 -9.799999,0 -16.800781,-7.498828 -16.800781,-17.298828 l 0,-34.457032 c -6.488703,3.411571 -12.637314,7.368074 -18.40039,11.791016 l 0,8.765625 c -2.175713,-1.285649 -4.547373,-2.275786 -7.017578,-2.974609 -3.170979,2.812188 -6.193417,5.782468 -9.066407,8.890625 8.42723,0.930953 13.285157,5.625699 13.285157,14.484375 0,11.6 -6.401172,15.599609 -17.201172,15.599609 l -6.09961,0 0,-17.830078 C 40.21512,82.184084 35.639461,90.301457 32,98.900391 l 38.099609,0 C 73.299609,97.100391 76.100781,94.8 78.300781,92 80.400781,94.7 83,97.000391 86,98.900391 l 41.90039,0 C 137.20039,93.100391 142,83.099219 142,71.199219 l 0,-34.298828 4.90039,0 0,62 18.40039,0 0,-62 19,0 c -9.5,6.4 -15.30078,17.00039 -15.30078,30.40039 0,14.3 6.70039,25.39961 17.40039,31.59961 l 46.79883,0 0,-14.09961 19.20117,0 0,14.09961 15.79883,0 -2.60547,-5.701172 c -1.10596,-2.286182 -2.26148,-4.543971 -3.5,-6.751953 -0.74209,-1.322967 -1.50866,-2.632345 -2.29687,-3.925782 -0.0429,-0.0702 -0.0879,-0.13888 -0.13086,-0.208984 -0.72548,-1.185264 -1.471,-2.356151 -2.23438,-3.515625 -0.0674,-0.1026 -0.13354,-0.206193 -0.20117,-0.308594 -0.64478,-0.973155 -1.31145,-1.930452 -1.98242,-2.884765 -0.20515,-0.294433 -0.40601,-0.59194 -0.61328,-0.884766 -0.22186,-0.309908 -0.45705,-0.610124 -0.68165,-0.917969 l -20.7539,0 0,-17.701172 -14.39844,0 0,25.5 C 216.10194,87.107257 209.62356,89.92292 204.90039,90 c -11.8,0 -19,-9.600781 -19,-22.800781 0,-13.2 5.2,-22.798828 17.5,-22.798828 6,0 10.70039,2.098828 13.90039,5.798828 l 9,-4.09961 c -0.74661,-0.548713 -1.49792,-1.083726 -2.24805,-1.621093 -7.73638,-5.426113 -16.10634,-10.022765 -24.98437,-13.66211 -3.42708,0.728568 -7.15583,1.973522 -10.06836,3.382813 l 0,-7.035157 c -12.26736,-3.866199 -25.33458,-5.964843 -38.90039,-5.964843 z"
         style="fill:#de8051" /></g></g></g>

</svg>