<?xml version="1.0" encoding="UTF-8" standalone="no"?>
<!-- Created with Inkscape (http://www.inkscape.org/) -->

<svg
   xmlns:dc="http://purl.org/dc/elements/1.1/"
   xmlns:cc="http://creativecommons.org/ns#"
   xmlns:rdf="http://www.w3.org/1999/02/22-rdf-syntax-ns#"
   xmlns:svg="http://www.w3.org/2000/svg"
   xmlns="http://www.w3.org/2000/svg"
   xmlns:sodipodi="http://sodipodi.sourceforge.net/DTD/sodipodi-0.dtd"
   xmlns:inkscape="http://www.inkscape.org/namespaces/inkscape"
   width="207.302"
   height="100"
   viewBox="0 0 207.302 100"
   id="svg2"
   version="1.1"
   inkscape:version="0.91 r13725"
   sodipodi:docname="infi logo.svg">
  <defs
     id="defs4" />
  <sodipodi:namedview
     id="base"
     pagecolor="#ffffff"
     bordercolor="#666666"
     borderopacity="1.0"
     inkscape:pageopacity="0.0"
     inkscape:pageshadow="2"
     inkscape:zoom="1.4"
     inkscape:cx="-15.453293"
     inkscape:cy="71.68479"
     inkscape:document-units="px"
     inkscape:current-layer="layer1"
     showgrid="false"
     units="px"
     inkscape:window-width="1920"
     inkscape:window-height="1137"
     inkscape:window-x="-8"
     inkscape:window-y="-8"
     inkscape:window-maximized="1" />
  <metadata
     id="metadata7">
    <rdf:RDF>
      <cc:Work
         rdf:about="">
        <dc:format>image/svg+xml</dc:format>
        <dc:type
           rdf:resource="http://purl.org/dc/dcmitype/StillImage" />
        <dc:title></dc:title>
      </cc:Work>
    </rdf:RDF>
  </metadata>
  <g
     inkscape:label="Layer 1"
     inkscape:groupmode="layer"
     id="layer1"
     transform="translate(0,-952.36216)">
    <path
       style="fill:#fe6d00"
       d="m 196.2224,952.36216 a 11.078416,11.078416 0 0 0 -11.07724,11.07723 11.078416,11.078416 0 0 0 11.07724,11.07968 11.078416,11.078416 0 0 0 11.07968,-11.07968 11.078416,11.078416 0 0 0 -11.07968,-11.07723 z m -31.52789,0.83721 c -12.11854,-0.12672 -17.32869,0.24263 -22.78115,1.62058 -6.73267,1.78555 -16.10104,7.03916 -15.38328,15.41511 l -0.11016,39.66994 c -0.0596,21.8182 -0.0187,40.0216 0.0881,40.4533 0.10678,0.4317 0.57794,0.9707 1.04775,1.1971 1.26006,0.6073 2.18512,0.5487 5.04535,-0.3207 2.66652,-0.8105 8.49948,-3.7336 11.30979,-5.6671 l 1.60834,-1.1065 0,-21.1998 c 0,-18.7712 0.0668,-21.2665 0.58997,-21.7897 0.52155,-0.5215 2.81754,-0.5924 19.57671,-0.5924 12.36885,0 19.24,0.1357 19.71381,0.3892 0.70763,0.3787 0.72706,1.0519 0.72706,24.791 l 0,24.3993 1.0355,0.8152 c 0.87432,0.6887 1.32347,0.7756 2.91313,0.5655 1.03404,-0.1367 3.03416,-0.7325 4.44313,-1.3244 3.13057,-1.3151 9.33904,-4.7232 10.39424,-5.7063 0.76843,-0.7159 0.77141,-0.8785 0.67565,-30.5022 l -0.0955,-29.78243 -29.79225,-0.0955 -29.79224,-0.0979 -0.24726,-0.98165 c -0.42063,-1.67592 0.18308,-7.21507 0.94983,-8.71736 1.88437,-3.69208 4.72798,-4.51466 16.93777,-4.89601 l 8.06617,-0.25214 1.20198,-1.57896 c 1.96262,-2.57558 2.92108,-6.03401 2.9474,-10.6415 l 0.022,-3.94863 -11.09193,-0.11506 z m -93.352314,29.68454 c -21.179021,-0.0581 -31.746551,3.58786 -36.159511,12.2841 -0.34719,0.68418 -0.99631,2.54643 -1.44188,4.13713 -0.78365,2.79776 -0.8125,3.67406 -0.93759,26.84236 -0.12818,23.7457 -0.12438,23.9567 0.64138,24.7225 0.92372,0.9237 2.11905,0.9684 5.1041,0.1909 2.23603,-0.5824 8.76277,-3.6698 11.72106,-5.5447 l 1.57407,-0.9988 0.12973,-18.152 c 0.1157,-16.2405 0.19878,-18.3309 0.79071,-19.8435 1.28263,-3.2776 3.94652,-5.0881 8.903411,-6.054 3.69002,-0.71897 17.86362,-0.61942 21.34662,0.1494 3.24485,0.7162 6.2352,2.2516 7.30241,3.7503 1.74535,2.4511 1.80663,3.3007 1.80663,24.7567 0,14.6575 0.12145,20.4919 0.44064,21.1924 1.15794,2.5414 6.23878,1.4683 14.240064,-3.011 1.97264,-1.1044 3.89088,-2.3462 4.26442,-2.7589 0.64186,-0.7093 0.67,-1.8624 0.5043,-20.9868 -0.1949,-22.4945 -0.29328,-23.5371 -2.71729,-28.53642 -1.72396,-3.55556 -4.49463,-6.15663 -8.56068,-8.0417 -5.852544,-2.7133 -12.077874,-3.73742 -24.573104,-4.03922 -1.50758,-0.0364 -2.96755,-0.0549 -4.37949,-0.0587 z m -55.983481,1.53245 C 9.1521654,984.2516 3.7693354,985.69482 0.99381544,988.26708 l -0.993889999496,0.92044 0,30.26958 c 0,21.4452 0.121819999496,30.5387 0.418599999496,31.1901 0.23041,0.5057 0.78229996,1.0933 1.22401996,1.3072 0.44171,0.2139 1.05577,0.3976 1.36598,0.4064 2.39265,0.069 8.3446896,-2.5022 13.3465396,-5.7626 l 3.20198,-2.0857 -0.0955,-29.9954 -0.0955,-29.99303 -4.00739,-0.10771 z"
       id="path4167"
       inkscape:connector-curvature="0" />
    <path
       style="fill:#000000"
       d=""
       id="path4147"
       inkscape:connector-curvature="0" />
  </g>
</svg>
