<?xml version="1.0" encoding="utf-8"?>
<!-- Generator: Adobe Illustrator 19.1.0, SVG Export Plug-In . SVG Version: 6.00 Build 0)  -->
<!DOCTYPE svg PUBLIC "-//W3C//DTD SVG 1.1//EN" "http://www.w3.org/Graphics/SVG/1.1/DTD/svg11.dtd">
<svg version="1.1" id="_x32_" xmlns="http://www.w3.org/2000/svg" xmlns:xlink="http://www.w3.org/1999/xlink" x="0px" y="0px"
	 width="497.9px" height="512px" viewBox="249.1 -242 497.9 512" style="enable-background:new 249.1 -242 497.9 512;"
	 xml:space="preserve">
<style type="text/css">
	.st0{fill:#2196F3;}
</style>
<path class="st0" d="M391.2-138.5c16,0,29-13,29-29V-213c0-16-13-29-29-29c-16,0-29,13-29,29v45.6
	C362.2-151.4,375.2-138.5,391.2-138.5L391.2-138.5z M604.8-138.5c16,0,29-13,29-29V-213c0-16-13-29-29-29c-16,0-29,13-29,29v45.6
	C575.8-151.4,588.8-138.5,604.8-138.5L604.8-138.5z"/>
<path class="st0" d="M677.2-200.7h-17.9v33.3c0,30-24.4,54.4-54.4,54.4c-30,0-54.4-24.4-54.4-54.4v-33.3H445.6v33.3
	c0,30-24.4,54.4-54.4,54.4c-30,0-54.4-24.4-54.4-54.4v-33.3h-17.9c-38.5,0-69.8,31.2-69.8,69.8v331.2c0,38.5,31.2,69.8,69.8,69.8
	h358.3c38.5,0,69.8-31.2,69.8-69.8v-331.2C746.9-169.5,715.7-200.7,677.2-200.7z M692,188c0,17.8-14.5,32.3-32.3,32.3H336.3
	c-17.8,0-32.3-14.5-32.3-32.3V-71.1h388V188z"/>
<path class="st0" d="M432.7,129.8h51.2V181h-51.2V129.8z M432.7,50.4h51.2v51.2h-51.2V50.4z M353.4,129.8h51.2V181h-51.2V129.8z
	 M353.4,50.4h51.2v51.2h-51.2V50.4z M591.4-28.9h51.2v51.2h-51.2V-28.9z M512.1-28.9h51.2v51.2h-51.2V-28.9z M512.1,50.4h51.2v51.2
	h-51.2V50.4z M591.4,129.8h51.2V181h-51.2V129.8z M591.4,50.4h51.2v51.2h-51.2V50.4z M512.1,129.8h51.2V181h-51.2V129.8z
	 M432.7-28.9h51.2v51.2h-51.2V-28.9z M353.4-28.9h51.2v51.2h-51.2V-28.9z"/>
</svg>
