<?xml version="1.0" encoding="UTF-8" standalone="no"?>
<svg
   xmlns:dc="http://purl.org/dc/elements/1.1/"
   xmlns:cc="http://creativecommons.org/ns#"
   xmlns:rdf="http://www.w3.org/1999/02/22-rdf-syntax-ns#"
   xmlns:svg="http://www.w3.org/2000/svg"
   xmlns="http://www.w3.org/2000/svg"
   xmlns:sodipodi="http://sodipodi.sourceforge.net/DTD/sodipodi-0.dtd"
   xmlns:inkscape="http://www.inkscape.org/namespaces/inkscape"
   width="8"
   height="8"
   viewBox="0 0 8 8"
   id="svg4247"
   version="1.1"
   inkscape:version="0.91 r13725"
   sodipodi:docname="check.svg">
  <metadata
     id="metadata4255">
    <rdf:RDF>
      <cc:Work
         rdf:about="">
        <dc:format>image/svg+xml</dc:format>
        <dc:type
           rdf:resource="http://purl.org/dc/dcmitype/StillImage" />
      </cc:Work>
    </rdf:RDF>
  </metadata>
  <defs
     id="defs4253" />
  <sodipodi:namedview
     pagecolor="#ffffff"
     bordercolor="#666666"
     borderopacity="1"
     objecttolerance="10"
     gridtolerance="10"
     guidetolerance="10"
     inkscape:pageopacity="0"
     inkscape:pageshadow="2"
     inkscape:window-width="1916"
     inkscape:window-height="1196"
     id="namedview4251"
     showgrid="false"
     inkscape:zoom="90.509668"
     inkscape:cx="5.7918847"
     inkscape:cy="3.9477688"
     inkscape:window-x="1200"
     inkscape:window-y="283"
     inkscape:window-maximized="0"
     inkscape:current-layer="svg4247" />
  <path
     d="M6.41 0l-.69.72-2.78 2.78-.81-.78-.72-.72-1.41 1.41.72.72 1.5 1.5.69.72.72-.72 3.5-3.5.72-.72-1.44-1.41z"
     transform="translate(0 1)"
     id="path4249" />
  <path
     style="opacity:0.573;fill:#ff0000;fill-opacity:0"
     d="M 1.4608145,5.8542817 0.03010354,4.4065671 0.72317119,3.714118 1.4162388,3.0216689 2.1556446,3.7582921 c 0.4066732,0.4051427 0.7540692,0.7366232 0.7719911,0.7366232 0.017922,0 0.8100046,-0.7779733 1.7601836,-1.7288295 l 1.727598,-1.7288294 0.2719525,0.2625547 c 0.1495736,0.144405 0.4665343,0.4531807 0.704357,0.6861682 L 7.8241312,2.4095928 5.3748651,4.8590336 C 4.0277688,6.2062261 2.9179325,7.3070169 2.9085622,7.3052356 2.899192,7.3034539 2.2477055,6.6505247 1.4608145,5.8542817 Z"
     id="path4257"
     inkscape:connector-curvature="0" />
  <path
     style="opacity:0.57300002;fill:#ff0000;fill-opacity:0"
     d="M 2.7124872,7.133823 C 2.6038,7.0194969 1.950388,6.3603608 1.2604605,5.6690761 L 0.00604683,4.4121947 0.70744169,3.7107346 1.4088366,3.0092745 1.7900568,3.3893179 c 0.3741763,0.3730211 1.1375174,1.1114842 1.148929,1.1114842 0.00933,0 2.9545768,-2.9522242 3.2269845,-3.2346315 l 0.2479474,-0.257049 0.7098689,0.6968961 c 0.3904279,0.3832929 0.7098689,0.7003289 0.7098689,0.7045244 0,0.0042 -1.1077999,1.1154198 -2.4617777,2.4693873 L 2.9101,7.3416887 2.7124872,7.133823 Z"
     id="path4799"
     inkscape:connector-curvature="0" />
  <path
     style="opacity:0.57300002;fill:#ff0000;fill-opacity:0"
     d="M 2.7124872,7.133823 C 2.6038,7.0194969 1.950388,6.3603608 1.2604605,5.6690761 L 0.00604683,4.4121947 0.70744169,3.7107346 1.4088366,3.0092745 1.7900568,3.3893179 c 0.3741763,0.3730211 1.1375174,1.1114842 1.148929,1.1114842 0.00933,0 2.9545768,-2.9522242 3.2269845,-3.2346315 l 0.2479474,-0.257049 0.7098689,0.6968961 c 0.3904279,0.3832929 0.7098689,0.7003289 0.7098689,0.7045244 0,0.0042 -1.1077999,1.1154198 -2.4617777,2.4693873 L 2.9101,7.3416887 2.7124872,7.133823 Z"
     id="path4801"
     inkscape:connector-curvature="0" />
  <path
     style="opacity:0.57300002;fill:#ff0000;fill-opacity:0"
     d="M 2.7124872,7.133823 C 2.6038,7.0194969 1.950388,6.3603608 1.2604605,5.6690761 L 0.00604683,4.4121947 0.70744169,3.7107346 1.4088366,3.0092745 1.7900568,3.3893179 c 0.3741763,0.3730211 1.1375174,1.1114842 1.148929,1.1114842 0.00933,0 2.9545768,-2.9522242 3.2269845,-3.2346315 l 0.2479474,-0.257049 0.7098689,0.6968961 c 0.3904279,0.3832929 0.7098689,0.7003289 0.7098689,0.7045244 0,0.0042 -1.1077999,1.1154198 -2.4617777,2.4693873 L 2.9101,7.3416887 2.7124872,7.133823 Z"
     id="path4803"
     inkscape:connector-curvature="0" />
  <path
     style="opacity:1;fill:#050505;fill-opacity:1"
     d="M 2.7124872,7.133823 C 2.6038,7.0194969 1.950388,6.3603608 1.2604605,5.6690761 L 0.00604683,4.4121947 0.70744169,3.7107346 1.4088366,3.0092745 1.7900568,3.3893179 c 0.3741763,0.3730211 1.1375174,1.1114842 1.148929,1.1114842 0.00933,0 2.9545768,-2.9522242 3.2269845,-3.2346315 l 0.2479474,-0.257049 0.7098689,0.6968961 c 0.3904279,0.3832929 0.7098689,0.7003289 0.7098689,0.7045244 0,0.0042 -1.1077999,1.1154198 -2.4617777,2.4693873 L 2.9101,7.3416887 2.7124872,7.133823 Z"
     id="path4805"
     inkscape:connector-curvature="0" />
  <path
     style="opacity:1;fill:#050505;fill-opacity:1"
     d="M 2.67386,7.0951148 C 2.5438858,6.9595413 1.8904584,6.3004207 1.2217989,5.6304023 L 0.00605451,4.412187 0.70697385,3.7112025 1.4078932,3.0102179 1.822879,3.4212916 c 0.4044292,0.4006166 1.0982027,1.0712016 1.1139968,1.0767627 0.00958,0.00337 2.7880353,-2.7777339 3.1904966,-3.1935449 L 6.4139177,1.0084593 6.8503352,1.4361494 C 7.0903648,1.671379 7.4114278,1.986942 7.5638086,2.1374004 L 7.8408645,2.4109613 5.3755206,4.8762866 2.9101767,7.3416121 2.67386,7.0951148 Z"
     id="path6270"
     inkscape:connector-curvature="0" />
  <path
     style="opacity:1;fill:#050505;fill-opacity:1"
     d="M 2.6516742,7.0729504 C 2.5094238,6.9252606 1.8560083,6.266128 1.1996397,5.6082113 L 0.00624236,4.4119991 0.70670783,3.7114685 1.4071734,3.0109378 1.9162834,3.5108033 C 2.7443807,4.3238635 2.9306824,4.5002569 2.9499429,4.4894877 2.9739578,4.4760601 5.6869032,1.7565814 6.0832657,1.3486192 L 6.4139177,1.0082907 6.8171896,1.4031463 C 7.0389891,1.620317 7.3601638,1.9358061 7.5309112,2.1042334 L 7.8413611,2.4104646 5.3758362,4.875971 2.9103113,7.3414773 2.6516742,7.0729504 Z"
     id="path6272"
     inkscape:connector-curvature="0" />
  <path
     style="opacity:1;fill:#050505;fill-opacity:1"
     d="M 2.6128748,7.034194 C 2.4491896,6.8652833 1.7957826,6.2061323 1.1608593,5.5694141 L 0.00645338,4.4117445 0.70769046,3.7113032 1.4089275,3.010862 1.966879,3.5586962 C 2.6311805,4.2109521 2.9228729,4.4896266 2.9417992,4.490107 2.9577897,4.4905128 5.9036199,1.539057 6.2039954,1.2216811 6.313376,1.1061098 6.4058091,1.0110815 6.4094023,1.010507 6.4157344,1.0094945 6.806518,1.390216 7.5036402,2.07657 L 7.8420617,2.4097641 5.376273,4.8755342 2.9104844,7.3413044 2.6128748,7.034194 Z"
     id="path6274"
     inkscape:connector-curvature="0" />
  <path
     style="opacity:1;fill:#323232;fill-opacity:1"
     d="M 2.5411205,6.9622743 C 2.3377067,6.7540716 1.6842651,6.0949552 1.0890282,5.4975712 L 0.00677937,4.4114186 0.70785346,3.7105848 1.4089275,3.009751 1.9447819,3.5360814 c 0.6356094,0.6243124 0.9801836,0.9536265 0.9979914,0.9537937 0.014557,1.367e-4 2.629168,-2.6184757 3.1341638,-3.13896 0.1792627,-0.1847606 0.3288518,-0.337316 0.3324203,-0.3390119 0.00615,-0.00292 0.2734884,0.2569366 1.0780319,1.0478986 L 7.8427057,2.40912 5.3768349,4.8749723 2.9109641,7.3408247 2.5411205,6.9622743 Z"
     id="path6276"
     inkscape:connector-curvature="0" />
</svg>
