<?xml version="1.0" encoding="utf-8"?>
<!-- Generator: Adobe Illustrator 15.0.0, SVG Export Plug-In . SVG Version: 6.00 Build 0)  -->
<!DOCTYPE svg PUBLIC "-//W3C//DTD SVG 1.1//EN" "http://www.w3.org/Graphics/SVG/1.1/DTD/svg11.dtd">
<svg version="1.1" id="Ebene_1" xmlns="http://www.w3.org/2000/svg" xmlns:xlink="http://www.w3.org/1999/xlink" x="0px" y="0px"
	 width="170.079px" height="85.04px" viewBox="0 0 170.079 85.04" enable-background="new 0 0 170.079 85.04" xml:space="preserve">
<g>
	<g>
		<path d="M21.885,36.365v2.07h-8.879c-2.776,0-3.701,1.073-3.701,3.85v8.879c0,2.774,0.925,3.848,3.701,3.848h5.92
			c2.773,0,3.699-1.073,3.699-3.848V28.963h2.219v22.201c0,4.071-1.85,5.92-5.918,5.92h-5.92c-4.071,0-5.92-1.849-5.92-5.92v-8.879
			c0-4.071,1.849-5.92,5.92-5.92H21.885z"/>
		<path d="M48.152,42.285v8.879c0,4.071-1.849,5.92-5.92,5.92h-5.919c-4.069,0-5.92-1.849-5.92-5.92c0-3.33,2.221-3.848,5.92-4.773
			l8.88-2.22v2.146l-8.88,2.22c-2.221,0.555-3.699,0.778-3.699,2.627c0,2.774,0.925,3.848,3.699,3.848h5.919
			c2.776,0,3.7-1.073,3.7-3.848v-8.879c0-2.776-0.924-3.85-3.7-3.85h-5.919c-2.774,0-3.699,1.073-3.699,3.85v0.738h-2.221v-0.738
			c0-4.071,1.851-5.92,5.92-5.92h5.919C46.304,36.365,48.152,38.214,48.152,42.285z"/>
		<path d="M64.247,55.012v2.072h-5.181c-3.699,0-5.179-1.479-5.179-5.179v-19.24h2.22v19.24c0,2.404,0.555,3.106,2.959,3.106H64.247
			z M63.507,38.436h-6.658v-2.07h6.658V38.436z"/>
		<path d="M86.631,42.285v8.879c0,4.071-1.851,5.92-5.92,5.92h-5.919c-4.071,0-5.92-1.849-5.92-5.92c0-3.33,2.219-3.848,5.92-4.773
			l8.878-2.22v2.146l-8.878,2.22c-2.22,0.555-3.701,0.778-3.701,2.627c0,2.774,0.925,3.848,3.701,3.848h5.919
			c2.774,0,3.7-1.073,3.7-3.848v-8.879c0-2.776-0.926-3.85-3.7-3.85h-5.919c-2.776,0-3.701,1.073-3.701,3.85v0.738h-2.219v-0.738
			c0-4.071,1.849-5.92,5.92-5.92h5.919C84.78,36.365,86.631,38.214,86.631,42.285z"/>
	</g>
	<g>
		<g>
			<path fill="#339999" d="M106.215,47.601h14.059v2.072h-16.279v-3.072l9.954-16.168h2.624L106.215,47.23V47.601z M123.232,36.353
				v20.72h-2.22v-20.72H123.232z"/>
			<path fill="#339999" d="M130.632,54.261h-2.22v-3.108c0-4.995,1.481-5.772,5.921-7.252l7.399-2.479
				c3.328-1.109,3.697-1.924,3.697-5.068c0-2.776-0.926-3.85-3.697-3.85H138.4v-2.07h3.332c4.066,0,5.917,1.849,5.917,5.92
				c0,4.995-1.477,5.772-5.917,7.252l-7.399,2.479c-3.332,1.109-3.701,1.923-3.701,5.068V54.261z M130.632,38.573h-2.22v-2.221
				c0-4.071,1.851-5.92,5.921-5.92h3.328v2.07h-3.328c-2.775,0-3.701,1.073-3.701,3.85V38.573z M128.412,55h19.237v2.072h-19.237V55
				z"/>
		</g>
	</g>
	<g>
		<path fill="#339999" d="M127.447,77.953c-8.404,0-16.448-2.946-22.921-8.447c-7.224-6.139-11.627-14.725-12.393-24.173
			c-0.766-9.449,2.191-18.631,8.328-25.854c6.14-7.223,14.721-11.624,24.169-12.392l0.247,3.049
			c-17.822,1.448-31.141,17.126-29.695,34.95c0.702,8.634,4.721,16.479,11.323,22.089c5.914,5.026,13.267,7.719,20.946,7.72
			c0.887,0,1.781-0.036,2.675-0.108c8.635-0.701,16.477-4.724,22.087-11.323c5.609-6.602,8.313-14.993,7.611-23.627l3.049-0.247
			c0.766,9.448-2.191,18.63-8.328,25.854c-6.14,7.224-14.721,11.624-24.168,12.39C129.394,77.915,128.417,77.953,127.447,77.953z"/>
		<path fill="#A5A5A5" d="M129.069,75.341c-11.322,0-22.177-6.438-27.249-17.365c-3.373-7.267-3.714-15.414-0.964-22.938
			c2.754-7.523,8.272-13.525,15.54-16.898l1.289,2.774c-6.528,3.028-11.484,8.419-13.955,15.175
			c-2.472,6.758-2.168,14.073,0.861,20.6c6.257,13.472,22.302,19.346,35.772,13.092c13.472-6.253,19.343-22.303,13.09-35.773
			l2.775-1.289c6.962,15.003,0.423,32.873-14.58,39.836C137.579,74.445,133.291,75.341,129.069,75.341z"/>
		<path d="M126.27,74.746c-10.926,0-21.521-6.018-26.892-16.462c-3.275-6.367-4.177-13.375-2.607-20.267
			c1.498-6.579,5.125-12.626,10.48-17.489l2.059,2.266c-10.25,9.302-13.081,22.683-7.214,34.093
			c6.85,13.316,23.143,18.634,36.324,11.854c7.643-3.933,12.812-11.095,14.181-19.649l3.021,0.484
			c-0.729,4.548-2.512,8.924-5.16,12.658c-2.736,3.86-6.414,7.052-10.645,9.227C135.486,73.689,130.849,74.746,126.27,74.746z"/>
	</g>
</g>
</svg>
