<svg xmlns="http://www.w3.org/2000/svg" width="1500" height="330" viewBox="0 0 1500 330">
  <g fill="none" fill-rule="evenodd" transform="translate(48 108)">
    <g transform="translate(716)">
      <path fill="#FF6B12" d="M82.9310252,63.208566 C85.2815984,66.543001 86.899536,70.6086912 87.784838,75.4056366 L84.2589782,75.4056366 C86.1190918,102.653809 91.6994324,120.020787 101,127.50657 C100.734736,128.487577 99.672047,128.978081 97.8119335,128.978081 L97.8119335,179 L69.1549964,179 L69.1551411,178.828659 L41.1880665,178.828659 L41.1880665,128.80674 C39.327953,128.80674 38.2652642,128.316236 38,127.335228 C47.3005676,119.849446 52.8809082,102.482468 54.7410218,75.2342954 L51.215162,75.2342954 C52.100464,70.4373499 53.7184016,66.3716597 56.0689748,63.0372247 C58.4195479,59.7027897 62.9864233,57.3570482 69.769601,56 L69.7698393,56.2823346 C76.2562501,57.654558 80.6433121,59.9633018 82.9310252,63.208566 Z"/>
      <g transform="rotate(90 69.25 70.184)">
        <g transform="rotate(45 62.87 162.071)">
          <rect width="5.632" height="86.988" y=".451" fill="#FF6B12"/>
          <rect width="2.631" height="69.072" x="6" y="1" stroke="#FF6B12"/>
          <rect width="3" height="69.072" x="8.999" y="1" stroke="#FF6B12"/>
          <rect width="11" height="3" x="1" y="1" stroke="#FF6B12"/>
          <rect width="11" height="3" x="1" y="7" stroke="#FF6B12"/>
          <rect width="11" height="3" x="1" y="13" stroke="#FF6B12"/>
          <rect width="11" height="3" x="1" y="19" stroke="#FF6B12"/>
          <rect width="11" height="3" x="1" y="25" stroke="#FF6B12"/>
          <rect width="11" height="3" x="1" y="31" stroke="#FF6B12"/>
          <rect width="11" height="3" x="1" y="37" stroke="#FF6B12"/>
          <rect width="11" height="3" x="1" y="43" stroke="#FF6B12"/>
          <rect width="11" height="3" x="1" y="49" stroke="#FF6B12"/>
          <rect width="11" height="3" x="1" y="55" stroke="#FF6B12"/>
          <rect width="11" height="3" x="1" y="61" stroke="#FF6B12"/>
          <rect width="11" height="3" x="1" y="67" stroke="#FF6B12"/>
        </g>
        <g transform="rotate(-45 14.234 -2.752)">
          <rect width="5.632" height="86.988" y=".451" fill="#FF6B12"/>
          <rect width="2.631" height="69.072" x="6" y="1" stroke="#FF6B12"/>
          <rect width="3" height="69.072" x="8.999" y="1" stroke="#FF6B12"/>
          <rect width="11" height="3" x="1" y="1" stroke="#FF6B12"/>
          <rect width="11" height="3" x="1" y="7" stroke="#FF6B12"/>
          <rect width="11" height="3" x="1" y="13" stroke="#FF6B12"/>
          <rect width="11" height="3" x="1" y="19" stroke="#FF6B12"/>
          <rect width="11" height="3" x="1" y="25" stroke="#FF6B12"/>
          <rect width="11" height="3" x="1" y="31" stroke="#FF6B12"/>
          <rect width="11" height="3" x="1" y="37" stroke="#FF6B12"/>
          <rect width="11" height="3" x="1" y="43" stroke="#FF6B12"/>
          <rect width="11" height="3" x="1" y="49" stroke="#FF6B12"/>
          <rect width="11" height="3" x="1" y="55" stroke="#FF6B12"/>
          <rect width="11" height="3" x="1" y="61" stroke="#FF6B12"/>
          <rect width="11" height="3" x="1" y="67" stroke="#FF6B12"/>
        </g>
        <g transform="rotate(-135 32.563 66.329)">
          <rect width="5.632" height="86.988" y=".451" fill="#FF6B12"/>
          <rect width="2.631" height="69.072" x="6" y="1" stroke="#FF6B12"/>
          <rect width="3" height="69.072" x="8.999" y="1" stroke="#FF6B12"/>
          <rect width="11" height="3" x="1" y="1" stroke="#FF6B12"/>
          <rect width="11" height="3" x="1" y="7" stroke="#FF6B12"/>
          <rect width="11" height="3" x="1" y="13" stroke="#FF6B12"/>
          <rect width="11" height="3" x="1" y="19" stroke="#FF6B12"/>
          <rect width="11" height="3" x="1" y="25" stroke="#FF6B12"/>
          <rect width="11" height="3" x="1" y="31" stroke="#FF6B12"/>
          <rect width="11" height="3" x="1" y="37" stroke="#FF6B12"/>
          <rect width="11" height="3" x="1" y="43" stroke="#FF6B12"/>
          <rect width="11" height="3" x="1" y="49" stroke="#FF6B12"/>
          <rect width="11" height="3" x="1" y="55" stroke="#FF6B12"/>
          <rect width="11" height="3" x="1" y="61" stroke="#FF6B12"/>
          <rect width="11" height="3" x="1" y="67" stroke="#FF6B12"/>
        </g>
        <g transform="rotate(135 40.868 93.086)">
          <rect width="5.632" height="86.988" y=".451" fill="#FF6B12"/>
          <rect width="2.631" height="69.072" x="6" y="1" stroke="#FF6B12"/>
          <rect width="3" height="69.072" x="8.999" y="1" stroke="#FF6B12"/>
          <rect width="11" height="3" x="1" y="1" stroke="#FF6B12"/>
          <rect width="11" height="3" x="1" y="7" stroke="#FF6B12"/>
          <rect width="11" height="3" x="1" y="13" stroke="#FF6B12"/>
          <rect width="11" height="3" x="1" y="19" stroke="#FF6B12"/>
          <rect width="11" height="3" x="1" y="25" stroke="#FF6B12"/>
          <rect width="11" height="3" x="1" y="31" stroke="#FF6B12"/>
          <rect width="11" height="3" x="1" y="37" stroke="#FF6B12"/>
          <rect width="11" height="3" x="1" y="43" stroke="#FF6B12"/>
          <rect width="11" height="3" x="1" y="49" stroke="#FF6B12"/>
          <rect width="11" height="3" x="1" y="55" stroke="#FF6B12"/>
          <rect width="11" height="3" x="1" y="61" stroke="#FF6B12"/>
          <rect width="11" height="3" x="1" y="67" stroke="#FF6B12"/>
        </g>
      </g>
    </g>
    <path fill="#FF6B12" fill-rule="nonzero" d="M358,168.998377 L676.391755,169 L678,105.647234 L674.759931,105.647234 L668.628881,99.4158955 L668.628881,95.8830495 L655.677472,95.8830495 L655.677472,99.4095598 L649.542966,105.644289 L646.666724,105.644289 L646.666724,113.828191 C642.856416,113.828191 640.593135,109.682997 640.593135,105.724425 L640.598893,95.4136092 L640.368126,95.1464059 C640.2414,94.9996317 639.94914,94.695669 639.718546,94.4712973 C637.678317,92.4861165 634.878997,91.3639716 631.987901,91.2862653 C631.024182,91.2636952 630.050504,91.3540442 629.090989,91.5671137 C627.445908,91.9326114 625.966246,92.6111456 624.626379,93.6144424 C624.180275,93.9485883 623.056206,95.0153678 622.84703,95.3031934 L622.745926,95.4433914 L622.758592,106.167978 C622.758592,110.167973 620.218137,113.831112 616.139464,113.831112 L616.139464,123.335392 L609.708996,123.385687 L609.708996,92.1135606 C605.61495,92.1135606 604.461229,88.7107331 604.461229,85.1924832 L604.359146,78.748144 L590.244055,78.748144 L590.136502,85.1953932 C589.994748,88.3285886 589.521065,91.5932059 586.098132,92.0266028 L586.098132,78.4911889 L584.752278,78.4682179 L577.684973,68.764165 L568.629624,68.764165 L561.55541,78.4892241 L560.244447,78.4892241 L560.244447,102.574324 L557.122238,102.574324 L557.122238,95.0337724 L553.924372,95.0337724 L553.924372,91.0319673 L550.726968,91.0319673 L550.726968,87.0301565 L547.47619,87.0301565 L547.462371,83.512004 L543.414099,83.537381 L543.365158,87.0311361 L540.208115,87.0311361 L540.208115,91.0329469 L537.01025,91.0329469 L537.01025,95.0347577 L533.655287,95.0347577 L533.655287,74.2110066 L531.871521,74.2110066 L530.091677,74.2075696 L522.067857,64.4326615 L522.067857,59.0034371 L510.505081,59 L510.505081,64.4260738 L502.480783,74.2009818 L498.92106,74.2071686 L498.91703,85.6714679 L491.884545,85.6781138 L492.203124,161.066395 L465.106271,162.318545 L465.106271,92.0209374 C461.683367,91.5873973 461.209569,88.322883 461.067832,85.1897564 L460.96032,78.7425072 L441.876534,78.7425072 L441.774912,85.1862964 C441.774912,88.7045807 440.621214,92.1074082 436.527191,92.1074082 L436.527191,115.073789 L432.947846,115.073789 L432.947846,106.734618 L430.474162,106.734618 L430.474162,104.213942 L415.601088,104.213942 L415.601088,106.733627 L413.770352,106.733627 L413.770352,130.744451 C409.691794,130.744451 407.151783,127.081787 407.151783,123.081792 L407.164507,116.064866 L407.063334,115.924668 C406.854175,115.636877 405.730088,114.570098 405.283973,114.235946 C403.944153,113.232483 402.464006,112.554046 400.818874,112.188617 C399.859463,111.975588 398.886239,111.884826 397.922526,111.910662 C395.031412,111.984891 392.232029,113.107076 390.191824,115.092222 C389.961241,115.316697 389.669016,115.620591 389.542226,115.767365 L389.311471,116.035044 L389.316077,122.638239 C389.316077,126.596777 382.568573,130.741971 378.758126,130.741971 L358,168.998377 Z"/>
    <g fill="#FF6B12" transform="translate(0 3)">
      <path d="M71.639321,140.807341 L18.0031261,0.517570651 C21.0711438,0.236170001 24.5353912,0.0954664667 28.3958669,0.0954664667 C31.1483845,0.0954664667 34.2963015,0.173660411 37.7821515,0.32766805 L34.1865228,1.09631924 L86.6382071,145.786493 L90.042376,144.542488 L40.2105377,0.444392232 C45.6358236,0.725385016 51.7842028,1.17391799 58.4648499,1.78208721 L102.661479,146.924918 L106.125827,145.861495 L64.7912817,2.39000419 C71.04276,3.02122657 77.6728262,3.77815774 84.5450186,4.65514549 L117.490829,147.933824 L121.020622,147.115625 L90.7301011,5.46836142 C97.2492742,6.35057046 103.943092,7.3353355 110.701516,8.41809872 L133.629176,146.409747 L137.207216,145.840759 L116.834081,9.42489362 C122.906556,10.4461492 129.004166,11.5447451 135.04811,12.7174172 L147.946042,146.980708 L151.554897,146.663703 L141.174099,13.9356149 C146.477521,15.0164823 151.718107,16.154389 156.841398,17.3470787 L163.727299,148.315085 L167.347733,148.188148 L162.846971,18.7841315 C167.36701,19.8961399 171.774621,21.0517971 176.03012,22.249463 L178.271858,148.292976 L181.894499,148.292976 L181.894499,23.9565153 C185.664348,25.0922489 189.290222,26.2627679 192.74137,27.4668004 L192.790067,148.250897 L196.412156,148.314375 L198.476674,29.5618964 C201.535184,30.7336514 204.422511,31.9345938 207.112819,33.1636535 C208.048674,33.5911964 208.999363,34.0257731 209.96441,34.4670188 L203.716372,154.1668 L207.334049,154.357158 L215.84339,37.1551416 C219.546596,38.8477701 223.426676,40.6188307 227.460786,42.450857 L214.723471,154.839724 L218.31911,155.282991 L232.810388,44.8746094 C236.008004,46.3197223 239.2906,47.7963098 242.647832,49.296461 L225.677903,156.871863 L229.255943,157.440851 L247.855453,51.615327 C250.592173,52.8295385 253.373016,54.0561693 256.19273,55.2912042 L240.168466,156.871863 L243.746507,157.440851 L259.62412,56.7898313 C261.849196,57.7587662 264.09667,58.7318357 266.364044,59.7071294 L251.036389,156.871863 L254.614429,157.440851 L269.799505,61.179954 C271.803293,62.0360998 273.821397,62.8932159 275.852134,63.7500169 L259.537946,156.64498 L263.105551,157.276579 L279.277783,65.1899333 C281.126814,65.964183 282.985409,66.7375858 284.852325,67.5091908 L269.198322,156.64498 L272.765927,157.276579 L288.282892,68.9210972 C290.136891,69.680881 291.998269,70.438343 293.865827,71.1925663 L278.858698,156.64498 L282.426302,157.276579 L297.301806,72.5736597 C299.160894,73.3173394 301.025337,74.057282 302.893967,74.7925933 L288.519073,156.64498 L292.086678,157.276579 L306.335894,76.1398188 C308.200277,76.8656332 310.068097,77.5863172 311.938199,78.3009894 L298.179449,156.64498 L301.747054,157.276579 L315.38667,79.6109504 C317.256642,80.3169601 319.128185,81.0164338 321.00015,81.7084936 L307.839825,156.64498 L311.40743,157.276579 L324.45584,82.977348 C326.331787,83.6613725 328.207448,84.3374097 330.081669,85.004576 L317.500201,156.64498 L321.067805,157.276579 L333.545354,86.2279079 C335.427768,86.8874504 337.308006,87.5374725 339.184891,88.177076 L327.160576,156.64498 L330.728181,157.276579 L343.080607,89.4911316 C345.350074,90.2486439 347.613417,90.9899233 349.86854,91.7133682 L335.666254,156.397827 L339.222336,157.091843 L353.335473,92.8134168 C355.480585,93.4864312 357.617219,94.1424294 359.74355,94.7800163 L344.176403,156.130477 L347.71988,156.8867 L364.565685,96.1991074 C366.500134,96.7573867 368.424757,97.2992958 370.338146,97.8237591 L352.691374,155.843014 L356.221167,156.661212 L374.634881,98.9768366 C376.801732,99.5456311 378.952526,100.090576 381.085161,100.610064 L361.363046,154.860843 L363.637805,155.863399 L385.261857,101.599953 C387.076145,102.017716 388.875958,102.41584 390.659958,102.793299 C385.82977,114.930997 376.169395,136.02445 361.678831,166.073658 L71.8675579,166.073658 L71.8675579,140.805658 L71.639321,140.807341 Z M67.7433948,140.836076 L56.1694472,140.921441 L1.82983354,15.5325824 C-2.21141839,8.15218041 1.19971843,3.41817624 12.063244,1.33056992 L67.7433948,140.836076 Z"/>
      <polygon points="372.339 144.083 362.647 166.074 71.868 166.074 71.868 144"/>
    </g>
    <path fill="#FF6B12" d="M72,165 L840.237015,165 L840.237015,178.232143 L936.087745,178.232143 L936.087745,165 L1160.61641,165 C1143.57493,174.5 1143.92771,179.25 1161.67475,179.25 C1179.42179,179.25 1211.34113,179.25 1257.43275,179.25 L1257.43275,165 L1452,165 L1452,222 L72,222 L72,165 Z"/>
    <g transform="translate(806 150)">
      <path fill="#FFF" d="M126.690922,21.9794595 C126.690922,14.4542432 126.690922,10.0657476 126.690922,8.81397281 C123.804171,5.05660274 115.964717,9.61537961 108.288281,7.3638847 C101.016928,5.23120036 92.0900153,3.97476691 82.4418945,3.97476691 C73.1113633,3.97476691 64.4553413,5.14984512 57.3189151,7.1561404 C47.7671494,9.84147081 40.2737315,3.97496948 38.1928667,8.81397281 C38.1928667,10.0657476 38.1928667,14.4542432 38.1928667,21.9794595 L126.690922,21.9794595 Z"/>
      <path fill="#FF6B12" d="M60.5611849,29.1861112 C60.9598146,27.9236672 61.1760167,26.570582 61.1760167,25.1631831 C61.1760167,18.2581345 55.9717583,12.6604867 49.5519802,12.6604867 C43.1322021,12.6604867 37.9279437,18.2581345 37.9279437,25.1631831 C37.9279437,26.6811056 38.1794359,28.1358489 38.6400479,29.4818374 L0.23049173,30 C4.74349724,18.7528206 7,12.2970743 7,10.6327612 C19.5682227,11.4302639 36.421428,7.95794102 49.1210997,4.3876258 C58.6094261,1.72013038 70.1181502,0.157790193 82.5236768,0.157790193 C95.3514585,0.157790193 107.220349,1.82829727 116.888069,4.66383489 C127.094372,7.65733859 131.5,8.38932074 141.355535,7.59181799 C141.355535,9.25613111 141.355535,16.0909112 141.355535,28.0961583 L126.869375,28.2915833 C127.036622,27.4472874 127.124632,26.5714471 127.124632,25.6734973 C127.124632,18.7684487 121.920373,13.1708008 115.500595,13.1708008 C109.080817,13.1708008 103.876559,18.7684487 103.876559,25.6734973 C103.876559,26.6803834 103.987218,27.6594702 104.196168,28.5974553 L98.5694692,28.673362 C98.7828388,27.5390447 98.8948289,26.3651809 98.8948289,25.1631831 C98.8948289,15.4397474 91.5663834,7.55734525 82.5262877,7.55734525 C73.4861921,7.55734525 66.1577466,15.4397474 66.1577466,25.1631831 C66.1577466,26.5183532 66.3000974,27.8377623 66.5695932,29.105055 L60.5611849,29.1861112 Z"/>
    </g>
    <path fill="#FF6B12" d="M959.832592,58.5854587 C959.832592,56.6052645 962.369977,55 965.5,55 C968.630023,55 971.167408,56.6052645 971.167408,58.5854587 L975.199166,58.5854587 L975.199166,59.4796457 L975.199166,61.5915278 L975.199166,67.3155391 C975.537089,71.0307347 979.545884,73.1514617 981.86176,74.1497642 C981.72461,73.9965651 981.649163,73.8021708 981.648834,73.6011509 C981.648819,73.1320667 982.049513,72.7517815 982.543823,72.7517463 C982.781218,72.7517355 983.008894,72.8412221 983.17676,73.0005183 C983.344625,73.1598145 983.438928,73.3758701 983.438921,73.6011509 C983.438794,73.8283356 983.342767,74.0460034 983.172297,74.205513 L984,74.205513 L984,168 L947,168 L947,74.205513 L947.82847,74.205513 C947.657719,74.0461237 947.561409,73.8284409 947.561081,73.6011509 C947.561073,73.3758707 947.655376,73.1598157 947.823241,73.0005196 C947.991105,72.8412235 948.21878,72.7517365 948.456175,72.7517463 C948.950486,72.7517805 949.351181,73.132066 949.351166,73.6011509 C949.350787,73.7836157 949.2885,73.9611144 949.173526,74.1073658 C951.565248,72.9510435 955.522938,70.3522539 955.800834,66.633516 L955.800834,61.5915278 L955.800834,59.4796457 L955.800834,58.5854587 L959.832592,58.5854587 Z M962.555754,70.0611677 L962.555754,77.057718 L969.908067,77.057718 L969.908067,70.0611677 L962.555754,70.0611677 Z M950.83292,83.1654878 L950.83292,91.0016241 L958.491579,91.0016241 L958.491579,83.1654878 L950.83292,83.1654878 Z M962.402581,83.1654878 L962.402581,91.0016241 L970.06124,91.0016241 L970.06124,83.1654878 L962.402581,83.1654878 Z M973.972242,83.1654878 L973.972242,91.0016241 L981.630901,91.0016241 L981.630901,83.1654878 L973.972242,83.1654878 Z M950.83292,97.804676 L950.83292,109.873452 L958.491579,109.873452 L958.491579,97.804676 L950.83292,97.804676 Z M962.402581,97.804676 L962.402581,109.873452 L970.06124,109.873452 L970.06124,97.804676 L962.402581,97.804676 Z M973.972242,97.804676 L973.972242,109.873452 L981.630901,109.873452 L981.630901,97.804676 L973.972242,97.804676 Z M950.83292,115.981222 L950.83292,128.049998 L958.491579,128.049998 L958.491579,115.981222 L950.83292,115.981222 Z M962.402581,115.981222 L962.402581,128.049998 L970.06124,128.049998 L970.06124,115.981222 L962.402581,115.981222 Z M973.972242,115.981222 L973.972242,128.049998 L981.630901,128.049998 L981.630901,115.981222 L973.972242,115.981222 Z M950.83292,136.713421 L950.83292,157.389321 L958.491579,157.389321 L958.491579,136.713421 L950.83292,136.713421 Z M962.402581,136.713421 L962.402581,157.389321 L970.06124,157.389321 L970.06124,136.713421 L962.402581,136.713421 Z M973.972242,136.713421 L973.972242,157.389321 L981.630901,157.389321 L981.630901,136.713421 L973.972242,136.713421 Z"/>
    <path fill="#FF6B12" d="M997.219899 62.9220064C997.219899 60.7559421 1000.0316 59 1003.5 59 1006.9684 59 1009.7801 60.7559421 1009.7801 62.9220064L1014.24772 62.9220064 1014.24772 76.6333192C1014.49736 79.3425999 1017.74812 81.5080172 1024 83.1295712L1024 167 983 167 983 83.1295712C989.296224 81.0132398 992.546983 78.5991422 992.752275 75.8872784L992.752275 62.9220064 997.219899 62.9220064zM1003.5 77.3520983C1005.41158 77.3520983 1006.96121 75.9546267 1006.96121 74.2307582 1006.96121 72.5068896 1005.41158 71.109418 1003.5 71.109418 1001.58842 71.109418 1000.03879 72.5068896 1000.03879 74.2307582 1000.03879 75.9546267 1001.58842 77.3520983 1003.5 77.3520983zM990.879864 94.4377563C992.79144 94.4377563 994.341078 93.0402847 994.341078 91.3164162 994.341078 89.5925476 992.79144 88.195076 990.879864 88.195076 988.968288 88.195076 987.41865 89.5925476 987.41865 91.3164162 987.41865 93.0402847 988.968288 94.4377563 990.879864 94.4377563zM1016.12014 94.4377563C1018.03171 94.4377563 1019.58135 93.0402847 1019.58135 91.3164162 1019.58135 89.5925476 1018.03171 88.195076 1016.12014 88.195076 1014.20856 88.195076 1012.65892 89.5925476 1012.65892 91.3164162 1012.65892 93.0402847 1014.20856 94.4377563 1016.12014 94.4377563zM1008.55616 98.0793199L1008.47949 87.930855C1008.47949 85.5657715 1006.68225 84.5535125 1004.46523 84.5535125L1002.4581 84.5535125C1000.24109 84.5535125 998.443841 85.5657715 998.443841 87.930855L998.520508 98.0793199 1008.55616 98.0793199zM1008.55616 113.686021L1008.47949 103.537556C1008.47949 101.172472 1006.68225 100.160213 1004.46523 100.160213L1002.4581 100.160213C1000.24109 100.160213 998.443841 101.172472 998.443841 103.537556L998.520508 113.686021 1008.55616 113.686021zM994.341078 109.41936L994.288595 102.472187C994.288595 100.853159 993.058284 100.160213 991.540617 100.160213L990.166628 100.160213C988.648962 100.160213 987.41865 100.853159 987.41865 102.472187L987.471132 109.41936 994.341078 109.41936zM1019.58135 109.41936L1019.52887 102.472187C1019.52887 100.853159 1018.29856 100.160213 1016.78089 100.160213L1015.4069 100.160213C1013.88923 100.160213 1012.65892 100.853159 1012.65892 102.472187L1012.7114 109.41936 1019.58135 109.41936zM994.341078 125.02606L994.288595 118.078888C994.288595 116.45986 993.058284 115.766914 991.540617 115.766914L990.166628 115.766914C988.648962 115.766914 987.41865 116.45986 987.41865 118.078888L987.471132 125.02606 994.341078 125.02606zM1019.58135 125.02606L1019.52887 118.078888C1019.52887 116.45986 1018.29856 115.766914 1016.78089 115.766914L1015.4069 115.766914C1013.88923 115.766914 1012.65892 116.45986 1012.65892 118.078888L1012.7114 125.02606 1019.58135 125.02606zM994.341078 140.632761L994.288595 133.685589C994.288595 132.066561 993.058284 131.373615 991.540617 131.373615L990.166628 131.373615C988.648962 131.373615 987.41865 132.066561 987.41865 133.685589L987.471132 140.632761 994.341078 140.632761zM1019.58135 140.632761L1019.52887 133.685589C1019.52887 132.066561 1018.29856 131.373615 1016.78089 131.373615L1015.4069 131.373615C1013.88923 131.373615 1012.65892 132.066561 1012.65892 133.685589L1012.7114 140.632761 1019.58135 140.632761zM994.341078 156.239462L994.288595 149.292289C994.288595 147.673262 993.058284 146.980316 991.540617 146.980316L990.166628 146.980316C988.648962 146.980316 987.41865 147.673262 987.41865 149.292289L987.471132 156.239462 994.341078 156.239462zM1019.58135 156.239462L1019.52887 149.292289C1019.52887 147.673262 1018.29856 146.980316 1016.78089 146.980316L1015.4069 146.980316C1013.88923 146.980316 1012.65892 147.673262 1012.65892 149.292289L1012.7114 156.239462 1019.58135 156.239462zM1008.55616 129.292722L1008.47949 119.144257C1008.47949 116.779173 1006.68225 115.766914 1004.46523 115.766914L1002.4581 115.766914C1000.24109 115.766914 998.443841 116.779173 998.443841 119.144257L998.520508 129.292722 1008.55616 129.292722zM1008.55616 144.899422L1008.47949 134.750958C1008.47949 132.385874 1006.68225 131.373615 1004.46523 131.373615L1002.4581 131.373615C1000.24109 131.373615 998.443841 132.385874 998.443841 134.750958L998.520508 144.899422 1008.55616 144.899422zM1008.55616 160.506123L1008.47949 150.357658C1008.47949 147.992575 1006.68225 146.980316 1004.46523 146.980316L1002.4581 146.980316C1000.24109 146.980316 998.443841 147.992575 998.443841 150.357658L998.520508 160.506123 1008.55616 160.506123zM689.219899 80.9220064C689.219899 78.7559421 692.031596 77 695.5 77 698.968404 77 701.780101 78.7559421 701.780101 80.9220064L706.247725 80.9220064 706.247725 94.6333192C706.497361 97.3425999 709.74812 99.5080172 716 101.129571L716 185 675 185 675 101.129571C681.296224 99.0132398 684.546983 96.5991422 684.752275 93.8872784L684.752275 80.9220064 689.219899 80.9220064zM695.5 95.3520983C697.411576 95.3520983 698.961214 93.9546267 698.961214 92.2307582 698.961214 90.5068896 697.411576 89.109418 695.5 89.109418 693.588424 89.109418 692.038786 90.5068896 692.038786 92.2307582 692.038786 93.9546267 693.588424 95.3520983 695.5 95.3520983zM682.879864 112.437756C684.79144 112.437756 686.341078 111.040285 686.341078 109.316416 686.341078 107.592548 684.79144 106.195076 682.879864 106.195076 680.968288 106.195076 679.41865 107.592548 679.41865 109.316416 679.41865 111.040285 680.968288 112.437756 682.879864 112.437756zM708.120136 112.437756C710.031712 112.437756 711.58135 111.040285 711.58135 109.316416 711.58135 107.592548 710.031712 106.195076 708.120136 106.195076 706.20856 106.195076 704.658922 107.592548 704.658922 109.316416 704.658922 111.040285 706.20856 112.437756 708.120136 112.437756zM700.556159 116.07932L700.479492 105.930855C700.479492 103.565771 698.682247 102.553512 696.465232 102.553512L694.458102 102.553512C692.241087 102.553512 690.443841 103.565771 690.443841 105.930855L690.520508 116.07932 700.556159 116.07932zM700.556159 131.686021L700.479492 121.537556C700.479492 119.172472 698.682247 118.160213 696.465232 118.160213L694.458102 118.160213C692.241087 118.160213 690.443841 119.172472 690.443841 121.537556L690.520508 131.686021 700.556159 131.686021zM686.341078 127.41936L686.288595 120.472187C686.288595 118.853159 685.058284 118.160213 683.540617 118.160213L682.166628 118.160213C680.648962 118.160213 679.41865 118.853159 679.41865 120.472187L679.471132 127.41936 686.341078 127.41936zM711.58135 127.41936L711.528868 120.472187C711.528868 118.853159 710.298556 118.160213 708.780889 118.160213L707.4069 118.160213C705.889234 118.160213 704.658922 118.853159 704.658922 120.472187L704.711405 127.41936 711.58135 127.41936zM686.341078 143.02606L686.288595 136.078888C686.288595 134.45986 685.058284 133.766914 683.540617 133.766914L682.166628 133.766914C680.648962 133.766914 679.41865 134.45986 679.41865 136.078888L679.471132 143.02606 686.341078 143.02606zM711.58135 143.02606L711.528868 136.078888C711.528868 134.45986 710.298556 133.766914 708.780889 133.766914L707.4069 133.766914C705.889234 133.766914 704.658922 134.45986 704.658922 136.078888L704.711405 143.02606 711.58135 143.02606zM686.341078 158.632761L686.288595 151.685589C686.288595 150.066561 685.058284 149.373615 683.540617 149.373615L682.166628 149.373615C680.648962 149.373615 679.41865 150.066561 679.41865 151.685589L679.471132 158.632761 686.341078 158.632761zM711.58135 158.632761L711.528868 151.685589C711.528868 150.066561 710.298556 149.373615 708.780889 149.373615L707.4069 149.373615C705.889234 149.373615 704.658922 150.066561 704.658922 151.685589L704.711405 158.632761 711.58135 158.632761zM686.341078 174.239462L686.288595 167.292289C686.288595 165.673262 685.058284 164.980316 683.540617 164.980316L682.166628 164.980316C680.648962 164.980316 679.41865 165.673262 679.41865 167.292289L679.471132 174.239462 686.341078 174.239462zM711.58135 174.239462L711.528868 167.292289C711.528868 165.673262 710.298556 164.980316 708.780889 164.980316L707.4069 164.980316C705.889234 164.980316 704.658922 165.673262 704.658922 167.292289L704.711405 174.239462 711.58135 174.239462zM700.556159 147.292722L700.479492 137.144257C700.479492 134.779173 698.682247 133.766914 696.465232 133.766914L694.458102 133.766914C692.241087 133.766914 690.443841 134.779173 690.443841 137.144257L690.520508 147.292722 700.556159 147.292722zM700.556159 162.899422L700.479492 152.750958C700.479492 150.385874 698.682247 149.373615 696.465232 149.373615L694.458102 149.373615C692.241087 149.373615 690.443841 150.385874 690.443841 152.750958L690.520508 162.899422 700.556159 162.899422zM700.556159 178.506123L700.479492 168.357658C700.479492 165.992575 698.682247 164.980316 696.465232 164.980316L694.458102 164.980316C692.241087 164.980316 690.443841 165.992575 690.443841 168.357658L690.520508 178.506123 700.556159 178.506123zM478.115293 56L491.176052 68.4171123 494 68.4171123 494 76.7914439 492.235033 76.7914439 492.769415 164 463.461171 164 462.764967 76.7914439 461 76.7914439 461 68.4171123 463.823948 68.4171123 478.115293 56zM465.618906 80.8065884L465.618906 85.7156793 469.854828 85.7156793 469.854828 80.8065884 465.618906 80.8065884zM470.776955 80.8065884L470.776955 85.7156793 475.012877 85.7156793 475.012877 80.8065884 470.776955 80.8065884zM465.618906 86.3851521L465.618906 91.294243 469.854828 91.294243 469.854828 86.3851521 465.618906 86.3851521zM470.776955 86.3851521L470.776955 91.294243 475.012877 91.294243 475.012877 86.3851521 470.776955 86.3851521zM479.85654 80.8065884L479.85654 85.7156793 484.092462 85.7156793 484.092462 80.8065884 479.85654 80.8065884zM485.014589 80.8065884L485.014589 85.7156793 489.250511 85.7156793 489.250511 80.8065884 485.014589 80.8065884zM479.85654 86.3851521L479.85654 91.294243 484.092462 91.294243 484.092462 86.3851521 479.85654 86.3851521zM485.014589 86.3851521L485.014589 91.294243 489.250511 91.294243 489.250511 86.3851521 485.014589 86.3851521zM465.618906 97.5369214L465.618906 103.370674 469.854828 103.370674 469.854828 97.5369214 465.618906 97.5369214zM470.776955 97.5369214L470.776955 103.370674 475.012877 103.370674 475.012877 97.5369214 470.776955 97.5369214zM465.618906 104.166247L465.618906 110 469.854828 110 469.854828 104.166247 465.618906 104.166247zM470.776955 104.166247L470.776955 110 475.012877 110 475.012877 104.166247 470.776955 104.166247zM479.85654 97.5369214L479.85654 103.370674 484.092462 103.370674 484.092462 97.5369214 479.85654 97.5369214zM485.014589 97.5369214L485.014589 103.370674 489.250511 103.370674 489.250511 97.5369214 485.014589 97.5369214zM479.85654 104.166247L479.85654 110 484.092462 110 484.092462 104.166247 479.85654 104.166247zM485.014589 104.166247L485.014589 110 489.250511 110 489.250511 104.166247 485.014589 104.166247zM465.618906 115.745509L465.618906 121.579262 469.854828 121.579262 469.854828 115.745509 465.618906 115.745509zM470.776955 115.745509L470.776955 121.579262 475.012877 121.579262 475.012877 115.745509 470.776955 115.745509zM465.618906 122.630024L465.618906 131.096288 469.854828 131.096288 469.854828 122.630024 465.618906 122.630024zM470.776955 122.630024L470.776955 131.096288 475.012877 131.096288 475.012877 122.630024 470.776955 122.630024zM479.85654 115.745509L479.85654 121.579262 484.092462 121.579262 484.092462 115.745509 479.85654 115.745509zM485.014589 115.745509L485.014589 121.579262 489.250511 121.579262 489.250511 115.745509 485.014589 115.745509zM479.85654 122.702216L479.85654 131.096288 484.092462 131.096288 484.092462 122.702216 479.85654 122.702216zM485.014589 122.702216L485.014589 131.096288 489.250511 131.096288 489.250511 122.702216 485.014589 122.702216zM465.618906 136.841797L465.618906 142.67555 469.854828 142.67555 469.854828 136.841797 465.618906 136.841797zM470.776955 136.841797L470.776955 142.67555 475.012877 142.67555 475.012877 136.841797 470.776955 136.841797zM465.618906 143.726312L465.618906 152.192576 469.854828 152.192576 469.854828 143.726312 465.618906 143.726312zM470.776955 143.726312L470.776955 152.192576 475.012877 152.192576 475.012877 143.726312 470.776955 143.726312zM479.85654 136.841797L479.85654 142.67555 484.092462 142.67555 484.092462 136.841797 479.85654 136.841797zM485.014589 136.841797L485.014589 142.67555 489.250511 142.67555 489.250511 136.841797 485.014589 136.841797zM479.85654 143.798504L479.85654 152.192576 484.092462 152.192576 484.092462 143.798504 479.85654 143.798504zM485.014589 143.798504L485.014589 152.192576 489.250511 152.192576 489.250511 143.798504 485.014589 143.798504z"/>
    <path fill="#FF6B12" fill-rule="nonzero" d="M1022,183 L1163,183 L1162.46085,142.203095 L1162.46085,100.884686 C1157.98727,100.884686 1155.48445,97.2504402 1155.48445,93.492922 L1155.3729,86.6103178 L1139.9493,86.6103178 L1139.83177,93.49603 C1139.67688,96.8423069 1139.15928,100.328944 1135.41903,100.791815 L1135.41903,86.3358878 L1133.94841,86.3113545 L1126.22594,75.9473508 L1119.0458,75.9473508 L1111.31578,86.3337893 L1109.88329,86.3337893 L1109.88329,112.056863 L1106.47164,112.056863 L1106.47164,104.003495 L1102.97732,104.003495 L1102.97732,99.7295364 L1099.4835,99.7295364 L1099.4835,95.4555714 L1095.93137,95.4555714 L1095.91627,91.6981572 L1091.49271,91.7252601 L1091.43923,95.4566176 L1087.98952,95.4566176 L1087.98952,99.7305826 L1084.4952,99.7305826 L1084.4952,104.004548 L1080.82922,104.004548 L1080.82922,67.2454731 L1078.88009,67.2454731 L1076.93525,67.2418022 L1068.1676,56.8021247 L1068.1676,51.0036708 L1060.96224,51 L1060.96224,56.7950889 L1052.19406,67.2347665 L1048.30434,67.241374 L1048.29994,67.2450448 L1048.29994,84.7650243 L1044.63339,84.7650243 L1044.63339,80.4910594 L1041.1391,80.4910594 L1041.1391,76.2173514 L1037.68935,76.2173514 L1037.63625,72.4860305 L1033.21271,72.4592948 L1033.19881,76.2167457 L1029.64605,76.2167457 L1029.64605,80.4907106 L1026.15229,80.4907106 L1026.15229,84.7646695 L1022.65797,84.7646695 L1022.65797,127.00964 L1022,183 Z"/>
    <path fill="#FF6B12" d="M1339.87728,102.425733 L1339.87728,66.3074352 L1342.63418,66.3074352 L1342.63418,62.0076379 L1346.05555,62.0076379 L1346.05555,53.211109 L1348.34427,53.211109 L1350.25053,45.9143023 C1348.567,44.7305031 1347.46595,42.7668031 1347.46595,40.5445526 C1347.46595,37.4797111 1349.56023,34.9066548 1352.38849,34.1930325 L1353.03717,21 L1354.92077,21 L1355.56945,34.1930325 C1358.39771,34.9066548 1360.49199,37.4797111 1360.49199,40.5445526 C1360.49199,42.4297576 1359.6996,44.1288925 1358.43142,45.3236649 L1360.49199,53.211109 L1363.16243,53.211109 L1363.16243,62.0076379 L1366.58381,62.0076379 L1366.58381,66.3074352 L1368.95897,66.3074352 L1368.95897,84.3665842 L1394.11717,84.3665842 L1394.11717,73.1871111 L1397.53855,73.1871111 L1397.53855,84.3665842 L1422.91831,84.3665842 L1422.91831,66.3074352 L1425.67521,66.3074352 L1425.67521,62.0076379 L1429.09658,62.0076379 L1429.09658,53.211109 L1431.38529,53.211109 L1433.29156,45.9143023 C1431.60802,44.7305031 1430.50698,42.7668031 1430.50698,40.5445526 C1430.50698,37.4797111 1432.60126,34.9066548 1435.42952,34.1930325 L1436.0782,21 L1437.96179,21 L1438.61048,34.1930325 C1441.43873,34.9066548 1443.53301,37.4797111 1443.53301,40.5445526 C1443.53301,42.4297576 1442.74063,44.1288925 1441.47244,45.3236649 L1443.53301,53.211109 L1446.20346,53.211109 L1446.20346,62.0076379 L1449.62483,62.0076379 L1449.62483,66.3074352 L1452,66.3074352 L1452,167.782653 L1374.18211,167.782653 L1303.18857,167.782653 L1257,167.782653 L1257,102.425733 L1274.10688,73.1871111 L1286.08169,73.1871111 L1303.18857,102.425733 L1339.87728,102.425733 Z"/>
    <path fill="#FF6B12" fill-rule="nonzero" d="M1281.85721,162.523458 L1235.71323,162.523458 L1235.71323,188.170414 L1281.31481,188.170414 L1280.68396,218 L1147,217.999096 L1147.77983,156.552392 L1179.8596,156.552392 L1189.39784,141.47688 L1189.39784,136.026286 L1173.37414,139.916603 L1172.65642,136.949629 L1209.51674,128 L1210.23441,130.966939 L1203.91899,132.500187 L1208.09818,153.954577 L1210.64805,153.607097 L1211.05869,156.632135 L1193.88209,158.971565 L1193.88209,162.485341 L1193.88209,182.280671 L1231.22921,182.280671 L1231.22921,162.485341 L1231.22921,158.971565 L1214.05209,156.632135 L1214.46325,153.607097 L1217.01311,153.954577 L1221.19184,132.500187 L1214.87683,130.966939 L1215.59398,128 L1252.45476,136.949629 L1251.7371,139.916603 L1235.7134,136.026286 L1235.7134,141.47688 L1245.25118,156.552392 L1282,155.771865 L1281.85721,162.523458 Z M1202.86614,132.78005 L1194.50575,134.809834 L1194.93845,135.083995 L1193.88192,136.753082 L1193.88192,155.914811 L1207.02419,154.1247 L1202.86614,132.78005 Z M1222.24435,132.78005 L1218.08624,154.1247 L1231.22851,155.914811 L1231.22851,136.753082 L1230.17244,135.083995 L1230.60417,134.809834 L1222.24435,132.78005 Z M1189.39715,143.84903 L1181.33985,156.584085 L1189.02337,156.584085 L1189.39715,156.533466 L1189.39715,143.84903 Z M1235.71276,143.84903 L1235.71276,156.533489 L1236.08654,156.584108 L1243.77,156.584108 L1235.71276,143.84903 Z M1147.7815,162.523458 L1147.7815,188.172244 L1189.39715,188.172244 L1189.39715,162.523458 L1147.7815,162.523458 Z"/>
  </g>
</svg>
