<svg xmlns="http://www.w3.org/2000/svg" width="700" height="410" viewBox="0 0 700 410">
  <g fill="none" fill-rule="evenodd">
    <path fill="#4A4A4A" d="M358.23,155.14 L368.805,155.14 C370.78501,155.14 372.77249,155.469997 374.7675,156.13 C376.76251,156.790003 378.562492,157.787493 380.1675,159.1225 C381.772508,160.457507 383.069995,162.12249 384.06,164.1175 C385.050005,166.11251 385.545,168.429987 385.545,171.07 C385.545,173.740013 385.050005,176.06499 384.06,178.045 C383.069995,180.02501 381.772508,181.682493 380.1675,183.0175 C378.562492,184.352507 376.76251,185.349997 374.7675,186.01 C372.77249,186.670003 370.78501,187 368.805,187 L358.23,187 L358.23,155.14 Z M361.47,184.12 L367.905,184.12 C370.305012,184.12 372.397491,183.745004 374.1825,182.995 C375.967509,182.244996 377.444994,181.262506 378.615,180.0475 C379.785006,178.832494 380.662497,177.445008 381.2475,175.885 C381.832503,174.324992 382.125,172.720008 382.125,171.07 C382.125,169.419992 381.832503,167.815008 381.2475,166.255 C380.662497,164.694992 379.785006,163.307506 378.615,162.0925 C377.444994,160.877494 375.967509,159.895004 374.1825,159.145 C372.397491,158.394996 370.305012,158.02 367.905,158.02 L361.47,158.02 L361.47,184.12 Z M406.68,187.81 C404.279988,187.81 402.315008,187.397504 400.785,186.5725 C399.254992,185.747496 398.040005,184.705006 397.14,183.445 C396.239996,182.184994 395.617502,180.812507 395.2725,179.3275 C394.927498,177.842493 394.755,176.440007 394.755,175.12 L394.755,155.14 L397.995,155.14 L397.995,174.76 C397.995,176.050006 398.144998,177.302494 398.445,178.5175 C398.745002,179.732506 399.232497,180.812495 399.9075,181.7575 C400.582503,182.702505 401.474994,183.467497 402.585,184.0525 C403.695006,184.637503 405.059992,184.93 406.68,184.93 C408.300008,184.93 409.664994,184.637503 410.775,184.0525 C411.885006,183.467497 412.777497,182.702505 413.4525,181.7575 C414.127503,180.812495 414.614999,179.732506 414.915,178.5175 C415.215001,177.302494 415.365,176.050006 415.365,174.76 L415.365,155.14 L418.605,155.14 L418.605,175.12 C418.605,176.440007 418.432502,177.842493 418.0875,179.3275 C417.742498,180.812507 417.120004,182.184994 416.22,183.445 C415.319996,184.705006 414.097508,185.747496 412.5525,186.5725 C411.007492,187.397504 409.050012,187.81 406.68,187.81 Z M439.74,187 L436.5,187 L436.5,158.02 L425.835,158.02 L425.835,155.14 L450.405,155.14 L450.405,158.02 L439.74,158.02 L439.74,187 Z M482.885,181.87 C482.344997,182.680004 481.692504,183.444996 480.9275,184.165 C480.162496,184.885004 479.277505,185.514997 478.2725,186.055 C477.267495,186.595003 476.157506,187.022498 474.9425,187.3375 C473.727494,187.652502 472.400007,187.81 470.96,187.81 C468.559988,187.81 466.34001,187.390004 464.3,186.55 C462.25999,185.709996 460.505007,184.547507 459.035,183.0625 C457.564993,181.577493 456.417504,179.81501 455.5925,177.775 C454.767496,175.73499 454.355,173.500012 454.355,171.07 C454.355,168.639988 454.774996,166.40501 455.615,164.365 C456.455004,162.32499 457.617493,160.562507 459.1025,159.0775 C460.587507,157.592493 462.34249,156.430004 464.3675,155.59 C466.39251,154.749996 468.589988,154.33 470.96,154.33 C472.130006,154.33 473.277494,154.449999 474.4025,154.69 C475.527506,154.930001 476.584995,155.267498 477.575,155.7025 C478.565005,156.137502 479.464996,156.662497 480.275,157.2775 C481.085004,157.892503 481.759997,158.589996 482.3,159.37 L479.6,161.35 C479.269998,160.839997 478.827503,160.330003 478.2725,159.82 C477.717497,159.309997 477.065004,158.860002 476.315,158.47 C475.564996,158.079998 474.747504,157.765001 473.8625,157.525 C472.977496,157.284999 472.025005,157.165 471.005,157.165 C468.93499,157.165 467.082508,157.539996 465.4475,158.29 C463.812492,159.040004 462.425006,160.052494 461.285,161.3275 C460.144994,162.602506 459.275003,164.079992 458.675,165.76 C458.074997,167.440008 457.775,169.209991 457.775,171.07 C457.775,172.930009 458.082497,174.699992 458.6975,176.38 C459.312503,178.060008 460.189994,179.537494 461.33,180.8125 C462.470006,182.087506 463.857492,183.099996 465.4925,183.85 C467.127508,184.600004 468.96499,184.975 471.005,184.975 C472.835009,184.975 474.574992,184.600004 476.225,183.85 C477.875008,183.099996 479.254994,181.900008 480.365,180.25 L482.885,181.87 Z M490.705,155.14 L493.945,155.14 L493.945,168.955 L511.315,168.955 L511.315,155.14 L514.555,155.14 L514.555,187 L511.315,187 L511.315,171.925 L493.945,171.925 L493.945,187 L490.705,187 L490.705,155.14 Z M385.05,237.87 C384.509997,238.680004 383.857504,239.444996 383.0925,240.165 C382.327496,240.885004 381.442505,241.514997 380.4375,242.055 C379.432495,242.595003 378.322506,243.022498 377.1075,243.3375 C375.892494,243.652502 374.565007,243.81 373.125,243.81 C370.724988,243.81 368.50501,243.390004 366.465,242.55 C364.42499,241.709996 362.670007,240.547507 361.2,239.0625 C359.729993,237.577493 358.582504,235.81501 357.7575,233.775 C356.932496,231.73499 356.52,229.500012 356.52,227.07 C356.52,224.639988 356.939996,222.40501 357.78,220.365 C358.620004,218.32499 359.782493,216.562507 361.2675,215.0775 C362.752507,213.592493 364.50749,212.430004 366.5325,211.59 C368.55751,210.749996 370.754988,210.33 373.125,210.33 C374.295006,210.33 375.442494,210.449999 376.5675,210.69 C377.692506,210.930001 378.749995,211.267498 379.74,211.7025 C380.730005,212.137502 381.629996,212.662497 382.44,213.2775 C383.250004,213.892503 383.924997,214.589996 384.465,215.37 L381.765,217.35 C381.434998,216.839997 380.992503,216.330003 380.4375,215.82 C379.882497,215.309997 379.230004,214.860002 378.48,214.47 C377.729996,214.079998 376.912504,213.765001 376.0275,213.525 C375.142496,213.284999 374.190005,213.165 373.17,213.165 C371.09999,213.165 369.247508,213.539996 367.6125,214.29 C365.977492,215.040004 364.590006,216.052494 363.45,217.3275 C362.309994,218.602506 361.440003,220.079992 360.84,221.76 C360.239997,223.440008 359.94,225.209991 359.94,227.07 C359.94,228.930009 360.247497,230.699992 360.8625,232.38 C361.477503,234.060008 362.354994,235.537494 363.495,236.8125 C364.635006,238.087506 366.022492,239.099996 367.6575,239.85 C369.292508,240.600004 371.12999,240.975 373.17,240.975 C375.000009,240.975 376.739992,240.600004 378.39,239.85 C380.040008,239.099996 381.419994,237.900008 382.53,236.25 L385.05,237.87 Z M399.03,240.12 L413.88,240.12 L413.88,243 L395.79,243 L395.79,211.14 L399.03,211.14 L399.03,240.12 Z M454.05,227.07 C454.05,229.500012 453.630004,231.73499 452.79,233.775 C451.949996,235.81501 450.787507,237.577493 449.3025,239.0625 C447.817493,240.547507 446.06251,241.709996 444.0375,242.55 C442.01249,243.390004 439.815012,243.81 437.445,243.81 C435.074988,243.81 432.87751,243.390004 430.8525,242.55 C428.82749,241.709996 427.072507,240.547507 425.5875,239.0625 C424.102493,237.577493 422.940004,235.81501 422.1,233.775 C421.259996,231.73499 420.84,229.500012 420.84,227.07 C420.84,224.639988 421.259996,222.40501 422.1,220.365 C422.940004,218.32499 424.102493,216.562507 425.5875,215.0775 C427.072507,213.592493 428.82749,212.430004 430.8525,211.59 C432.87751,210.749996 435.074988,210.33 437.445,210.33 C439.815012,210.33 442.01249,210.749996 444.0375,211.59 C446.06251,212.430004 447.817493,213.592493 449.3025,215.0775 C450.787507,216.562507 451.949996,218.32499 452.79,220.365 C453.630004,222.40501 454.05,224.639988 454.05,227.07 Z M450.63,227.07 C450.63,225.209991 450.330003,223.440008 449.73,221.76 C449.129997,220.079992 448.260006,218.602506 447.12,217.3275 C445.979994,216.052494 444.592508,215.040004 442.9575,214.29 C441.322492,213.539996 439.48501,213.165 437.445,213.165 C435.40499,213.165 433.567508,213.539996 431.9325,214.29 C430.297492,215.040004 428.910006,216.052494 427.77,217.3275 C426.629994,218.602506 425.760003,220.079992 425.16,221.76 C424.559997,223.440008 424.26,225.209991 424.26,227.07 C424.26,228.930009 424.559997,230.699992 425.16,232.38 C425.760003,234.060008 426.629994,235.529994 427.77,236.79 C428.910006,238.050006 430.297492,239.054996 431.9325,239.805 C433.567508,240.555004 435.40499,240.93 437.445,240.93 C439.48501,240.93 441.322492,240.555004 442.9575,239.805 C444.592508,239.054996 445.979994,238.050006 447.12,236.79 C448.260006,235.529994 449.129997,234.060008 449.73,232.38 C450.330003,230.699992 450.63,228.930009 450.63,227.07 Z M463.55,236.52 C463.790001,237.780006 464.352496,238.837496 465.2375,239.6925 C466.122504,240.547504 467.284993,240.975 468.725,240.975 C469.835006,240.975 470.749996,240.772502 471.47,240.3675 C472.190004,239.962498 472.767498,239.415003 473.2025,238.725 C473.637502,238.034997 473.937499,237.247504 474.1025,236.3625 C474.267501,235.477496 474.35,234.555005 474.35,233.595 L474.35,211.14 L477.59,211.14 L477.59,233.82 C477.59,234.870005 477.477501,235.979994 477.2525,237.15 C477.027499,238.320006 476.600003,239.399995 475.97,240.39 C475.339997,241.380005 474.470006,242.197497 473.36,242.8425 C472.249994,243.487503 470.825009,243.81 469.085,243.81 C466.774988,243.81 464.870007,243.202506 463.37,241.9875 C461.869992,240.772494 460.925002,239.220009 460.535,237.33 L463.55,236.52 Z M503.385,243.81 C500.984988,243.81 499.020008,243.397504 497.49,242.5725 C495.959992,241.747496 494.745004,240.705006 493.845,239.445 C492.944996,238.184994 492.322502,236.812507 491.9775,235.3275 C491.632498,233.842493 491.46,232.440007 491.46,231.12 L491.46,211.14 L494.7,211.14 L494.7,230.76 C494.7,232.050006 494.849998,233.302494 495.15,234.5175 C495.450001,235.732506 495.937497,236.812495 496.6125,237.7575 C497.287503,238.702505 498.179994,239.467497 499.29,240.0525 C500.400006,240.637503 501.764992,240.93 503.385,240.93 C505.005008,240.93 506.369994,240.637503 507.48,240.0525 C508.590006,239.467497 509.482497,238.702505 510.1575,237.7575 C510.832503,236.812495 511.319998,235.732506 511.62,234.5175 C511.920002,233.302494 512.07,232.050006 512.07,230.76 L512.07,211.14 L515.31,211.14 L515.31,231.12 C515.31,232.440007 515.137502,233.842493 514.7925,235.3275 C514.447498,236.812507 513.825004,238.184994 512.925,239.445 C512.024995,240.705006 510.802508,241.747496 509.2575,242.5725 C507.712492,243.397504 505.755012,243.81 503.385,243.81 Z M532.09,243 L528.85,243 L528.85,211.14 L538.21,211.14 C539.770008,211.14 541.217493,211.289998 542.5525,211.59 C543.887507,211.890002 545.042495,212.377497 546.0175,213.0525 C546.992505,213.727503 547.749997,214.604995 548.29,215.685 C548.830003,216.765005 549.1,218.084992 549.1,219.645 C549.1,220.815006 548.890002,221.879995 548.47,222.84 C548.049998,223.800005 547.480004,224.632496 546.76,225.3375 C546.039996,226.042504 545.185005,226.604998 544.195,227.025 C543.204995,227.445002 542.125006,227.714999 540.955,227.835 L550.27,243 L546.31,243 L537.49,228.105 L532.09,228.105 L532.09,243 Z M532.09,225.315 L537.715,225.315 C540.325013,225.315 542.334993,224.842505 543.745,223.8975 C545.155007,222.952495 545.86,221.535009 545.86,219.645 C545.86,218.594995 545.665002,217.710004 545.275,216.99 C544.884998,216.269996 544.345003,215.685002 543.655,215.235 C542.964997,214.784998 542.125005,214.455001 541.135,214.245 C540.144995,214.034999 539.050006,213.93 537.85,213.93 L532.09,213.93 L532.09,225.315 Z M564.305,240.12 L581.36,240.12 L581.36,243 L561.065,243 L561.065,211.14 L580.82,211.14 L580.82,214.02 L564.305,214.02 L564.305,225 L579.74,225 L579.74,227.835 L564.305,227.835 L564.305,240.12 Z M358.23,267.14 L368.805,267.14 C370.78501,267.14 372.77249,267.469997 374.7675,268.13 C376.76251,268.790003 378.562492,269.787493 380.1675,271.1225 C381.772508,272.457507 383.069995,274.12249 384.06,276.1175 C385.050005,278.11251 385.545,280.429987 385.545,283.07 C385.545,285.740013 385.050005,288.06499 384.06,290.045 C383.069995,292.02501 381.772508,293.682493 380.1675,295.0175 C378.562492,296.352507 376.76251,297.349997 374.7675,298.01 C372.77249,298.670003 370.78501,299 368.805,299 L358.23,299 L358.23,267.14 Z M361.47,296.12 L367.905,296.12 C370.305012,296.12 372.397491,295.745004 374.1825,294.995 C375.967509,294.244996 377.444994,293.262506 378.615,292.0475 C379.785006,290.832494 380.662497,289.445008 381.2475,287.885 C381.832503,286.324992 382.125,284.720008 382.125,283.07 C382.125,281.419992 381.832503,279.815008 381.2475,278.255 C380.662497,276.694992 379.785006,275.307506 378.615,274.0925 C377.444994,272.877494 375.967509,271.895004 374.1825,271.145 C372.397491,270.394996 370.305012,270.02 367.905,270.02 L361.47,270.02 L361.47,296.12 Z M394.553666,299 L390.998666,299 L404.768666,267.14 L407.918666,267.14 L421.598666,299 L417.998666,299 L414.488666,290.63 L398.018666,290.63 L394.553666,299 Z M399.233666,287.66 L413.273666,287.66 L406.253666,270.74 L399.233666,287.66 Z M438.077331,299 L434.837331,299 L434.837331,285.275 L422.912331,267.14 L426.962331,267.14 L436.547331,282.575 L446.222331,267.14 L450.002331,267.14 L438.077331,285.275 L438.077331,299 Z M470.727331,272.27 C470.037328,271.309995 469.152337,270.537503 468.072331,269.9525 C466.992326,269.367497 465.687339,269.075 464.157331,269.075 C463.377327,269.075 462.582335,269.194999 461.772331,269.435 C460.962327,269.675001 460.227335,270.042498 459.567331,270.5375 C458.907328,271.032502 458.374833,271.654996 457.969831,272.405 C457.564829,273.155004 457.362331,274.039995 457.362331,275.06 C457.362331,276.080005 457.557329,276.919997 457.947331,277.58 C458.337333,278.240003 458.854828,278.802498 459.499831,279.2675 C460.144834,279.732502 460.879827,280.114999 461.704831,280.415 C462.529835,280.715001 463.392327,281.014998 464.292331,281.315 C465.402337,281.675002 466.519826,282.064998 467.644831,282.485 C468.769837,282.905002 469.782327,283.452497 470.682331,284.1275 C471.582336,284.802503 472.317328,285.657495 472.887331,286.6925 C473.457334,287.727505 473.742331,289.039992 473.742331,290.63 C473.742331,292.220008 473.434834,293.592494 472.819831,294.7475 C472.204828,295.902506 471.409836,296.854996 470.434831,297.605 C469.459826,298.355004 468.349837,298.909998 467.104831,299.27 C465.859825,299.630002 464.607338,299.81 463.347331,299.81 C462.387326,299.81 461.427336,299.712501 460.467331,299.5175 C459.507326,299.322499 458.592336,299.030002 457.722331,298.64 C456.852327,298.249998 456.042335,297.755003 455.292331,297.155 C454.542328,296.554997 453.882334,295.865004 453.312331,295.085 L456.102331,293.015 C456.792335,294.155006 457.759825,295.107496 459.004831,295.8725 C460.249837,296.637504 461.712323,297.02 463.392331,297.02 C464.202335,297.02 465.027327,296.892501 465.867331,296.6375 C466.707335,296.382499 467.464828,295.992503 468.139831,295.4675 C468.814835,294.942497 469.369829,294.297504 469.804831,293.5325 C470.239833,292.767496 470.457331,291.875005 470.457331,290.855 C470.457331,289.744994 470.239833,288.822504 469.804831,288.0875 C469.369829,287.352496 468.792335,286.737502 468.072331,286.2425 C467.352328,285.747498 466.527336,285.335002 465.597331,285.005 C464.667327,284.674998 463.692336,284.345002 462.672331,284.015 C461.622326,283.684998 460.587336,283.310002 459.567331,282.89 C458.547326,282.469998 457.632335,281.922503 456.822331,281.2475 C456.012327,280.572497 455.359834,279.740005 454.864831,278.75 C454.369829,277.759995 454.122331,276.545007 454.122331,275.105 C454.122331,273.574992 454.429828,272.255006 455.044831,271.145 C455.659834,270.034994 456.462326,269.120004 457.452331,268.4 C458.442336,267.679996 459.537325,267.155002 460.737331,266.825 C461.937337,266.494998 463.122325,266.33 464.292331,266.33 C466.452342,266.33 468.297324,266.712496 469.827331,267.4775 C471.357339,268.242504 472.512327,269.149995 473.292331,270.2 L470.727331,272.27 Z"/>
    <g stroke="#FF6B12" stroke-width="15" transform="translate(25 22)">
      <path d="M185.781485,289.126989 L185.781485,264.725907 C185.781485,253.857886 176.971213,245.047615 166.103193,245.047615 C155.235173,245.047615 146.424901,253.857886 146.424901,264.725907 L146.424901,289.126989 L93.6870795,289.126989 L105.49716,167.745604 C105.495091,167.537841 105.494055,167.329832 105.494055,167.12158 C105.494055,133.213356 132.982101,105.72531 166.890325,105.72531 C200.798548,105.72531 228.286595,133.213356 228.286595,167.12158 C228.286595,167.329832 228.285558,167.537841 228.283489,167.745604 L240.09357,289.126989 L185.781485,289.126989 Z"/>
      <g transform="rotate(-13 238.618 24.152)">
        <path d="M108.484508,18.1516095 C132.884745,68.1795083 169.56816,105.72592 208.45023,120.478726" transform="rotate(60 158.467 69.315)"/>
        <path d="M139.149858,138.183374 C163.550095,188.211273 200.23351,225.757685 239.11558,240.510491" transform="rotate(-180 189.133 189.347)"/>
        <path d="M19.8666252,104.724464 C44.2668618,154.752363 80.9502775,192.298775 119.832347,207.051581" transform="rotate(-60 69.85 155.888)"/>
      </g>
    </g>
  </g>
</svg>
