<svg xmlns="http://www.w3.org/2000/svg" xmlns:xlink="http://www.w3.org/1999/xlink" width="2009" height="360" viewBox="0 0 2009 360"><defs><path id="a" d="M0,0 L0,358.214 L139.369,358.214 C207.007,358.214 250.75,316.279 250.75,258.176 L250.75,258.176 C250.75,213.715 222.269,181.891 187.171,173.301 L187.171,173.301 C217.183,163.191 239.556,133.389 239.556,96.499 L239.556,96.499 C239.556,40.922 199.888,0 129.696,0 L129.696,0 L0,0 Z"/></defs><g fill="none" fill-rule="evenodd" transform="translate(.778 .975)"><path fill="#004EF9" d="M453.7601 155.0299C434.6421 155.0299 418.6611 169.0119 418.6611 194.6949 418.6611 220.0919 434.6421 234.6439 453.7601 234.6439 473.1641 234.6439 488.5731 220.3769 488.5731 194.6949 488.5731 169.0119 473.1641 155.0299 453.7601 155.0299L453.7601 155.0299ZM381.8511 265.1769 381.8511 58.5799 419.2331 58.5799 419.2331 140.1909C425.5101 130.2049 440.9191 121.0729 461.7501 121.0729 502.8411 121.0729 526.5261 152.7479 526.5261 194.4089 526.5261 236.9269 500.2731 268.6009 460.3231 268.6009 440.9191 268.6009 426.0811 260.0409 418.6611 248.0559L418.6611 265.1769 381.8511 265.1769ZM636.1019 162.4489C631.8219 161.5939 628.1119 161.3079 624.6869 161.3079 605.2839 161.3079 588.4479 170.7239 588.4479 200.9719L588.4479 265.1779 550.4959 265.1779 550.4959 124.7829 587.3059 124.7829 587.3059 145.6129C595.8669 127.0649 615.2709 123.6409 627.2549 123.6409 630.3939 123.6409 633.2479 123.9269 636.1019 124.2119L636.1019 162.4489ZM656.927 265.178 694.879 265.178 694.879 124.783 656.927 124.783 656.927 265.178ZM675.76 55.156C688.887 55.156 699.159 65.715 699.159 78.84 699.159 91.396 688.887 101.955 675.76 101.955 662.919 101.955 652.362 91.396 652.362 78.84 652.362 65.715 662.919 55.156 675.76 55.156L675.76 55.156ZM824.4281 190.6989C824.4281 169.0119 809.5891 155.3159 791.3271 155.3159 772.4931 155.3159 757.6561 169.0119 757.6561 190.6989 757.6561 212.6719 771.6381 226.3689 791.3271 226.3689 810.7311 226.3689 824.4281 212.3859 824.4281 190.6989L824.4281 190.6989ZM753.6601 263.7499C756.2281 279.1599 768.4981 290.2889 786.4761 290.2889 810.4461 290.2889 823.8581 278.3029 823.8581 251.1949L823.8581 240.9219C818.1511 250.0529 805.0241 258.8989 784.7641 258.8989 747.3821 258.8989 719.4171 230.0779 719.4171 190.6989 719.4171 153.6029 746.2401 122.2149 784.7641 122.2149 807.0221 122.2149 819.8631 131.9159 824.7131 141.3339L824.7131 124.7829 861.2391 124.7829 861.2391 250.0529C861.2391 288.5759 840.4071 323.6749 787.6171 323.6749 749.0951 323.6749 723.4121 299.7049 719.4171 272.8819L753.6601 263.7499ZM931.7171 265.1774 893.7651 265.1774 893.7651 58.5794 931.7171 58.5794 931.7171 136.4824C940.8481 125.6384 956.2571 121.0734 969.6691 121.0734 1005.3381 121.0734 1021.8891 145.8984 1021.8891 176.7164L1021.8891 265.1774 983.9371 265.1774 983.9371 183.2804C983.9371 167.5854 976.2321 155.3164 957.9691 155.3164 941.9891 155.3164 932.5721 167.3004 931.7171 182.7094L931.7171 265.1774ZM1101.2171 124.7829 1129.4671 124.7829 1129.4671 158.4549 1101.2171 158.4549 1101.2171 217.2379C1101.2171 229.5079 1106.9241 233.5029 1117.7681 233.5029 1122.3331 233.5029 1127.4701 232.9309 1129.4671 232.3609L1129.4671 263.7499C1126.0421 265.1779 1119.1951 267.1749 1108.0661 267.1749 1080.6711 267.1749 1063.5501 250.9099 1063.5501 223.8009L1063.5501 158.4549 1038.1541 158.4549 1038.1541 124.7829 1045.2871 124.7829C1060.1261 124.7829 1066.9741 115.0799 1066.9741 102.5249L1066.9741 82.8359 1101.2171 82.8359 1101.2171 124.7829ZM1153.7181 265.1774 1153.7181 124.7824 1189.9581 124.7824 1189.9581 141.9044C1197.6631 128.2064 1215.6411 120.7864 1231.0501 120.7864 1250.1681 120.7864 1265.5771 129.0624 1272.7111 144.1874 1283.8401 127.0654 1298.6791 120.7864 1317.2271 120.7864 1343.1941 120.7864 1368.0201 136.4824 1368.0201 174.1484L1368.0201 265.1774 1331.2091 265.1774 1331.2091 181.8534C1331.2091 166.7304 1323.7901 155.3164 1306.3831 155.3164 1290.1181 155.3164 1280.4161 167.8704 1280.4161 182.9944L1280.4161 265.1774 1242.7491 265.1774 1242.7491 181.8534C1242.7491 166.7304 1235.0441 155.3164 1217.9231 155.3164 1201.3721 155.3164 1191.6711 167.5854 1191.6711 182.9944L1191.6711 265.1774 1153.7181 265.1774ZM1499.2786 194.9801C1499.2786 168.4411 1482.1576 155.0301 1463.6086 155.0301 1445.0606 155.0301 1427.9396 168.4411 1427.9396 194.9801 1427.9396 221.2321 1445.0606 234.9291 1463.6086 234.9291 1482.1576 234.9291 1499.2786 221.5171 1499.2786 194.9801M1537.2306 194.9801C1537.2306 238.0681 1505.5556 269.4571 1463.6086 269.4571 1421.6626 269.4571 1389.9876 238.0681 1389.9876 194.9801 1389.9876 151.6051 1421.6626 120.5011 1463.6086 120.5011 1505.5556 120.5011 1537.2306 151.6051 1537.2306 194.9801M1607.4281 124.7829 1635.6781 124.7829 1635.6781 158.4549 1607.4281 158.4549 1607.4281 217.2379C1607.4281 229.5079 1613.1351 233.5029 1623.9781 233.5029 1628.5441 233.5029 1633.6801 232.9309 1635.6781 232.3609L1635.6781 263.7499C1632.2531 265.1779 1625.4061 267.1749 1614.2771 267.1749 1586.8821 267.1749 1569.7611 250.9099 1569.7611 223.8009L1569.7611 158.4549 1544.3651 158.4549 1544.3651 124.7829 1551.4981 124.7829C1566.3371 124.7829 1573.1851 115.0799 1573.1851 102.5249L1573.1851 82.8359 1607.4281 82.8359 1607.4281 124.7829ZM1661.923 265.178 1699.876 265.178 1699.876 124.783 1661.923 124.783 1661.923 265.178ZM1680.757 55.156C1693.883 55.156 1704.156 65.715 1704.156 78.84 1704.156 91.396 1693.883 101.955 1680.757 101.955 1667.916 101.955 1657.358 91.396 1657.358 78.84 1657.358 65.715 1667.916 55.156 1680.757 55.156L1680.757 55.156Z"/><polygon fill="#004EF9" points="1812.304 265.177 1774.351 265.177 1716.995 124.782 1758.658 124.782 1793.47 218.948 1826.857 124.782 1866.806 124.782"/><path fill="#004EF9" d="M1970.1038,178.9997 C1969.5338,165.0177 1960.4018,151.3197 1938.7148,151.3197 C1919.0258,151.3197 1908.1818,166.1587 1907.3258,178.9997 L1970.1038,178.9997 Z M2005.4878,224.9417 C1998.3548,249.1967 1976.0968,269.4567 1941.5688,269.4567 C1903.0458,269.4567 1869.0888,241.7777 1869.0888,194.4087 C1869.0888,149.6077 1902.1898,120.5017 1938.1438,120.5017 C1981.5188,120.5017 2007.4858,148.1817 2007.4858,193.2677 C2007.4858,198.6887 2006.9158,204.3957 2006.9158,204.9667 L1906.4698,204.9667 C1907.3258,223.5157 1923.0208,236.9277 1941.8538,236.9277 C1959.5458,236.9277 1969.2488,228.0807 1973.8138,215.5247 L2005.4878,224.9417 Z"/><mask id="b" fill="#fff"><use xlink:href="#a"/></mask><use xlink:href="#a" fill="#268AFF"/><polygon fill="#004EF9" points="112.972 425.319 587.605 425.319 587.605 -13.493 112.972 -13.493" mask="url(#b)"/><polygon fill="#6DB1FF" points="112.972 174.57 -137.778 -13.56 -41.997 -317.975 267.941 -317.975 363.722 -13.56" mask="url(#b)"/></g></svg>