<svg width="180" height="30" viewBox="0 0 180 30" fill="none" xmlns="http://www.w3.org/2000/svg">
    <path d="M0.0878906 22.5482V9.16674H8.76301V10.6243H1.65082V15.1024H8.60496V16.5599H1.65082V21.0906H8.85082V22.5482H0.0878906ZM11.9415 22.5482V9.16674H20.6167V10.6243H13.5045V15.1024H20.4586V16.5599H13.5045V21.0906H20.7045V22.5482H11.9415ZM23.7776 22.5482V9.16674H28.923C30.2928 9.16674 31.3991 9.53552 32.2245 10.2906C33.0498 11.0458 33.4537 12.0292 33.4537 13.276C33.4537 14.3121 33.1376 15.2077 32.523 15.9102C31.9084 16.6302 31.0655 17.0692 29.9942 17.2448L33.4889 22.5306H31.7679L28.3435 17.3502H25.3406V22.5306H23.7776V22.5482ZM25.3581 15.9102H28.923C29.8537 15.9102 30.5737 15.6819 31.0655 15.2077C31.5747 14.7336 31.8206 14.1014 31.8206 13.276C31.8206 12.4682 31.5747 11.8185 31.0655 11.3443C30.5562 10.8702 29.8537 10.6243 28.923 10.6243H25.3581V15.9102ZM36.1406 22.5482V9.16674H37.7035V21.0906H44.7981V22.5482H36.1406ZM46.8703 22.5482V9.16674H48.4333V22.5306H46.8703V22.5482ZM52.1211 18.4741V19.0536C52.1211 19.7209 52.3142 20.2477 52.7006 20.6341C53.0869 21.0204 53.5786 21.2136 54.2108 21.2136C54.9308 21.2136 55.4928 21.0028 55.8791 20.5638C56.2655 20.1248 56.4586 19.5277 56.4586 18.7726V9.16674H58.004V18.755C58.004 20.037 57.6703 21.0204 57.003 21.7053C56.3357 22.3902 55.405 22.7238 54.1933 22.7238C53.1045 22.7238 52.2089 22.4077 51.5415 21.758C50.8742 21.1082 50.523 20.2302 50.523 19.0887V18.7902L52.1211 18.4741ZM61.3757 22.5482V9.16674H62.9386V16.0682L69.4889 9.16674H71.4206L66.1347 14.9267L71.7191 22.5482H69.7347L64.9581 16.1209L62.9562 18.1228V22.5306H61.3757V22.5482ZM73.6157 22.5482V9.16674H82.2908V10.6243H75.1786V15.1024H82.1328V16.5599H75.1786V21.0906H82.3786V22.5482H73.6157ZM151.78 9.21943H152.868L148.074 22.5833H146.968L142.613 10.4663L138.275 22.5833H137.169L132.357 9.21943H133.446L137.748 21.3541L142.086 9.21943H143.175L147.512 21.3541L151.78 9.21943ZM160.859 22.7765C158.927 22.7765 157.346 22.1267 156.1 20.8448C154.853 19.5628 154.221 17.8946 154.221 15.8575C154.221 13.838 154.853 12.1872 156.1 10.9228C157.346 9.65845 158.944 9.02626 160.859 9.02626C162.773 9.02626 164.353 9.65845 165.618 10.9228C166.882 12.1872 167.514 13.838 167.514 15.8575C167.514 17.8946 166.882 19.5628 165.618 20.8448C164.353 22.1443 162.773 22.7765 160.859 22.7765ZM156.855 20.1599C157.908 21.2663 159.243 21.8106 160.876 21.8106C162.492 21.8106 163.826 21.2663 164.898 20.1599C165.951 19.0536 166.478 17.6311 166.478 15.875C166.478 14.1365 165.951 12.7141 164.898 11.6253C163.844 10.5365 162.509 10.0097 160.876 10.0097C159.243 10.0097 157.908 10.5541 156.855 11.6253C155.801 12.7141 155.274 14.1189 155.274 15.875C155.257 17.6311 155.783 19.0536 156.855 20.1599ZM171.237 21.6526H179.912V22.5833H169.85V21.8633L178.507 10.1502H170.043V9.21943H179.877V9.93943L171.237 21.6526ZM120.556 6.39211L118.993 7.95504L100.923 26.0253H103.259L121.592 7.69162C121.417 7.16479 121.065 6.69065 120.556 6.39211ZM114.603 2.96772L95.9708 21.5824V23.918L116.096 3.82821L114.603 2.96772ZM110.02 0.316011C109.405 -0.0352081 108.685 -0.087891 108.053 0.140402L100.238 7.95504L95.9708 12.2048V14.5404L102.556 7.95504L106.086 4.42528L110.143 0.368694L110.02 0.316011ZM102.574 3.26626L97.1474 6.39211C97.1123 6.40967 97.0596 6.44479 97.0245 6.46235C96.7611 6.63796 96.5328 6.86626 96.3572 7.12967C96.1113 7.49845 95.9708 7.95504 95.9708 8.41162V9.85162L97.8674 7.95504L102.574 3.26626ZM111.635 1.24674L106.104 6.77845L104.927 7.95504L95.9708 16.8936V19.2292L107.263 7.95504L113.11 2.10723L111.635 1.24674ZM117.588 4.68869L114.322 7.95504L106.104 16.1736L96.2518 26.0253H98.5874L106.104 18.5092L116.658 7.95504L119.081 5.53162L117.588 4.68869ZM106.086 25.5511L105.612 26.0253H107.947L121.698 12.275V9.93943L106.086 25.5511ZM108.825 27.518V29.8536L121.715 16.9638V14.6282L108.825 27.518ZM119.783 25.9375H121.68C121.698 25.8146 121.715 25.6741 121.715 25.5336V24.0058L119.783 25.9375ZM115.077 25.9375H117.413L121.698 21.6526V19.317L115.077 25.9375Z"
          fill="#297AFF"/>
</svg>