<?xml version="1.0" encoding="UTF-8" standalone="no"?>
<!-- Generator: Adobe Illustrator 19.2.1, SVG Export Plug-In . SVG Version: 6.00 Build 0)  -->
<svg xmlns:dc="http://purl.org/dc/elements/1.1/" xmlns:cc="http://creativecommons.org/ns#" xmlns:rdf="http://www.w3.org/1999/02/22-rdf-syntax-ns#" xmlns:svg="http://www.w3.org/2000/svg" xmlns="http://www.w3.org/2000/svg" xmlns:sodipodi="http://sodipodi.sourceforge.net/DTD/sodipodi-0.dtd" xmlns:inkscape="http://www.inkscape.org/namespaces/inkscape" version="1.1" id="svg2" inkscape:version="0.92.0 r15299" sodipodi:docname="dcd18 logo bright.svg" x="0px" y="0px" viewBox="0 0 300 300" style="enable-background:new 0 0 300 300;" xml:space="preserve" inkscape:export-filename="E:\Love\Silver Moon Art &amp; Design\Clients\DCD18\Logo\dcd18 logo bright.png" inkscape:export-xdpi="160" inkscape:export-ydpi="160"><metadata id="metadata31"><rdf:RDF><cc:Work rdf:about=""><dc:format>image/svg+xml</dc:format><dc:type rdf:resource="http://purl.org/dc/dcmitype/StillImage"/><dc:title/></cc:Work></rdf:RDF></metadata><defs id="defs29"><path style="opacity:1;fill:none;fill-opacity:1;stroke:#bebcf2;stroke-width:0.77700001;stroke-linecap:round;stroke-linejoin:round;stroke-miterlimit:4;stroke-dasharray:none;stroke-opacity:1" d="m 150.84945,364.78504 c 36.10757,-15.21707 141.42135,-39.73266 233.00852,2.69374" id="path4379-6" inkscape:connector-curvature="0" sodipodi:nodetypes="cc"/></defs><sodipodi:namedview pagecolor="#ffffff" bordercolor="#666666" borderopacity="1" objecttolerance="10" gridtolerance="10" guidetolerance="10" inkscape:pageopacity="0" inkscape:pageshadow="2" inkscape:window-width="1920" inkscape:window-height="1001" id="namedview27" showgrid="false" inkscape:zoom="1.5733334" inkscape:cx="96.953378" inkscape:cy="139.09139" inkscape:window-x="-9" inkscape:window-y="-9" inkscape:window-maximized="1" inkscape:current-layer="svg2"/><style type="text/css" id="style3">
	.st0{fill:#DE8051;}
	.st1{fill:#FFFFFF;}
	.st2{fill:#90B4FE;}
	.st3{fill:#3D6AB3;}
	.st4{fill:#C44551;}
</style><style id="style4160" type="text/css">
	.st0{fill:#A481EB;}
	.st1{fill:#5B53A3;}
	.st2{fill:#A84A3D;}
	.st3{fill:#DE8C51;}
	.st4{fill:#FFFFFF;}
	.st5{fill:#393467;}
	.st6{fill:#F2F2F2;}
	.st7{fill:#90B4FE;}
	.st8{fill:none;stroke:#DE8C51;stroke-width:7;stroke-miterlimit:10;}
</style><g id="g1033" transform="translate(-911.4577,-246.36748)"><path id="circle9" d="M 150,0 A 150,150 0 0 0 0,150 150,150 0 0 0 150,300 150,150 0 0 0 300,150 150,150 0 0 0 150,0 Z m 0,10.800781 C 226.9,10.800781 289.19922,73.1 289.19922,150 289.19922,226.9 226.9,289.19922 150,289.19922 73.1,289.19922 10.800781,226.9 10.800781,150 10.800781,73.1 73.1,10.800781 150,10.800781 Z" style="fill:#ffffff;fill-opacity:1" inkscape:connector-curvature="0"/><path inkscape:connector-curvature="0" id="path4441-8_1_" d="m 84.699219,115.25 v 52.80078 H 91 V 115.25 Z m 64.500001,3.20117 c -2.5,0 -4.89922,2.09961 -5.19922,4.59961 -0.4,2.5 1.40039,4.59961 3.90039,4.59961 2.5,0 4.89883,-2.09961 5.29883,-4.59961 0.3,-2.5 -1.5,-4.59961 -4,-4.59961 z m -33.5,15.69922 c -9.9,0 -17.599611,7.70039 -17.599611,17.40039 0,9.6 7.699611,17.40039 17.599611,17.40039 9.9,0 17.60156,-7.80039 17.60156,-17.40039 0,-9.6 -7.70156,-17.40039 -17.60156,-17.40039 z m 97.30078,0 c -4.1,0 -8.30039,2.40039 -9.90039,5.90039 h -0.0996 v -5.09961 h -6.30078 l -0.0996,33.09961 h 6.30078 v -16.59961 c 0,-7.3 3.3,-10.59961 9.5,-10.59961 1,0 1.99961,0.2 3.09961,0.5 l 0.30076,-6.80078 c -0.8,-0.3 -1.80078,-0.40039 -2.80078,-0.40039 z m 23.19922,0 c -9.9,0 -17.09961,7.50039 -17.09961,17.40039 0,9.8 6.5,17.40039 17,17.40039 6.3,0 11.09961,-2.20078 14.59961,-6.80078 L 246,158.55078 c -2.4,3 -5.19961,5 -9.09961,5 -5.8,0 -11.09961,-3.79961 -11.09961,-9.59961 l 26.5,-0.0996 v -2.20117 c 0,-8.5 -4.50156,-17.5 -16.10156,-17.5 z M 65,134.25 c -10.299999,0 -17.300781,7.3 -17.300781,17.5 0,10.2 7.100781,17.20117 17.300781,17.20117 4.8,0 9.3,-1.49961 12.5,-5.09961 l -4.5,-4.5 c -2.099999,2.4 -4.5,3.69922 -8,3.69922 -6.5,0 -10.699219,-4.99922 -10.699219,-11.19922 0,-6.2 3.498828,-11.70117 10.298828,-11.70117 3.5,0 5.901173,1.30117 8.201172,3.70117 l 4.898438,-4.40039 C 74.399219,135.85117 69.8,134.25 65,134.25 Z m 92.69922,0.60156 v 21.29883 c 0,8.8 5.6,12.59961 12,12.59961 5.1,0 9.30039,-2.39844 10.90039,-5.89844 h 0.0996 v 5.09961 h 6.30078 v -33 h -6.30078 v 17 c 0,7.7 -3.99922,11 -9.19922,11 -4,0 -7.5,-2.3 -7.5,-8.5 v -19.59961 h -6.30078 z m -13.89844,0.0996 -5.30078,37.59962 c -0.6,4.2 -2.1,6.40039 -5.5,6.40039 -0.8,0 -1.7,-0.29961 -2.5,-0.59961 l -1.5,5.79883 c 1.3,0.5 2.50039,0.59961 3.90039,0.59961 10,0 11.39883,-8.6 11.79883,-12 l 5.40039,-37.79883 h -6.29883 z M 236,139.15039 c 6.3,0 9.4,4.09961 9.5,9.59961 h -19.69922 c 0,-4.4 3.99922,-9.59961 10.19922,-9.59961 z m -120.30078,0.90039 c 6.7,0 10.90039,4.8 10.90039,11.5 0,6.7 -4.20039,11.5 -10.90039,11.5 -6.7,0 -10.89844,-4.8 -10.89844,-11.5 0,-6.7 4.19844,-11.5 10.89844,-11.5 z" style="fill:#ffffff;fill-opacity:1"/><path inkscape:connector-curvature="0" id="path3545-7-2-4-4-6-4-1-3-1_1_" d="m 31.900002,201.1 c 5.144306,12.15442 12.172062,23.33663 20.699219,33.2207 v -20.12109 h 9.701172 c 13.900001,0 25.599609,6.60117 25.599609,20.70117 0,10.86706 -5.07046,16.96251 -12.929688,19.87305 4.783564,3.42842 9.81357,6.54207 15.064454,9.30078 9.079647,-6.00132 15.064452,-15.49217 15.064452,-28.375 0,-20.5 -10.999217,-30.99961 -27.199218,-34.59961 z m 94.599608,0 -29.767577,66.23047 c 5.743267,2.60353 11.713977,4.79648 17.876947,6.54687 l 5.69141,-13.87695 h 33.40039 l 7.6582,18.28906 c 5.46648,-0.47571 10.83299,-1.29003 16.08008,-2.42383 2.10719,-0.46389 4.19548,-0.95341 6.22461,-1.49023 0.0198,-0.005 0.0388,-0.0104 0.0586,-0.0156 4.04463,-1.08967 8.00256,-2.3861 11.87695,-3.84766 V 244.9008 l 18.80078,-28.5 c 0.16603,8.35277 5.66964,11.13018 10.92578,13.05469 4.89149,1.79101 9.95029,3.40185 10.08594,7.51953 0.12451,3.77929 -2.4125,6.42578 -6.3125,6.42578 -4,0 -7.49922,-1.8 -10.69922,-5 l -8.59961,9.40039 c 3.83316,3.3657 8.74666,7.0054 13.70117,8.03711 10.55946,-7.33874 19.94641,-16.20619 27.82422,-26.28711 C 245.77932,219.65186 229.9,221.27504 229.9,213.19961 c 0,-3.9 2.98269,-5.69028 6.85938,-5.05469 2.86179,0.4692 5.94574,2.47563 8.74023,4.95508 l 8.20117,-10.5 c -0.65438,-0.5609 -1.31046,-1.03219 -1.96484,-1.5 H 204.13828 L 186.59922,229.19961 170.0582,201.1 Z m 21.59961,0.40039 29.5,43.40039 v 22 z M 136.70078,218.80117 147.30039,244.6 h -21 z" style="fill:#ffffff;fill-opacity:1"/><path sodipodi:nodetypes="sccsscccccsscccccccsccccccscccccccsccccccccccccssccccccs" inkscape:connector-curvature="0" id="path3545-7-2-4-4-6-4-1-3-9-3_1_" d="m 149.99961,21.199609 c -9.12436,0 -18.01674,0.965052 -26.59961,2.759766 l 0.0996,46.441406 c 0,9.9 -7.09922,17.298828 -16.69922,17.298828 -9.799996,0 -16.800778,-7.498828 -16.800778,-17.298828 V 35.94375 c -6.488704,3.411571 -12.637315,7.368074 -18.400391,11.791016 v 8.765625 c -2.175713,-1.285649 -4.547372,-2.275786 -7.017578,-2.97461 -3.170979,2.812188 -6.193417,5.782469 -9.066407,8.890625 8.42723,0.930954 13.285157,5.625699 13.285157,14.484375 0,11.6 -6.401172,15.599609 -17.201172,15.599609 h -6.09961 V 74.670312 c -5.384479,7.514162 -9.960138,15.631535 -13.599599,24.230469 h 38.099609 c 3.200001,-1.8 6.001172,-4.100391 8.201172,-6.900391 2.1,2.7 4.699219,5.000391 7.699219,6.900391 h 41.900388 c 9.3,-5.8 14.09961,-15.801172 14.09961,-27.701172 V 36.900781 h 4.90039 v 62 h 18.40039 v -62 h 19 c -9.5,6.4 -15.30078,17.00039 -15.30078,30.40039 0,14.3 6.70039,25.39961 17.40039,31.59961 h 46.79883 v -14.09961 h 19.20117 v 14.09961 h 15.79883 l -2.60547,-5.701172 c -1.10596,-2.286182 -2.26148,-4.543971 -3.5,-6.751953 -0.74209,-1.322967 -1.50866,-2.632345 -2.29687,-3.925782 -0.0429,-0.0702 -0.0879,-0.13888 -0.13086,-0.208984 -0.72548,-1.185264 -1.471,-2.356151 -2.23438,-3.515625 -0.0674,-0.1026 -0.13354,-0.206193 -0.20117,-0.308594 -0.64478,-0.973155 -1.31145,-1.930452 -1.98242,-2.884765 -0.20515,-0.294433 -0.40601,-0.59194 -0.61328,-0.884766 -0.22186,-0.309907 -0.45705,-0.610124 -0.68165,-0.917969 h -20.7539 V 56.1 h -14.39844 v 25.499999 c -2.69884,5.507648 -9.17722,8.323311 -13.90039,8.400391 -11.8,0 -19,-9.600781 -19,-22.800781 0,-13.2 5.2,-22.798828 17.5,-22.798828 6,0 10.70039,2.098828 13.90039,5.798828 l 9,-4.099609 c -0.74661,-0.548713 -1.49792,-1.083726 -2.24805,-1.621094 -7.73638,-5.426113 -16.10634,-10.022765 -24.98437,-13.662109 -3.42708,0.728568 -7.15583,1.973522 -10.06836,3.382812 v -7.035156 c -12.26736,-3.866199 -25.33458,-5.964844 -38.90039,-5.964844 z" style="fill:#ffffff;fill-opacity:1"/></g><g id="g1026" transform="translate(-340.67795,353.38982)"><circle style="fill:#ff6b12;fill-opacity:1" id="circle9-5-2" r="150" cy="-203.38982" cx="490.67795" class="st0"/><path style="fill:#ffffff" d="m 629.87796,-203.38982 c 0,76.9 -62.3,139.200004 -139.2,139.200004 -76.89999,0 -139.19999,-62.300004 -139.19999,-139.200004 0,-76.89999 62.3,-139.19998 139.19999,-139.19998 v 0 c 76.9,0 139.2,62.29999 139.2,139.19998 z" class="st1" inkscape:connector-curvature="0" id="path4167_1_-3-9"/><path inkscape:connector-curvature="0" id="path4441-8_1_-0-7" d="m 425.37719,-238.13982 v 52.80078 h 6.30078 v -52.80078 z m 64.49999,3.20117 c -2.5,0 -4.89922,2.09961 -5.19922,4.59961 -0.4,2.5 1.40039,4.59961 3.90039,4.59961 2.5,0 4.89883,-2.09961 5.29883,-4.59961 0.3,-2.5 -1.5,-4.59961 -4,-4.59961 z m -33.5,15.69922 c -9.9,0 -17.5996,7.70039 -17.5996,17.40039 0,9.6 7.6996,17.40039 17.5996,17.40039 9.9,0 17.60156,-7.80039 17.60156,-17.40039 0,-9.6 -7.70156,-17.40039 -17.60156,-17.40039 z m 97.30078,0 c -4.1,0 -8.30039,2.40039 -9.90039,5.90039 h -0.0996 v -5.09961 h -6.30078 l -0.0996,33.09961 h 6.30078 v -16.59961 c 0,-7.3 3.3,-10.59961 9.5,-10.59961 1,0 1.99961,0.2 3.09961,0.5 l 0.30076,-6.80078 c -0.8,-0.3 -1.80078,-0.40039 -2.80078,-0.40039 z m 23.19922,0 c -9.9,0 -17.09961,7.50039 -17.09961,17.40039 0,9.8 6.5,17.40039 17,17.40039 6.3,0 11.09961,-2.20078 14.59961,-6.80078 l -4.69922,-3.59961 c -2.4,3 -5.19961,5 -9.09961,5 -5.8,0 -11.09961,-3.79961 -11.09961,-9.59961 l 26.5,-0.0996 v -2.20117 c 0,-8.5 -4.50156,-17.5 -16.10156,-17.5 z m -171.19921,0.0996 c -10.3,0 -17.30078,7.3 -17.30078,17.5 0,10.2 7.10078,17.20117 17.30078,17.20117 4.8,0 9.3,-1.49961 12.5,-5.09961 l -4.5,-4.5 c -2.1,2.4 -4.5,3.69922 -8,3.69922 -6.5,0 -10.69922,-4.99922 -10.69922,-11.19922 0,-6.2 3.49883,-11.70117 10.29883,-11.70117 3.5,0 5.90117,1.30117 8.20117,3.70117 l 4.89844,-4.40039 c -3.3,-3.6 -7.89922,-5.20117 -12.69922,-5.20117 z m 92.69921,0.60156 v 21.29883 c 0,8.8 5.6,12.59961 12,12.59961 5.1,0 9.30039,-2.39844 10.90039,-5.89844 h 0.0996 v 5.09961 h 6.30078 v -33 h -6.30078 v 17 c 0,7.7 -3.99922,11 -9.19922,11 -4,0 -7.5,-2.3 -7.5,-8.5 v -19.59961 h -6.30078 z m -13.89844,0.0996 -5.30078,37.59962 c -0.6,4.2 -2.1,6.40039 -5.5,6.40039 -0.8,0 -1.7,-0.29961 -2.5,-0.59961 l -1.5,5.79883 c 1.3,0.5 2.50039,0.59961 3.90039,0.59961 10,0 11.39883,-8.6 11.79883,-12 l 5.40039,-37.79883 h -6.29883 z m 92.19922,4.19923 c 6.3,0 9.4,4.09961 9.5,9.59961 h -19.69922 c 0,-4.4 3.99922,-9.59961 10.19922,-9.59961 z m -120.30078,0.90039 c 6.7,0 10.90039,4.8 10.90039,11.5 0,6.7 -4.20039,11.5 -10.90039,11.5 -6.7,0 -10.89844,-4.8 -10.89844,-11.5 0,-6.7 4.19844,-11.5 10.89844,-11.5 z" style="fill:#00b3e6;fill-opacity:1"/><path style="fill:#5c03fa;fill-opacity:1" d="m 372.57797,-152.28943 c 19.3,45.6 64.90001,77.700004 118.09999,77.700004 53.2,0 98.8,-32.100004 118.1,-77.700004 z" class="st3" inkscape:connector-curvature="0" id="path3545-7-2-4-4-6-4-1-3-5-8_1_-2-9"/><path inkscape:connector-curvature="0" id="path3545-7-2-4-4-6-4-1-3-1_1_-3-9" d="m 372.57797,-152.28982 c 5.14431,12.15442 12.17207,23.33663 20.69922,33.2207 v -20.12109 h 9.70118 c 13.9,0 25.5996,6.60117 25.5996,20.70117 0,10.86706 -5.07046,16.96251 -12.92968,19.873054 4.78356,3.42842 9.81357,6.54207 15.06445,9.30078 9.07965,-6.00132 15.06444,-15.492174 15.06444,-28.375004 0,-20.5 -10.9992,-30.99961 -27.19921,-34.59961 z m 94.5996,0 -29.76756,66.230474 c 5.74325,2.60353 11.71396,4.79648 17.87693,6.54687 l 5.69141,-13.87695 h 33.40039 l 7.6582,18.28906 c 5.46648,-0.47571 10.83299,-1.29003 16.08008,-2.42383 2.10719,-0.46389 4.19548,-0.95341 6.22461,-1.49023 0.0198,-0.005 0.0388,-0.0104 0.0586,-0.0156 4.04463,-1.08967 8.00256,-2.3861 11.87695,-3.84766 v -25.611334 l 18.80078,-28.5 c 0.16603,8.35277 5.66964,11.13018 10.92578,13.05469 4.89149,1.79101 9.95029,3.40185 10.08594,7.51953 0.12451,3.77929 -2.4125,6.42578 -6.3125,6.42578 -4,0 -7.49922,-1.8 -10.69922,-5 l -8.59961,9.40039 c 3.83316,3.3657 8.74666,7.005404 13.70117,8.037114 10.55946,-7.338744 19.94641,-16.206194 27.82422,-26.287114 -5.54646,-9.89933 -21.42578,-8.27615 -21.42578,-16.35158 0,-3.9 2.98269,-5.69028 6.85938,-5.05469 2.86179,0.4692 5.94574,2.47563 8.74023,4.95508 l 8.20117,-10.5 c -0.65438,-0.5609 -1.31046,-1.03219 -1.96484,-1.5 h -47.59766 l -17.53906,28.09961 -16.54102,-28.09961 z m 21.59961,0.40039 29.5,43.40039 v 22.000004 z m -11.39844,17.30078 10.59961,25.79883 h -21 z" style="fill:#00b3e6;fill-opacity:1"/><path style="fill:#f00314;fill-opacity:1" d="m 372.57797,-254.48942 c 19.3,-45.59999 64.9,-77.69999 118.09999,-77.69999 53.2,0 98.8,32.1 118.1,77.69999 z" class="st3" inkscape:connector-curvature="0" id="path3545-7-2-4-4-6-4-1-3-5-8_1_-1-1-7"/><path sodipodi:nodetypes="sccsscccccsscccccccsccccccscccccccsccccccccccccssccccccs" inkscape:connector-curvature="0" id="path3545-7-2-4-4-6-4-1-3-9-3_1_-2-2" d="m 490.67757,-332.1902 c -9.12436,0 -18.01674,0.96506 -26.59961,2.75977 l 0.0996,46.4414 c 0,9.9 -7.09922,17.29883 -16.69922,17.29883 -9.79998,0 -16.80077,-7.49883 -16.80077,-17.29883 v -34.45702 c -6.4887,3.41157 -12.63731,7.36807 -18.40039,11.79101 v 8.76563 c -2.17571,-1.28565 -4.54737,-2.27579 -7.01757,-2.97461 -3.17098,2.81218 -6.19342,5.78247 -9.06641,8.89062 8.42723,0.93096 13.28516,5.6257 13.28516,14.48437 0,11.60001 -6.40118,15.59961 -17.20118,15.59961 h -6.09961 v -17.83008 c -5.38448,7.51417 -9.96013,15.63154 -13.5996,24.23047 h 38.09961 c 3.2,-1.8 6.00118,-4.10039 8.20118,-6.90039 2.1,2.7 4.69921,5.00039 7.69921,6.90039 h 41.90038 c 9.3,-5.79999 14.09961,-15.80117 14.09961,-27.70117 v -34.29882 h 4.90039 v 61.99999 h 18.40039 v -61.99999 h 19 c -9.5,6.4 -15.30078,17.00039 -15.30078,30.40038 0,14.3 6.70039,25.39962 17.40039,31.59961 h 46.79883 v -14.09961 h 19.20117 v 14.09961 h 15.79883 l -2.60547,-5.70117 c -1.10596,-2.28618 -2.26148,-4.54397 -3.5,-6.75195 -0.74209,-1.32297 -1.50866,-2.63235 -2.29687,-3.92578 -0.0429,-0.0702 -0.0879,-0.13888 -0.13086,-0.20899 -0.72548,-1.18526 -1.471,-2.35615 -2.23438,-3.51562 -0.0674,-0.1026 -0.13354,-0.2062 -0.20117,-0.3086 -0.64478,-0.97315 -1.31145,-1.93045 -1.98242,-2.88476 -0.20515,-0.29444 -0.40601,-0.59194 -0.61328,-0.88477 -0.22186,-0.30991 -0.45705,-0.61012 -0.68165,-0.91797 h -20.7539 v -17.70116 h -14.39844 v 25.49999 c -2.69884,5.50765 -9.17722,8.32331 -13.90039,8.40039 -11.8,0 -19,-9.60078 -19,-22.80078 0,-13.2 5.2,-22.79882 17.5,-22.79882 6,0 10.70039,2.09882 13.90039,5.79882 l 9,-4.0996 c -0.74661,-0.54872 -1.49792,-1.08373 -2.24805,-1.6211 -7.73638,-5.42611 -16.10634,-10.02276 -24.98437,-13.66211 -3.42708,0.72857 -7.15583,1.97352 -10.06836,3.38281 v -7.03515 c -12.26736,-3.8662 -25.33458,-5.96485 -38.90039,-5.96485 z" style="fill:#ffaa1d;fill-opacity:1"/></g></svg>