<?xml version="1.0" encoding="UTF-8" standalone="no"?>
<svg
   xmlns:dc="http://purl.org/dc/elements/1.1/"
   xmlns:cc="http://creativecommons.org/ns#"
   xmlns:rdf="http://www.w3.org/1999/02/22-rdf-syntax-ns#"
   xmlns:svg="http://www.w3.org/2000/svg"
   xmlns="http://www.w3.org/2000/svg"
   xmlns:sodipodi="http://sodipodi.sourceforge.net/DTD/sodipodi-0.dtd"
   xmlns:inkscape="http://www.inkscape.org/namespaces/inkscape"
   id="workspace"
   version="1.1"
   sodipodi:docname="ian2.svg"
   width="92.319695mm"
   height="25.498857mm"
   inkscape:version="0.92.3 (2405546, 2018-03-11)">
  <metadata
     id="metadata149">
    <rdf:RDF>
      <cc:Work
         rdf:about="">
        <dc:format>image/svg+xml</dc:format>
        <dc:type
           rdf:resource="http://purl.org/dc/dcmitype/StillImage" />
        <dc:title></dc:title>
        <dc:creator>
          <cc:Agent>
            <dc:title>Iñaki Arenaza</dc:title>
          </cc:Agent>
        </dc:creator>
      </cc:Work>
    </rdf:RDF>
  </metadata>
  <sodipodi:namedview
     pagecolor="#ffffff"
     bordercolor="#666666"
     borderopacity="1"
     objecttolerance="10"
     gridtolerance="10"
     guidetolerance="10"
     inkscape:pageopacity="0"
     inkscape:pageshadow="2"
     inkscape:window-width="3840"
     inkscape:window-height="2104"
     id="namedview147"
     showgrid="false"
     inkscape:zoom="1"
     inkscape:cx="151.39165"
     inkscape:cy="-157.66182"
     inkscape:window-x="3840"
     inkscape:window-y="0"
     inkscape:window-maximized="1"
     inkscape:current-layer="g3865"
     units="mm"
     fit-margin-top="0"
     fit-margin-left="0"
     fit-margin-right="0"
     fit-margin-bottom="0" />
  <desc
     id="desc2" />
  <defs
     id="defs39">
    <linearGradient
       x1="0"
       y1="0.5"
       x2="1"
       y2="0.5"
       id="linearGradientSk5m910lk1c">
      <stop
         offset="0%"
         stop-color="#ffc04a"
         id="stop4" />
      <stop
         offset="100%"
         stop-color="#ff6347"
         id="stop6" />
    </linearGradient>
    <linearGradient
       x1="0"
       y1="0.5"
       x2="1"
       y2="0.5"
       id="linearGradientSk5m910lk1m">
      <stop
         offset="0%"
         stop-color="#ffc04a"
         id="stop9" />
      <stop
         offset="100%"
         stop-color="#ff6347"
         id="stop11" />
    </linearGradient>
    <linearGradient
       x1="0"
       y1="0.5"
       x2="1"
       y2="0.5"
       id="linearGradientSk5m910lk1s">
      <stop
         offset="0%"
         stop-color="#ffc04a"
         id="stop14" />
      <stop
         offset="100%"
         stop-color="#ff6347"
         id="stop16" />
    </linearGradient>
    <linearGradient
       x1="0"
       y1="0.5"
       x2="1"
       y2="0.5"
       id="linearGradientSk5m910lk1y">
      <stop
         offset="0%"
         stop-color="#ffc04a"
         id="stop19" />
      <stop
         offset="100%"
         stop-color="#ff6347"
         id="stop21" />
    </linearGradient>
    <linearGradient
       x1="0"
       y1="0.5"
       x2="1"
       y2="0.5"
       id="linearGradientSk5m910lk21">
      <stop
         offset="0%"
         stop-color="#ffc04a"
         id="stop24" />
      <stop
         offset="100%"
         stop-color="#ff6347"
         id="stop26" />
    </linearGradient>
    <linearGradient
       x1="0.28632489"
       y1="63.693829"
       x2="76.435799"
       y2="63.693829"
       id="linearGradientSk5m910lk28"
       gradientTransform="scale(1.3131936,0.76150233)"
       gradientUnits="userSpaceOnUse">
      <stop
         offset="0%"
         stop-color="#ffc04a"
         id="stop29" />
      <stop
         offset="100%"
         stop-color="#ff6347"
         id="stop31" />
    </linearGradient>
    <linearGradient
       x1="-58.859631"
       y1="-56.954414"
       x2="58.061359"
       y2="-56.954414"
       id="linearGradientSk5m910lk2e"
       gradientTransform="scale(1.5368164,0.65069582)"
       gradientUnits="userSpaceOnUse">
      <stop
         offset="0%"
         stop-color="#1761a0"
         id="stop34" />
      <stop
         offset="100%"
         stop-color="#1761a0"
         id="stop36" />
    </linearGradient>
  </defs>
  <g
     class="selector-part"
     transform="translate(1060.8773,519.83969)"
     id="g51">
    <rect
       x="0"
       y="0"
       width="0"
       height="0"
       fill="rgba(255,255,255,0)"
       id="rect49" />
  </g>
  <g
     id="g3865"
     transform="translate(-927.2244,-419.4315)">
    <g
       id="g65"
       transform="matrix(1.2435789,0,0,1.2435789,927.2244,419.4315)"
       style="opacity:1"
       class="svg-clip svg-visible">
      <rect
         id="rect53"
         class="svg-hitbox"
         style="fill:none"
         height="67"
         width="109"
         y="0"
         x="0" />
      <svg
         id="svg63"
         version="1.1"
         viewBox="-4.624 14.509 109.999 67.988"
         height="67.987999"
         width="109.999">
        <desc
           id="desc55" />
        <defs
           id="defs57" />
        <g
           id="g61">
          <path
             id="path59"
             style="fill:url(#linearGradientSk5m910lk28);stroke:none"
             d="m 96.897,37.513 c 1.921,0 3.478,-1.558 3.478,-3.479 0,-1.92 -1.557,-3.478 -3.478,-3.478 -1.921,0 -3.478,1.558 -3.478,3.478 0,0.422 0.079,0.825 0.217,1.2 L 83.483,43.883 70.619,36.316 c 0.073,-0.297 0.116,-0.607 0.116,-0.927 0,-2.142 -1.736,-3.878 -3.878,-3.878 -0.869,0 -1.668,0.289 -2.314,0.772 L 52.92,23.054 c 0.054,-0.22 0.086,-0.448 0.086,-0.684 0,-1.581 -1.281,-2.861 -2.861,-2.861 -1.58,0 -2.861,1.281 -2.861,2.861 0,0.729 0.275,1.393 0.724,1.898 l -5.835,12.488 c -0.26,-0.045 -0.526,-0.074 -0.8,-0.074 -0.86,0 -1.662,0.239 -2.351,0.647 L 23.584,30.414 c 0.036,-0.225 0.06,-0.454 0.06,-0.689 0,-2.38 -1.929,-4.309 -4.309,-4.309 -2.379,0 -4.309,1.929 -4.309,4.309 0,2.38 1.929,4.309 4.309,4.309 1.352,0 2.556,-0.623 3.346,-1.596 l 14.682,6.576 c -0.384,0.674 -0.607,1.452 -0.607,2.284 0,0.852 0.293,1.605 0.694,2.29 l -8.233,8.237 c -1.136,-0.811 -2.506,-1.294 -4.003,-1.294 -2.642,0 -4.915,1.501 -6.082,3.684 l -0.096,-0.032 c -0.001,0.012 -0.004,0.023 -0.005,0.035 L 7.553,49.002 c 0.016,-0.134 0.025,-0.271 0.025,-0.409 0,-1.989 -1.612,-3.601 -3.601,-3.601 -1.989,0 -3.601,1.612 -3.601,3.601 0,1.989 1.612,3.601 3.601,3.601 1.054,0 1.999,-0.455 2.657,-1.177 l 11.723,5.329 c -0.005,0.013 -0.009,0.025 -0.015,0.037 l 0.056,0.019 c -0.054,0.348 -0.108,0.694 -0.108,1.055 0,1.954 0.813,3.716 2.115,4.975 l -0.017,0.013 c 0.004,0.005 0.008,0.01 0.012,0.014 l -5.973,8.802 c -0.155,-0.027 -0.314,-0.044 -0.478,-0.044 -1.479,0 -2.678,1.198 -2.678,2.678 0,1.479 1.199,2.678 2.678,2.678 1.479,0 2.678,-1.199 2.678,-2.678 0,-0.501 -0.14,-0.969 -0.38,-1.37 l 5.364,-7.904 0.71,-0.877 c 0.881,0.407 1.859,0.641 2.894,0.641 1.902,0 3.629,-0.771 4.883,-2.016 l 6.993,4.991 c -0.199,0.514 -0.334,1.06 -0.334,1.641 0,2.548 2.065,4.617 4.617,4.617 2.159,0 3.965,-1.483 4.471,-3.482 l 15.916,-4.923 c 0.977,1.815 2.893,3.05 5.099,3.05 1.273,0 2.447,-0.417 3.403,-1.114 l 7.12,6.611 c -0.038,0.193 -0.059,0.393 -0.059,0.597 0,1.734 1.406,3.14 3.14,3.14 1.734,0 3.139,-1.405 3.139,-3.14 0,-1.733 -1.405,-3.139 -3.139,-3.139 -0.707,0 -1.358,0.236 -1.883,0.631 L 71.77,65.526 c 0.552,-0.887 0.893,-1.93 0.893,-3.05 0,-2.815 -1.661,-5.16 -4.661,-5.677 V 39.104 c 1,-0.172 1.082,-0.478 1.513,-0.878 l 13.332,7.848 11.179,15.655 c -0.092,0.23 -0.146,0.481 -0.146,0.745 0,1.125 0.91,2.037 2.035,2.037 1.125,0 2.037,-0.912 2.037,-2.037 0,-1.125 -0.913,-2.037 -2.038,-2.037 -0.03,0 -0.06,0.003 -0.09,0.005 l -10.73,-15.02 9.931,-8.459 c 0.54,0.347 1.182,0.55 1.872,0.55 z M 61.07,62.474 c 0,0.21 0.013,0.416 0.035,0.62 L 45.83,67.818 c -0.522,-1.975 -2.316,-3.435 -4.458,-3.435 -1.123,0 -2.114,0.451 -2.913,1.113 l -7.038,-5.022 c 0.447,-0.92 0.717,-1.93 0.717,-3.017 0,-1.492 -0.487,-2.871 -1.29,-3.999 l 8.233,-8.237 c 0.686,0.401 1.438,0.694 2.291,0.694 1.642,0 3.079,-0.857 3.897,-2.147 l 17.222,14.914 c -0.882,1.017 -1.421,2.34 -1.421,3.792 z M 66,56.797 c -1,0.1 -1.135,0.273 -1.596,0.502 L 46.044,41.453 c 0.002,-0.052 -0.023,-0.102 -0.023,-0.154 0,-1.485 -0.718,-2.802 -1.806,-3.646 l 5.799,-12.428 c 0.046,0.002 0.088,0.007 0.134,0.007 0.53,0 1.023,-0.147 1.449,-0.399 l 11.621,9.229 c -0.151,0.415 -0.113,0.861 -0.113,1.328 0,1.757 0.895,3.238 2.895,3.715 z"
             inkscape:connector-curvature="0" />
        </g>
      </svg>
    </g>
    <g
       id="g73"
       transform="matrix(1.0872,0,0,1.0872,1171.1187,398.79575)"
       class="svg-text svg-visible"
       style="opacity:1">
      <path
         id="path67"
         d="m -96.606445,107.49023 c 76.606445,-1 116.606445,-1 193.21289,0"
         style="fill:none"
         inkscape:connector-curvature="0" />
      <path
         id="path69"
         data-xmlspace="preserve"
         transform="translate(0,95.617676)"
         data-font-scale="contain"
         data-font-src="/Content/clientfonts/audiowide.woff"
         data-font="Audiowide"
         data-href=""
         data-dy="95.61767578125"
         data-dx="0"
         data-offset="0"
         data-side="left"
         data-letterspacing="0"
         data-font-size="100"
         data-text-anchor="middle"
         data-textpath="iAN"
         d="m -77.756445,-75.1 v 11.48 h -12.7 V -75.1 Z m 0,22.32 V 0 h -12.7 V -52.78 Z M 4.5123828,-63.62 V 0 h -12.69 V -17.19 H -52.807617 V 0 h -12.7 v -35.01 q 0,-7.67 2.64,-14.11 2.64,-6.45 7.33,-11.09 4.68,-4.63 11.08,-7.22 6.4,-2.59 13.96,-2.59 v 0 h 28.6199998 q 1.32000001,0 2.49000001,0.49 1.16999999,0.49 2.04999999,1.37 0.88,0.87 1.37,2.05 0.48,1.17 0.48,2.49 z m -57.3199998,28.61 v 5.13 H -8.1776172 V -57.32 H -30.497617 q -0.58,0 -2.46,0.17 -1.88,0.17 -4.35,0.85 -2.46,0.68 -5.2,2.1 -2.73,1.42 -5.03,3.91 -2.29,2.49 -3.78,6.22 -1.49,3.74 -1.49,9.06 z M 89.229648,-70.02 v 64.6 q 0,1.37 -0.51,2.54 -0.51,1.17 -1.37,2.03 -0.85,0.85 -2.02,1.34 -1.17,0.49 -2.49,0.49 v 0 q -1.17,0 -2.37,-0.44 -1.2,-0.44 -2.12,-1.42 v 0 l -46.39,-48.44 V 0 h -12.7 v -64.6 q 0,-1.95 1.1,-3.54 1.1,-1.59 2.81,-2.37 v 0 q 1.81,-0.73 3.71,-0.36 1.9,0.36 3.27,1.78 v 0 l 46.39,48.39 v -49.32 z"
         style="fill:url(#linearGradientSk5m910lk2e)"
         inkscape:connector-curvature="0" />
      <rect
         id="rect71"
         height="0"
         width="0"
         y="0"
         x="0" />
    </g>
  </g>
  <g
     id="g77"
     transform="translate(38.87727,-118.16031)">
    <rect
       x="0"
       y="0"
       width="0"
       height="0"
       style="stroke:#ff8800;stroke-width:1px"
       fill="rgba(255,136,0,0.1)"
       id="rect75" />
  </g>
  <g
     class="selector-part"
     id="g81"
     transform="translate(38.87727,-118.16031)">
    <rect
       x="0"
       y="0"
       width="0"
       height="0"
       style="stroke:#3399ff;stroke-width:1px"
       fill="rgba(168,202,236,0.5)"
       id="rect79" />
  </g>
</svg>
