<?xml version="1.0" encoding="UTF-8" standalone="no"?>
<!-- Created with Inkscape (http://www.inkscape.org/) -->

<svg
   xmlns:dc="http://purl.org/dc/elements/1.1/"
   xmlns:cc="http://creativecommons.org/ns#"
   xmlns:rdf="http://www.w3.org/1999/02/22-rdf-syntax-ns#"
   xmlns:svg="http://www.w3.org/2000/svg"
   xmlns="http://www.w3.org/2000/svg"
   xmlns:inkscape="http://www.inkscape.org/namespaces/inkscape"
   version="1.1"
   width="1052.5"
   height="746.25"
   id="svg2"
   xml:space="preserve"><metadata
     id="metadata8"><rdf:RDF><cc:Work
         rdf:about=""><dc:format>image/svg+xml</dc:format><dc:type
           rdf:resource="http://purl.org/dc/dcmitype/StillImage" /></cc:Work></rdf:RDF></metadata><defs
     id="defs6" /><g
     transform="matrix(1.25,0,0,-1.25,0,746.25)"
     id="g10"><path
       d="m 251.18,274.862 1.332,12.856 c 3.761,-2.911 11.89,-6.063 18.683,-6.063 7.278,0 9.219,3.641 9.219,6.672 0,5.094 -5.215,6.793 -11.16,8.613 -8.492,2.547 -17.469,5.336 -17.469,16.981 0,8.492 5.094,19.289 22.199,19.289 7.883,0 15.77,-2.305 19.047,-4.492 l -1.336,-12.856 c -3.031,3.031 -10.07,6.551 -16.621,6.551 -5.211,0 -10.066,-1.82 -10.066,-6.672 0,-5.824 6.187,-6.793 13.828,-8.977 8.125,-2.304 16.617,-6.066 16.617,-18.558 0,-7.403 -3.031,-17.832 -23.773,-17.832 -9.465,0 -16.985,2.183 -20.5,4.488"
       inkscape:connector-curvature="0"
       id="path12"
       style="fill:#3575c4;fill-opacity:1;fill-rule:nonzero;stroke:none" /><path
       d="m 409.359,271.585 0,32.633 c 0,11.281 -3.515,16.617 -12.007,16.617 -5.094,0 -8.614,-1.942 -11.403,-5.215 l 0,-44.035 -15.043,0 0,60.652 14.071,0 0.242,-3.637 c 3.519,2.547 8.613,4.61 13.347,4.61 18.922,0 25.832,-11.891 25.832,-28.992 l 0,-32.633 -15.039,0 z"
       inkscape:connector-curvature="0"
       id="path14"
       style="fill:#3575c4;fill-opacity:1;fill-rule:nonzero;stroke:none" /><path
       d="m 452.18,301.792 c 0,-11.282 4.246,-19.043 13.949,-19.043 9.703,0 15.285,7.761 15.285,19.043 0,11.281 -5.582,19.043 -15.285,19.043 -9.703,0 -13.949,-7.762 -13.949,-19.043 m 0.726,-27.293 0,-32.27 -15.039,0 0,90.008 13.102,0 1.211,-3.516 c 4.125,2.789 8.25,4.489 14.918,4.489 19.414,0 29.722,-14.438 29.722,-31.418 0,-16.985 -10.308,-31.418 -29.722,-31.418 -6.305,0 -10.188,1.457 -14.192,4.125"
       inkscape:connector-curvature="0"
       id="path16"
       style="fill:#3575c4;fill-opacity:1;fill-rule:nonzero;stroke:none" /><path
       d="m 550.926,308.827 24.5,0 c 0,5.457 -2.789,12.008 -10.914,12.008 -7.766,0 -12.133,-5.094 -13.586,-12.008 m -0.367,-10.192 c 1.699,-11.277 10.07,-15.886 18.074,-15.886 5.703,0 13.707,2.301 18.68,4.972 l 0.726,-12.738 c -4.609,-2.426 -11.641,-4.609 -20.258,-4.609 -21.953,0 -32.871,14.433 -32.871,31.418 0,16.859 10.434,31.418 29.113,31.418 15.286,0 26.688,-10.313 26.688,-26.325 0,-2.667 -0.363,-5.335 -0.969,-8.25 l -39.183,0 z"
       inkscape:connector-curvature="0"
       id="path18"
       style="fill:#3575c4;fill-opacity:1;fill-rule:nonzero;stroke:none" /><path
       d="m 508.246,355.05 c 0.004,-0.274 -0.09,-84.672 -0.09,-84.672 l 15.043,-0.02 0.094,84.692 -15.047,0 z"
       inkscape:connector-curvature="0"
       id="path20"
       style="fill:#3575c4;fill-opacity:1;fill-rule:nonzero;stroke:none" /><path
       d="m 345.23,288.62 18.399,43.617 -16.742,0 -9.821,-24.375 8.164,-19.242 z"
       inkscape:connector-curvature="0"
       id="path22"
       style="fill:#3575c4;fill-opacity:1;fill-rule:nonzero;stroke:none" /><path
       d="m 315.594,332.237 -16.742,0 25.246,-56.559 -13.481,-33.449 15.043,0 13.84,32.809 -23.906,57.199 z"
       inkscape:connector-curvature="0"
       id="path24"
       style="fill:#95d44d;fill-opacity:1;fill-rule:nonzero;stroke:none" /></g></svg>