<?xml version="1.0" encoding="UTF-8" standalone="no"?>
<!-- Created with Inkscape (http://www.inkscape.org/) -->

<svg
   xmlns:dc="http://purl.org/dc/elements/1.1/"
   xmlns:cc="http://creativecommons.org/ns#"
   xmlns:rdf="http://www.w3.org/1999/02/22-rdf-syntax-ns#"
   xmlns:svg="http://www.w3.org/2000/svg"
   xmlns="http://www.w3.org/2000/svg"
   xmlns:sodipodi="http://sodipodi.sourceforge.net/DTD/sodipodi-0.dtd"
   xmlns:inkscape="http://www.inkscape.org/namespaces/inkscape"
   width="150mm"
   height="150mm"
   viewBox="0 0 531.49606 531.49606"
   id="svg3455"
   version="1.1"
   inkscape:version="0.91 r13725"
   sodipodi:docname="logo.svg"
   inkscape:export-filename="E:\Love\Silver Moon Art &amp; Design\Clients\DCD17\clojure logo.png"
   inkscape:export-xdpi="300"
   inkscape:export-ydpi="300">
  <defs
     id="defs3457">
    <path
       sodipodi:nodetypes="cc"
       inkscape:connector-curvature="0"
       id="path4379-6"
       d="m 150.84945,364.78504 c 36.10757,-15.21707 141.42135,-39.73266 233.00852,2.69374"
       style="opacity:1;fill:none;fill-opacity:1;stroke:#bebcf2;stroke-width:0.77700001;stroke-linecap:round;stroke-linejoin:round;stroke-miterlimit:4;stroke-dasharray:none;stroke-opacity:1" />
  </defs>
  <sodipodi:namedview
     id="base"
     pagecolor="#ffffff"
     bordercolor="#666666"
     borderopacity="1.0"
     inkscape:pageopacity="0.0"
     inkscape:pageshadow="2"
     inkscape:zoom="1"
     inkscape:cx="0.81373"
     inkscape:cy="165.42479"
     inkscape:document-units="px"
     inkscape:current-layer="layer1"
     showgrid="false"
     inkscape:window-width="1920"
     inkscape:window-height="1137"
     inkscape:window-x="-8"
     inkscape:window-y="-8"
     inkscape:window-maximized="1" />
  <metadata
     id="metadata3460">
    <rdf:RDF>
      <cc:Work
         rdf:about="">
        <dc:format>image/svg+xml</dc:format>
        <dc:type
           rdf:resource="http://purl.org/dc/dcmitype/StillImage" />
        <dc:title></dc:title>
      </cc:Work>
    </rdf:RDF>
  </metadata>
  <g
     inkscape:label="Layer 1"
     inkscape:groupmode="layer"
     id="layer1"
     transform="translate(0,-520.86614)">
    <g
       style="font-style:normal;font-weight:normal;font-size:114.57311249px;line-height:125%;font-family:sans-serif;letter-spacing:0px;word-spacing:0px;fill:#90b4fe;fill-opacity:1;stroke:none;stroke-width:1px;stroke-linecap:butt;stroke-linejoin:miter;stroke-opacity:1"
       id="text4448-3-6"
       transform="translate(-86.267025,295.57063)" />
    <path
       inkscape:connector-curvature="0"
       style="opacity:1;fill:#ffffff;fill-opacity:1;stroke:none;stroke-width:2.41248775;stroke-linecap:butt;stroke-linejoin:round;stroke-miterlimit:4;stroke-dasharray:none;stroke-opacity:1"
       d="M 527.30338,786.6142 A 261.55537,264.54175 0 0 1 265.74802,1051.1559 261.55537,264.54175 0 0 1 4.1926509,786.6142 261.55537,264.54175 0 0 1 265.74802,522.07245 261.55537,264.54175 0 0 1 527.30338,786.6142 Z"
       id="path4167" />
    <path
       style="color:#000000;font-style:normal;font-variant:normal;font-weight:normal;font-stretch:normal;font-size:medium;line-height:normal;font-family:sans-serif;text-indent:0;text-align:start;text-decoration:none;text-decoration-line:none;text-decoration-style:solid;text-decoration-color:#000000;letter-spacing:normal;word-spacing:normal;text-transform:none;direction:ltr;block-progression:tb;writing-mode:lr-tb;baseline-shift:baseline;text-anchor:start;white-space:normal;clip-rule:nonzero;display:inline;overflow:visible;visibility:visible;opacity:1;isolation:auto;mix-blend-mode:normal;color-interpolation:sRGB;color-interpolation-filters:linearRGB;solid-color:#000000;solid-opacity:1;fill:#90b4fe;fill-opacity:1;fill-rule:nonzero;stroke:none;stroke-width:3;stroke-linecap:butt;stroke-linejoin:round;stroke-miterlimit:4;stroke-dasharray:none;stroke-dashoffset:0;stroke-opacity:1;color-rendering:auto;image-rendering:auto;shape-rendering:auto;text-rendering:auto;enable-background:accumulate"
       d="m 265.74803,520.86614 c -145.08094,0 -262.7480239,119.0106 -262.7480239,265.74803 0,146.73743 117.6670939,265.74803 262.7480239,265.74803 145.08091,0 262.74802,-119.0106 262.74803,-265.74803 0,-146.73743 -117.66709,-265.74801 -262.74803,-265.74803 z m 0,5.26234 c 142.26906,2e-5 257.54511,116.59224 257.54511,260.48569 -2e-5,143.89345 -115.27607,260.48573 -257.54511,260.48573 -142.26905,0 -257.5450926,-116.59228 -257.5450926,-260.48573 0,-143.89345 115.2760226,-260.48569 257.5450926,-260.48569 z"
       id="path4135"
       inkscape:connector-curvature="0" />
    <g
       style="stroke:none;stroke-width:0.20398211;stroke-miterlimit:4;stroke-dasharray:none"
       transform="matrix(1.6927241,0,0,1.6968706,-1462.0064,-204.01282)"
       id="g4651">
      <path
         d="m 940.45916,572.04626 c -3.63329,-3.9425 -8.73535,-5.79779 -14.06932,-5.79779 -11.44098,0 -19.17137,8.03961 -19.17137,19.32598 0,11.28638 7.885,19.09408 19.17137,19.09408 5.33398,0 10.28143,-1.62338 13.91471,-5.64318 l -4.94745,-4.94746 c -2.31912,2.70564 -5.02476,4.09711 -8.88995,4.09711 -7.18927,0 -11.82751,-5.56588 -11.82751,-12.44594 0,-6.88005 3.8652,-12.98706 11.44098,-12.98706 3.8652,0 6.57084,1.39147 9.12187,4.09711 l 5.25667,-4.79285 z"
         style="font-style:normal;font-variant:normal;font-weight:600;font-stretch:normal;font-size:114.57311249px;line-height:125%;font-family:'Avenir LT Std';-inkscape-font-specification:'Avenir LT Std Semi-Bold';letter-spacing:0px;word-spacing:0px;fill:#90b4fe;fill-opacity:1;stroke:none;stroke-width:0.20398211;stroke-linecap:butt;stroke-linejoin:miter;stroke-miterlimit:4;stroke-dasharray:none;stroke-opacity:1"
         id="path4439-3"
         inkscape:connector-curvature="0" />
      <path
         d="m 948.18013,603.74089 6.95735,0 0,-58.44179 -6.95735,0 0,58.44179 z"
         style="font-style:normal;font-variant:normal;font-weight:600;font-stretch:normal;font-size:114.57311249px;line-height:125%;font-family:'Avenir LT Std';-inkscape-font-specification:'Avenir LT Std Semi-Bold';letter-spacing:0px;word-spacing:0px;fill:#90b4fe;fill-opacity:1;stroke:none;stroke-width:0.20398211;stroke-linecap:butt;stroke-linejoin:miter;stroke-miterlimit:4;stroke-dasharray:none;stroke-opacity:1"
         id="path4441-8"
         inkscape:connector-curvature="0" />
      <path
         d="m 970.50383,585.41985 c 0,-7.42118 4.63823,-12.75516 12.05942,-12.75516 7.42117,0 12.05941,5.33398 12.05941,12.75516 0,7.42118 -4.63824,12.75515 -12.05941,12.75515 -7.42118,0 -12.05942,-5.33397 -12.05942,-12.75515 z m -7.42118,0 c 0,10.66795 8.58074,19.24868 19.4806,19.24868 10.89985,0 19.48055,-8.58073 19.48055,-19.24868 0,-10.66795 -8.5807,-19.24869 -19.48055,-19.24869 -10.89986,0 -19.4806,8.58074 -19.4806,19.24869 z"
         style="font-style:normal;font-variant:normal;font-weight:600;font-stretch:normal;font-size:114.57311249px;line-height:125%;font-family:'Avenir LT Std';-inkscape-font-specification:'Avenir LT Std Semi-Bold';letter-spacing:0px;word-spacing:0px;fill:#90b4fe;fill-opacity:1;stroke:none;stroke-width:0.20398211;stroke-linecap:butt;stroke-linejoin:miter;stroke-miterlimit:4;stroke-dasharray:none;stroke-opacity:1"
         id="path4443-2"
         inkscape:connector-curvature="0" />
      <path
         d="m 1013.7815,567.09881 -5.8751,41.58952 c -0.6184,4.63824 -2.3191,7.11197 -6.107,7.11197 -0.9277,0 -1.93261,-0.30921 -2.78295,-0.61843 l -1.62339,6.41622 c 1.39148,0.54114 2.78294,0.69574 4.32904,0.69574 11.1318,0 12.6005,-9.50838 13.0644,-13.29627 l 5.9524,-41.89875 -6.9574,0 z m 0.2319,-13.14167 c -0.4638,2.78294 1.5461,5.10206 4.329,5.10206 2.783,0 5.4113,-2.31912 5.8751,-5.10206 0.3866,-2.78294 -1.6233,-5.10206 -4.4063,-5.10206 -2.7829,0 -5.4113,2.31912 -5.7978,5.10206 z"
         style="font-style:oblique;font-variant:normal;font-weight:600;font-stretch:normal;font-size:114.57311249px;line-height:125%;font-family:'Avenir LT Std';-inkscape-font-specification:'Avenir LT Std Semi-Bold Oblique';letter-spacing:0px;word-spacing:0px;fill:#90b4fe;fill-opacity:1;stroke:none;stroke-width:0.20398211;stroke-linecap:butt;stroke-linejoin:miter;stroke-miterlimit:4;stroke-dasharray:none;stroke-opacity:1"
         id="path4445-7"
         inkscape:connector-curvature="0" />
      <path
         d="m 1061.7986,567.09881 -6.9574,0 0,18.86217 c 0,8.50343 -4.4063,12.21402 -10.2041,12.21402 -4.4063,0 -8.3488,-2.55103 -8.3488,-9.43108 l 0,-21.64511 -6.9574,0 0,23.57771 c 0,9.74029 6.1843,13.99201 13.2963,13.99201 5.6432,0 10.2814,-2.70564 12.0594,-6.57083 l 0.1546,0 0,5.64319 6.9574,0 0,-36.64208 z"
         style="font-style:normal;font-variant:normal;font-weight:600;font-stretch:normal;font-size:114.57311249px;line-height:125%;font-family:'Avenir LT Std';-inkscape-font-specification:'Avenir LT Std Semi-Bold';letter-spacing:0px;word-spacing:0px;fill:#90b4fe;fill-opacity:1;stroke:none;stroke-width:0.20398211;stroke-linecap:butt;stroke-linejoin:miter;stroke-miterlimit:4;stroke-dasharray:none;stroke-opacity:1"
         id="path4447-4"
         inkscape:connector-curvature="0" />
      <path
         d="m 1072.3615,603.74089 6.9573,0 0,-18.39835 c 0,-8.03961 3.7106,-11.7502 10.5133,-11.7502 1.0823,0 2.2419,0.23191 3.4014,0.54113 l 0.3092,-7.49848 c -0.9276,-0.30922 -2.0099,-0.46383 -3.0921,-0.46383 -4.561,0 -9.1992,2.70564 -10.9772,6.57084 l -0.1546,0 0,-5.64319 -6.9573,0 0,36.64208 z"
         style="font-style:normal;font-variant:normal;font-weight:600;font-stretch:normal;font-size:114.57311249px;line-height:125%;font-family:'Avenir LT Std';-inkscape-font-specification:'Avenir LT Std Semi-Bold';letter-spacing:0px;word-spacing:0px;fill:#90b4fe;fill-opacity:1;stroke:none;stroke-width:0.20398211;stroke-linecap:butt;stroke-linejoin:miter;stroke-miterlimit:4;stroke-dasharray:none;stroke-opacity:1"
         id="path4449-6"
         inkscape:connector-curvature="0" />
      <path
         d="m 1134.1708,587.97088 0,-2.47373 c 0,-9.43108 -4.9475,-19.32599 -17.8572,-19.32599 -10.9772,0 -18.9395,8.27153 -18.9395,19.24869 0,10.89986 7.2666,19.24868 18.8622,19.24868 7.0346,0 12.3686,-2.47373 16.2338,-7.49848 l -5.2567,-4.01981 c -2.7056,3.32407 -5.7978,5.48858 -10.0495,5.48858 -6.4162,0 -12.3686,-4.25171 -12.3686,-10.66794 l 29.3755,0 z m -29.3755,-5.56588 c 0,-4.87016 4.4836,-10.66795 11.3637,-10.66795 7.0346,0 10.436,4.56093 10.5906,10.66795 l -21.9543,0 z"
         style="font-style:normal;font-variant:normal;font-weight:600;font-stretch:normal;font-size:114.57311249px;line-height:125%;font-family:'Avenir LT Std';-inkscape-font-specification:'Avenir LT Std Semi-Bold';letter-spacing:0px;word-spacing:0px;fill:#90b4fe;fill-opacity:1;stroke:none;stroke-width:0.20398211;stroke-linecap:butt;stroke-linejoin:miter;stroke-miterlimit:4;stroke-dasharray:none;stroke-opacity:1"
         id="path4451-8"
         inkscape:connector-curvature="0" />
    </g>
    <path
       id="path3545-7-2-4-4-6-4-1-3-5-8"
       d="m 44.011546,882.65261 c 36.216835,85.66104 121.900664,145.87359 221.846614,145.87419 99.94656,10e-5 185.62936,-60.21286 221.84661,-145.87419 l -443.693224,0 z"
       style="display:inline;fill:#5b53a3;fill-opacity:1;fill-rule:evenodd;stroke:none;stroke-width:0.20572819;stroke-linecap:butt;stroke-linejoin:miter;stroke-miterlimit:4;stroke-dasharray:none;stroke-opacity:1"
       inkscape:connector-curvature="0" />
    <path
       sodipodi:nodetypes="ccccssccsccccccccccccssccccssccccccccccccccc"
       inkscape:connector-curvature="0"
       id="path3545-7-2-4-4-6-4-1-3-1"
       d="m 43.791271,882.65261 8.195609,17.36581 c 8.539168,16.32549 18.939183,31.54685 30.930843,45.38904 l 0,-38.16855 18.239927,0 c 26.17101,0 48.17937,12.41342 48.17937,38.95566 0,20.48634 -9.6036,31.97628 -24.5134,37.36803 8.98598,6.42346 18.43532,12.25291 28.29793,17.4195 17.08366,-11.26255 28.33508,-29.18722 28.33508,-53.26248 0,-38.42168 -20.6744,-58.16579 -51.09324,-65.06701 z m 177.992419,0 -55.89003,124.54139 c 10.77422,4.8572 21.9758,8.9497 33.53356,12.2116 l 10.6338,-26.03532 62.82053,0 14.53208,34.14352 10.74985,-1.1449 c 18.60042,-2.4846 36.51993,-7.0756 53.51487,-13.5107 l 0,-47.90245 35.29314,-53.46445 c 0.78479,31.8812 37.43151,19.07608 37.43151,37.02215 0,6.96015 -2.47511,13.69335 -9.84637,13.69335 -7.51601,0 -14.12037,-3.32663 -20.10579,-9.32467 l -16.07558,17.62623 c 7.67915,6.84394 16.93603,12.79062 26.83362,14.06212 18.40833,-11.85174 38.27717,-31.90769 51.04025,-48.68828 -10.30509,-18.86962 -40.13662,-15.15705 -40.13662,-30.38302 0,-7.37774 6.13819,-8.43383 12.49775,-8.43383 5.49235,0 13.02024,3.75495 16.63371,8.2095 l 15.46542,-19.67949 c -1.26714,-1.07801 -2.59302,-2.05011 -3.95866,-2.94275 l -88.97779,0 -32.96704,52.9248 -31.10495,-52.9248 z m 40.65682,0.73121 55.48835,81.57193 0,41.27225 z m -21.53922,32.53574 19.87682,48.4056 -39.52379,0 z"
       style="display:inline;fill:#9981eb;fill-opacity:1;fill-rule:evenodd;stroke:none;stroke-width:0.20572819;stroke-linecap:butt;stroke-linejoin:miter;stroke-miterlimit:4;stroke-dasharray:none;stroke-opacity:1" />
    <path
       inkscape:connector-curvature="0"
       style="display:inline;fill:#a84a3d;fill-opacity:1;fill-rule:evenodd;stroke:none;stroke-width:0.29633275;stroke-linecap:butt;stroke-linejoin:miter;stroke-miterlimit:4;stroke-dasharray:none;stroke-opacity:1"
       d="M 44.011563,690.57579 C 80.228415,604.91474 165.91224,544.70227 265.85816,544.70161 c 99.94658,-1.2e-4 185.62938,60.21284 221.84663,145.87418 l -443.693227,0 z"
       id="path3545-7-2-4-4-6-4-1-3-9-8-0" />
    <path
       style="display:inline;opacity:1;fill:#de8051;fill-opacity:1;fill-rule:evenodd;stroke:none;stroke-width:0.29633275;stroke-linecap:butt;stroke-linejoin:miter;stroke-miterlimit:4;stroke-dasharray:none;stroke-opacity:1"
       d="m 265.36118,544.70608 c -17.155,0.0324 -33.25541,1.73841 -49.38778,5.14254 l 0.26809,87.39986 c 0,18.51751 -13.25942,32.56704 -31.38124,32.56704 -18.34279,0 -31.60415,-14.04953 -31.60415,-32.56704 l 0,-64.9664 c -12.15172,6.37078 -23.67739,13.7476 -34.4762,22.00579 l 0,16.67261 c -4.04323,-2.39342 -8.54998,-4.25383 -13.3967,-5.64177 -5.961869,5.2813 -11.659614,10.84523 -17.060482,16.68381 15.938382,1.68354 25.063372,10.49952 25.063372,27.36131 0,21.8454 -11.97207,29.30678 -32.400222,29.30678 l -11.411581,0 0,-33.68735 c -8.427605,11.74986 -15.799605,24.28924 -21.978005,37.4843 l -3.572444,8.10823 71.605402,0 c 6.0539,-3.29309 11.29717,-7.61406 15.31218,-12.96064 3.89949,5.07542 8.74289,9.43565 14.48561,12.96064 l 78.7364,0 c 17.54609,-10.80339 26.55194,-29.59337 26.55194,-52.04826 l 0,-64.4476 9.26624,0 0,116.49586 34.47619,0 0,-116.49586 35.66728,0 c -17.83495,12.03011 -28.7855,31.85057 -28.7855,57.046 0,26.95324 12.53152,47.75638 32.61877,59.44986 l 87.85636,0 0,-26.50114 36.07793,0 0,26.50114 29.72377,0 -6.01806,-13.19319 c -5.944,-11.93722 -12.87583,-23.30842 -20.6894,-34.0116 l -39.09424,0 0,-33.1149 -27.08885,0 0,47.98441 -0.87531,1.49676 c -6.25397,9.03487 -12.83447,14.30678 -25.14698,14.30678 -22.08429,0 -35.70179,-18.07209 -35.70179,-42.91812 0,-24.84588 13.61766,-42.91363 36.67926,-42.91363 11.33519,0 20.12889,3.9523 26.18743,10.91681 l 13.1857,-7.70797 c -15.64753,-11.48163 -32.7555,-21.13341 -51.00498,-28.62474 -6.7813,1.32013 -13.1333,3.3927 -18.9504,6.16726 l 0,-13.02547 c -22.95933,-7.24637 -47.41818,-11.18443 -72.80423,-11.23211 z"
       id="path3545-7-2-4-4-6-4-1-3-9-3"
       inkscape:connector-curvature="0"
       sodipodi:nodetypes="cccsscccccssccccccccsccccccscccccccccccccsssccccccc" />
  </g>
</svg>
