<?xml version="1.0" standalone="no"?>
<!DOCTYPE svg PUBLIC "-//W3C//DTD SVG 20010904//EN"
 "http://www.w3.org/TR/2001/REC-SVG-20010904/DTD/svg10.dtd">
<svg version="1.0" xmlns="http://www.w3.org/2000/svg"
 width="1600.000000pt" height="303.000000pt" viewBox="0 0 1600.000000 303.000000"
 preserveAspectRatio="xMidYMid meet">
<metadata>
Created by potrace 1.15, written by Peter Selinger 2001-2017
</metadata>
<g transform="translate(0.000000,303.000000) scale(0.100000,-0.100000)"
fill="#000000" stroke="none">
<path d="M1085 1524 c-319 -553 -581 -1009 -583 -1014 -2 -6 33 -10 86 -10
l89 0 494 856 494 857 3 -126 3 -126 -421 -728 -420 -728 87 -3 c47 -2 90 1
94 5 4 4 154 262 333 572 l326 565 0 -131 0 -131 -250 -433 c-137 -238 -250
-436 -250 -441 0 -4 39 -8 88 -8 l87 1 160 279 160 278 3 -125 3 -126 -86
-148 c-47 -82 -85 -151 -85 -154 0 -3 301 -5 670 -5 369 0 670 3 670 7 0 11
-1163 2023 -1169 2023 -4 0 -267 -453 -586 -1006z"/>
<path d="M6941 2260 c-180 -25 -311 -89 -437 -215 -79 -78 -98 -104 -137 -185
-62 -129 -79 -208 -79 -350 2 -399 263 -692 660 -740 164 -20 355 18 492 97
86 51 207 171 258 258 69 118 94 209 100 360 4 111 1 144 -17 215 -82 329
-343 543 -687 563 -49 3 -118 2 -153 -3z m218 -255 c255 -67 413 -331 357
-595 -53 -254 -255 -413 -501 -397 -100 6 -178 35 -258 95 -234 179 -261 550
-56 767 112 119 300 172 458 130z"/>
<path d="M10219 2261 c-311 -44 -542 -252 -620 -561 -18 -72 -21 -104 -17
-220 4 -112 10 -148 32 -215 80 -237 266 -413 503 -476 108 -29 306 -29 415
-1 123 33 226 92 326 186 l53 50 -83 83 c-45 46 -86 83 -91 83 -5 0 -29 -18
-55 -39 -113 -95 -231 -141 -359 -141 -222 1 -409 162 -458 395 -18 88 -18
132 0 219 23 107 66 189 137 260 182 181 450 182 670 2 l56 -46 63 73 c35 39
74 84 87 99 l24 26 -69 57 c-82 68 -181 118 -283 144 -88 22 -251 33 -331 22z"/>
<path d="M8508 2244 c-135 -32 -250 -119 -305 -231 -26 -54 -28 -67 -28 -178
0 -104 3 -127 23 -170 58 -127 165 -191 445 -265 174 -47 253 -80 294 -122 25
-26 28 -37 28 -93 0 -80 -19 -109 -100 -150 -53 -26 -69 -30 -150 -29 -138 0
-276 51 -393 143 -28 23 -53 41 -56 41 -10 0 -157 -181 -154 -190 6 -20 125
-101 203 -140 119 -58 209 -80 356 -87 148 -7 241 10 341 60 162 81 248 254
218 441 -28 177 -130 265 -392 342 -309 90 -342 103 -382 157 -29 39 -29 125
0 164 93 126 329 117 536 -20 30 -20 58 -37 61 -37 7 0 137 186 137 197 0 14
-129 94 -199 124 -135 56 -350 76 -483 43z"/>
<path d="M11781 2232 c-7 -13 -565 -1286 -617 -1409 l-14 -33 137 0 138 0 74
175 74 175 336 -2 335 -3 72 -170 71 -170 143 -3 c78 -1 140 1 138 6 -1 5
-145 334 -318 730 l-315 722 -122 0 c-106 0 -124 -2 -132 -18z m250 -592 l117
-270 -240 0 c-133 0 -238 4 -236 9 33 88 233 540 237 536 2 -3 57 -127 122
-275z"/>
<path d="M3340 1515 l0 -725 545 0 545 0 0 120 0 120 -415 0 -415 0 0 185 0
185 360 0 360 0 0 120 0 120 -360 0 -360 0 0 180 0 180 410 0 410 0 0 120 0
120 -540 0 -540 0 0 -725z"/>
<path d="M4747 2228 c6 -7 119 -167 252 -356 150 -212 239 -347 235 -355 -8
-12 -490 -692 -507 -714 -7 -10 23 -13 145 -13 l154 0 186 271 187 270 48 -69
c26 -37 111 -159 187 -270 l140 -202 154 0 c120 0 153 3 149 13 -2 7 -116 169
-251 360 -136 191 -249 354 -252 361 -3 7 105 168 240 357 135 189 246 347
246 352 0 4 -67 7 -149 7 l-149 0 -165 -237 c-91 -131 -172 -246 -179 -256
-13 -17 -30 4 -188 237 l-175 256 -158 0 c-126 0 -157 -3 -150 -12z"/>
<path d="M13020 1515 l0 -725 510 0 510 0 0 120 0 120 -380 0 -380 0 0 605 0
605 -130 0 -130 0 0 -725z"/>
<path d="M14410 1515 l0 -725 545 0 545 0 0 120 0 120 -415 0 -415 0 0 185 0
185 365 0 365 0 0 120 0 120 -365 0 -365 0 0 180 0 180 410 0 410 0 0 120 0
120 -540 0 -540 0 0 -725z"/>
</g>
</svg>
