<?xml version="1.0" encoding="UTF-8" standalone="no"?>
<!-- Created with Inkscape (http://www.inkscape.org/) -->
<svg xmlns:dc="http://purl.org/dc/elements/1.1/" xmlns:cc="http://creativecommons.org/ns#" xmlns:rdf="http://www.w3.org/1999/02/22-rdf-syntax-ns#" xmlns:svg="http://www.w3.org/2000/svg" xmlns="http://www.w3.org/2000/svg" xmlns:sodipodi="http://sodipodi.sourceforge.net/DTD/sodipodi-0.dtd" xmlns:inkscape="http://www.inkscape.org/namespaces/inkscape" width="500" height="79.080002" viewBox="0 0 499.99998 79.080003" id="svg8292" version="1.1" inkscape:version="0.91 r13725" sodipodi:docname="vakantie discounter double horizontal logo.svg">
  <defs id="defs8294"/>
  <sodipodi:namedview id="base" pagecolor="#ffffff" bordercolor="#666666" borderopacity="1.0" inkscape:pageopacity="0.0" inkscape:pageshadow="2" inkscape:zoom="2.8" inkscape:cx="243.90141" inkscape:cy="51.452128" inkscape:document-units="px" inkscape:current-layer="layer1" showgrid="false" inkscape:window-width="1920" inkscape:window-height="1137" inkscape:window-x="-8" inkscape:window-y="-8" inkscape:window-maximized="1" showguides="true" inkscape:guide-bbox="true" units="px"/>
  <metadata id="metadata8297">
    <rdf:RDF>
      <cc:Work rdf:about="">
        <dc:format>image/svg+xml</dc:format>
        <dc:type rdf:resource="http://purl.org/dc/dcmitype/StillImage"/>
        <dc:title/>
      </cc:Work>
    </rdf:RDF>
  </metadata>
  <g inkscape:label="Layer 1" inkscape:groupmode="layer" id="layer1" transform="translate(0,-973.28215)">
    <g id="g4150" transform="matrix(1.0086509,0,0,1.0086509,-6.6687828e-4,95.122524)">
      <g transform="matrix(0.26462938,0,0,0.26462938,260.31221,690.6806)" id="g8897">
        <path style="color:#000000;font-style:normal;font-variant:normal;font-weight:normal;font-stretch:normal;font-size:medium;line-height:normal;font-family:sans-serif;text-indent:0;text-align:start;text-decoration:none;text-decoration-line:none;text-decoration-style:solid;text-decoration-color:#000000;letter-spacing:normal;word-spacing:normal;text-transform:none;direction:ltr;block-progression:tb;writing-mode:lr-tb;baseline-shift:baseline;text-anchor:start;white-space:normal;clip-rule:nonzero;display:inline;overflow:visible;visibility:visible;opacity:1;isolation:auto;mix-blend-mode:normal;color-interpolation:sRGB;color-interpolation-filters:linearRGB;solid-color:#000000;solid-opacity:1;fill:#ffffff;fill-opacity:1;fill-rule:nonzero;stroke:#cccccc;stroke-width:1;stroke-linecap:butt;stroke-linejoin:round;stroke-miterlimit:4;stroke-dasharray:none;stroke-dashoffset:0;stroke-opacity:1;color-rendering:auto;image-rendering:auto;shape-rendering:auto;text-rendering:auto;enable-background:accumulate" d="m 373.95703,680.52734 c -5.3664,0.0471 -8.43787,-0.43449 -14.62891,1.22461 l -2.8125,0.75391 c -5.98813,1.6059 -10.15174,7.03269 -10.15234,13.23242 l 0,33.08399 c -3.24338,-3.10444 -7.02169,-5.7157 -11.13672,-7.73633 -6.31725,-3.102 -13.46546,-5.97266 -30.16406,-5.97266 -14.07599,0 -22.36367,2.09583 -28.06836,3.99024 -1.11297,0.36959 -2.1576,0.79522 -3.22656,1.20117 0.51863,-1.72242 1.21692,-3.95827 1.60547,-5.3086 0.45178,-1.57012 0.80756,-2.85186 1.09375,-4.00781 0.14309,-0.57797 0.26833,-1.09358 0.40625,-1.85742 0.069,-0.38192 0.14845,-0.80044 0.21484,-1.61133 0.0664,-0.81089 1.04035,-1.20171 -0.86914,-6.17773 -1.11396,-2.90295 -4.56664,-6.83902 -7.57422,-8.36719 -3.00758,-1.52817 -5.1372,-1.77202 -7.12305,-2.01172 -3.97169,-0.4794 -8.05797,-0.46484 -15.09765,-0.46484 -4.68402,0 -8.98952,0.10924 -12.42383,0.30859 -1.71715,0.0997 -3.17556,0.20981 -4.65234,0.40234 -0.73839,0.0963 -1.43549,0.1862 -2.58399,0.47071 -0.57425,0.14225 -1.24476,0.29898 -2.44336,0.8164 -1.19859,0.51743 -3.40111,0.67216 -6.36914,5.47461 -1.67484,2.70994 -1.23489,2.51024 -1.38476,2.9375 -0.14988,0.42726 -0.24552,0.73753 -0.34766,1.07032 -0.20427,0.66556 -0.40737,1.37696 -0.64648,2.23437 -0.44653,1.60114 -1.02059,3.75296 -1.66211,6.19336 -0.49002,-1.96037 -0.94473,-3.75286 -1.31641,-5.12305 -0.21077,-0.777 -0.3983,-1.44546 -0.60156,-2.10937 -0.20326,-0.66392 0.11003,-0.55414 -1.24805,-3.15821 -1.04024,-1.99465 -4.15787,-5.60933 -7.29883,-7.14843 -3.14096,-1.5391 -5.46358,-1.76011 -7.62304,-1.96094 -4.31893,-0.40166 -9.0041,-0.2835 -17.63282,-0.12695 l -0.002,0 -19,0.3457 c -7.0419,0.12883 -12.83907,5.5755 -13.40625,12.5957 l -0.25195,3.125 0,0.004 c -0.27874,3.46704 0.12892,3.52505 0.26367,4.23828 0.13475,0.71323 0.27073,1.27953 0.42383,1.89453 0.30619,1.23 0.68777,2.59817 1.16797,4.24805 0.61781,2.12271 1.63413,5.33639 2.55273,8.28125 -2.39378,-1.82958 -4.90169,-3.55128 -7.64258,-5.01758 -6.30134,-3.37105 -14.28006,-4.90625 -25.48437,-4.90625 -10.20984,0 -19.097417,1.51942 -28.677738,6.40625 -5.391279,2.75003 -10.174416,6.36728 -14.279296,10.60352 0.212677,-8.49943 0.462785,-15.68381 0.695312,-20.81836 0.205023,-4.52724 0.381057,-7.82976 0.472656,-10.35352 0.0458,-1.26188 0.07744,-2.30541 0.05273,-3.47266 -0.0247,-1.16724 1.047047,-1.31967 -1.375,-6.63281 -1.964854,-4.31018 -5.244883,-6.37242 -7.38086,-7.38281 -2.135976,-1.01039 -3.674245,-1.30883 -5.02539,-1.53906 -2.702291,-0.46046 -4.764669,-0.4565 -6.88086,-0.44336 -4.232979,0.0263 -8.501597,0.33211 -11.46875,0.35351 -3.287076,0.0237 -6.982191,-0.10023 -10.515625,-0.0508 -1.766716,0.0247 -3.460068,0.0674 -5.513672,0.34766 -2.053603,0.28024 -4.641045,-0.71052 -9.933593,4.58203 -5.069467,5.0695 -5.134538,10.20674 -5.390625,14.25977 -0.256087,4.05303 -0.226563,8.90543 -0.226563,16.52343 l 0,2.7793 c -1.5163484,0.10551 -3.033306,0.0789 -4.566406,0.2793 -6.19927516,0.81039 -12.3202216,2.38559 -18.146484,5.55664 -18.049485,9.82376 -27.257813,30.41231 -27.257813,52.61133 0,12.40597 2.522713,23.82139 8.761719,33.24023 4.395553,6.63583 10.551811,11.79864 17.677734,15.66602 -0.785633,0.12955 -1.809514,0.20997 -2.544922,0.34765 -1.830056,0.34262 -3.485126,0.7021 -5.121093,1.16016 -1.635968,0.45806 -2.909918,0.53385 -6.050782,2.59179 l -2.83789,1.85938 c -3.888451,2.54809 -6.219556,6.8941 -6.191406,11.54297 l 0.326171,53.38476 0.326172,53.38282 c 0.03253,5.24227 3.053453,10.00645 7.78125,12.27148 l 3.435547,1.64649 c 4.853427,2.32582 6.401141,2.05542 9.69336,2.5996 3.292218,0.54419 7.0332233,0.99837 10.8066401,1.28711 23.6801269,1.81199 43.6434259,-0.6528 59.6464839,-9.23046 7.739928,-4.14862 14.246079,-9.90211 19.376954,-16.79297 0.06956,2.57509 0.132406,5.24721 0.240234,7.14843 0.07691,1.35606 0.15583,2.50067 0.300781,3.71289 0.07248,0.60612 0.143809,1.20074 0.353516,2.15235 0.209706,0.95161 -1.147818,1.61457 3.330078,6.59961 3.339316,3.71746 4.851395,3.52443 5.867187,3.87695 1.015793,0.35252 1.592539,0.46742 2.09961,0.57031 1.014142,0.2058 1.678138,0.27908 2.392578,0.35547 1.42888,0.15278 2.910808,0.24458 4.654297,0.32617 3.486977,0.16319 7.887808,0.25 12.634758,0.25 7.61483,0 11.91997,0.0674 16.18164,-0.42773 2.13084,-0.24758 4.50681,-0.57994 7.50391,-2.11914 2.9971,-1.5392 5.9358,-4.8191 7.11133,-7.01563 0.0277,-0.0518 0.0296,-0.0683 0.0566,-0.11914 5.30232,4.22531 11.59491,7.22311 18.66797,9.2461 6.5583,1.87575 14.09445,2.78121 21.0625,2.8457 14.98968,0.13867 28.20681,-2.7323 38.59961,-10.04883 4.38241,-3.08521 8.00165,-7.12579 10.78711,-11.70898 0.22107,0.31835 0.4028,0.65588 0.63085,0.9707 6.68564,9.22924 16.4025,15.00846 27.38086,18.43945 11.49553,3.59263 23.55528,3.03835 34.53907,-0.19336 10.43918,-3.07147 20.15425,-8.67303 26.84179,-17.74804 0.66832,0.35315 1.36471,0.65038 2.08204,0.88867 l 0.37695,0.41602 c 1.14861,6.37436 6.60395,11.07365 13.07812,11.26562 l 0.47852,0.29102 c 2.89709,5.79271 9.45464,8.76557 15.7207,7.12695 l 0.53906,0.14453 c 4.41199,4.74153 11.54145,5.74605 17.0918,2.4082 l 0.56055,-0.0137 c 5.56899,3.3052 12.69159,2.25999 17.07617,-2.50586 l 0.5332,-0.16992 c 6.27376,1.60233 12.81274,-1.40607 15.67774,-7.21289 l 0.46679,-0.3125 c 6.4728,-0.22995 11.9004,-4.96098 13.01173,-11.3418 l 0.35742,-0.43164 c 1.17332,-0.38707 2.28891,-0.93106 3.31641,-1.61719 l 0.95899,1.44922 0.002,0.002 c 7.00378,10.57657 18.26459,15.76872 30.9082,18.4375 4.00812,0.84612 6.75644,0.82643 10.99219,0.95898 4.23574,0.13255 9.11861,0.14562 13.88475,0.01 12.02882,-0.34287 21.45063,-1.31796 29.68555,-3.94141 5.40181,-1.72088 10.47093,-4.6747 14.50977,-8.59375 0.26299,0.89269 -0.26345,2.07804 3.46679,5.80859 3.32278,3.32257 4.7064,3.13434 5.69141,3.44922 0.98501,0.31488 1.55333,0.41625 2.05469,0.50782 1.00271,0.18313 1.674,0.24601 2.39648,0.31054 1.44497,0.12907 2.95655,0.19793 4.73438,0.25 3.55564,0.10415 8.04704,0.11287 12.90234,0.0137 l 16.94727,-0.3457 c 3.13674,-0.0679 6.15514,-1.21035 8.55078,-3.23633 2.14946,1.61363 4.21505,2.22953 5.61914,2.60742 2.21912,0.59726 3.87493,0.7406 5.73243,0.8711 3.71497,0.26099 8.13544,0.24184 14.57421,0.10742 l 16.77931,-0.34961 c 7.39944,-0.15481 13.33855,-6.15791 13.41405,-13.55859 l 0.0625,-6.16016 c 3.8545,8.47556 10.63213,15.34458 19.31055,19.28711 6.15579,2.79652 12.56575,3.5095 19.86523,3.53125 8.90841,0.0265 16.50987,-0.8184 23.61329,-4.15625 4.54967,-2.13786 8.81975,-6.4977 11.44921,-11.62891 6.94845,6.74934 15.54706,11.68911 25.22656,14.11524 7.02114,1.75977 12.43147,1.46108 19.32422,1.2539 10.05096,-0.30208 17.16926,-2.05512 25.13867,-6.12304 4.42904,-2.26077 8.36878,-4.87957 11.77149,-7.97852 0.15743,0.48663 0.10449,0.55716 0.38086,1.27735 1.3011,3.39062 5.2136,7.23772 8.15039,8.57421 2.93678,1.3365 4.93247,1.53152 6.92187,1.75 3.97881,0.43698 8.33465,0.44336 15.71094,0.44336 7.37631,0 11.73226,-0.006 15.71095,-0.44336 1.98934,-0.21852 3.98479,-0.41296 6.92187,-1.75 2.93706,-1.33703 6.84813,-5.18576 8.14844,-8.57421 1.91281,-4.9846 0.93369,-3.91429 1.00977,-4.79102 0.0761,-0.87673 0.12742,-1.77012 0.17773,-2.82617 0.10063,-2.11211 0.18346,-4.81567 0.25391,-8.04492 0.14088,-6.45851 0.22656,-14.96808 0.22656,-24.09375 0,-4.27608 0.0835,-5.00045 0.10351,-8.26758 0.37886,0.17537 0.69669,0.42901 1.08789,0.58789 7.3143,2.97051 15.96115,2.00742 22.67579,-1.46484 4.12246,-2.1318 8.65755,-6.03274 11.07617,-10.97071 2.41861,-4.93797 2.84375,-9.77142 2.84375,-14.49804 -2e-5,-10.09431 -6.02133,-21.25872 -14.63672,-26.49805 -10.38443,-6.31517 -21.65487,-6.86274 -33.63672,-6.72266 -9.9847,0.11674 -20.09757,1.3673 -28.98242,3.81836 -4.44243,1.22553 -8.5774,2.70941 -12.52539,4.97266 -3.61446,2.07205 -7.5496,4.93424 -10.08008,10.32422 -4.40333,-5.44951 -9.95832,-10.01807 -16.53125,-13.25391 -7.98688,-3.93194 -15.15325,-5.52502 -25.125,-5.48437 -13.40447,0.0547 -25.74271,3.17725 -35.72852,10.0996 -1.81609,1.25896 -3.4216,2.76391 -5.03906,4.25196 -0.86935,-6.53946 -6.27538,-11.53096 -12.86328,-11.87696 l -1.56641,-0.082 c 10e-4,-0.1718 -0.006,-0.42002 -0.004,-0.58203 0.0154,-1.55426 0.28933,-3.84373 -0.004,-1.74218 0.63954,-4.58332 0.1887,-9.2563 -2.32812,-13.86329 -0.54589,-0.99923 -1.32437,-1.99306 -2.17383,-2.95703 0.69022,0.18279 1.32667,0.513 2.02734,0.66016 11.31303,2.37594 22.13839,2.26498 33.42578,-2.45117 2.09291,-0.87448 4.02967,-1.99015 5.85157,-3.26758 2.02911,1.39663 4.00009,1.83745 5.19336,2.17773 2.25493,0.64304 3.8624,0.79795 5.72851,0.96094 3.73223,0.32598 8.27839,0.40234 14.83789,0.40234 7.58768,0 11.95165,0.009 16.00781,-0.44921 2.02809,-0.22921 4.1307,-0.43934 7.17383,-1.92383 3.04313,-1.48449 6.668,-5.51247 7.80469,-8.47461 1.06195,-2.76745 0.80476,-2.98156 0.88477,-3.59961 0.048,-0.37053 0.0666,-0.65008 0.0937,-0.95313 6.04714,6.78927 13.75316,12.01694 22.5039,15.02539 7.22615,2.48434 14.57406,2.89974 22.31836,2.82422 7.7443,-0.0755 15.01167,-0.59895 22.20703,-3.29297 16.73242,-6.26476 29.87891,-20.27679 29.87891,-38.16015 0,-3.7439 -0.52472,-7.66901 -2.62891,-11.68555 -0.38647,-0.73772 -0.91612,-1.45189 -1.4375,-2.16406 1.17698,-1.53936 2.24408,-3.22174 2.82227,-4.94727 1.38621,-4.137 1.24414,-6.92816 1.24414,-10.08008 0,-18.48341 -10.25414,-35.50301 -26.6582,-43.90234 -8.51299,-4.35887 -17.86773,-5.71033 -27.25586,-5.57617 -12.07041,0.17249 -24.22167,2.70697 -34.36524,9.65234 -3.34192,2.28824 -6.21534,4.99704 -8.80859,7.9375 -0.0641,-0.49961 -0.13698,-1.02541 -0.45313,-2.23437 -0.1947,-0.74455 -0.52041,-2.70682 -2.39843,-5.4707 -0.26515,-0.39022 -0.72594,-0.67578 -1.04883,-1.04688 6.68536,-9.57536 5.55695,-22.61644 -2.66211,-31.36523 -7.09169,-7.54878 -16.36462,-9.8932 -25.11524,-9.85938 -8.74934,0.0338 -17.8994,2.47755 -25.09179,9.66992 -6.83771,6.83771 -8.68547,17.47025 -5.75977,25.71485 -0.23619,-0.032 -0.569,-0.12866 -0.80664,-0.15821 -0.35439,-0.0441 -0.76655,-0.0249 -1.125,-0.0605 l 0.0254,0.91992 c -0.0105,-0.35321 -0.0286,-0.58417 -0.0391,-0.92188 -0.0137,-0.3164 0.0391,0.92188 -0.0137,-0.3164 -0.13368,-4.20504 -0.2827,-7.40059 -0.85352,-10.59961 -0.63147,-3.53898 -2.64135,-9.38745 -7.86914,-12.67578 -3.75254,-2.36043 -7.14703,-2.50186 -9.48437,-2.41797 -6.97503,0.25049 -10.7326,2.17591 -19.13868,5.29101 -4.25857,1.57813 -8.26528,3.20199 -11.53125,4.66016 -1.63298,0.72908 -3.06273,1.40126 -4.41797,2.11914 -0.67761,0.35894 -1.32765,0.71736 -2.125,1.23047 -0.79734,0.51311 -1.5926,0.67253 -3.71874,3.23437 -3.65483,4.40379 -3.31192,6.0055 -3.86133,8.19336 -0.1395,0.5555 -0.14881,1.16209 -0.26172,1.72071 -4.14352,0.54145 -7.81345,2.94419 -9.9668,6.52539 -3.64953,-2.53409 -7.73946,-4.55403 -12.11914,-6.08008 -7.23122,-2.51964 -14.63066,-3.07617 -30.52539,-3.07617 -21.97405,0 -35.57299,0.938 -46.82031,8.51757 l -0.002,0.002 -3.96093,2.66992 c -1.63379,1.10781 -3.00892,2.55555 -4.03125,4.24414 -3.55921,-4.35838 -7.97224,-7.79776 -12.99805,-10.37695 -3.35637,-1.72245 -7.35713,-3.35688 -11.70703,-4.16211 -4.3499,-0.80523 -8.67541,-1.00995 -15.20508,-1.25781 -1.91886,-0.0729 -3.80974,-0.10833 -5.67383,-0.10352 -13.93116,0.0355 -25.93348,2.03058 -35.91601,7.10742 -1.88941,0.9609 -3.63766,2.26813 -5.37305,3.57617 -2.54301,-3.69129 -6.08267,-5.58567 -8.46484,-6.39257 -2.73317,-0.9258 -4.75704,-1.11796 -6.76368,-1.28711 -4.01266,-0.33825 -7.99815,-0.28072 -12.9082,-0.38086 l -0.002,0 -16.97656,-0.34766 c -3.56292,-0.0674 -7.01191,1.25603 -9.61524,3.68945 -0.0245,-8.14128 0.005,-17.04708 -0.25976,-20.98437 -0.19457,-2.88847 -0.26831,-5.16636 -1.64063,-8.6582 -1.37232,-3.49185 -5.92017,-7.64879 -7.63476,-8.56641 -5.0738,-2.71541 -5.5337,-1.85197 -7.32618,-2.08203 -1.79248,-0.23006 -3.66746,-0.37948 -5.72656,-0.5 -4.1182,-0.24104 -8.87753,-0.34203 -13.34961,-0.30274 z m -206.62891,97.44141 15.39649,45.03516 c 1.71608,5.02031 6.17626,8.59865 11.44922,9.18554 l 5.625,0.625 c 5.03117,0.55902 11.41436,0.53931 17.4082,0.28711 4.04494,-0.17019 6.93209,-0.29104 10.42188,-1.10351 3.48978,-0.81247 9.47788,-3.91343 12,-8.96875 1.46891,-2.94427 1.92762,-4.5961 3.21093,-8.17578 0.87409,-2.43817 2.06149,-5.91165 3.19532,-9.20704 0.26092,1.56525 0.58254,3.13784 1.18945,4.84766 1.38303,3.89639 3.98262,7.26405 6.0918,9.48242 6.19116,6.5117 14.57574,10.91391 24.08398,13.26367 10.42958,2.57745 22.76766,2.64311 34.9375,1.76172 12.16984,-0.88139 22.35742,-1.52316 32.29688,-7.39453 1.18736,-0.70141 2.73222,-1.82029 4.30859,-3.21484 0.39778,0.87713 0.79651,1.76249 1.55664,2.80469 1.96369,2.69234 6.01483,5.04879 8.28516,5.64257 4.29745,1.12305 6.12315,0.90955 9.4414,1.03321 3.31826,0.12366 7.09111,0.15072 10.82032,0.0996 3.7292,-0.0511 7.37052,-0.1775 10.49023,-0.39454 1.55985,-0.10851 2.96985,-0.23356 4.39453,-0.43164 1.42468,-0.19807 1.7974,0.56205 6.42774,-1.91601 1.35463,-0.72499 3.87707,-2.82951 5.73437,-5.32031 0.52132,0.68865 1.18321,1.45914 2.83008,2.84179 3.13334,2.63063 8.29452,4.42548 12.30273,4.89649 4.00822,0.471 8.29024,0.49804 15.1211,0.49804 4.58016,0 8.94708,-0.0856 12.46679,-0.23437 1.75986,-0.0744 3.29149,-0.16198 4.66993,-0.28125 1.37813,-0.11925 0.76528,0.76373 5.75781,-1.15234 1.92787,-0.7398 4.35768,-2.64403 6.39258,-5.05079 7.33062,4.21955 15.9931,6.70451 25.70507,7.73243 13.53192,1.43221 26.93363,0.7653 38.28907,-1.56641 5.67771,-1.16586 10.83293,-2.70303 15.58984,-5.08984 1.94348,-0.97516 3.93485,-2.16323 5.83398,-3.62305 1.96862,3.77741 5.58211,6.42437 9.77735,7.16211 l 3.65625,0.63867 0.006,0 c 3.26494,0.56888 5.26675,0.51862 8.36914,0.58594 3.10238,0.0673 6.64707,0.0664 10.14062,0.01 3.49355,-0.0567 6.90313,-0.16647 9.78321,-0.33398 1.44004,-0.0838 2.73291,-0.1793 3.98437,-0.31641 1.25147,-0.1371 1.54421,0.26495 5.20703,-1.14062 1.64733,-0.63213 2.98554,-1.56609 4.13672,-2.5625 0.5658,0.42747 0.95268,0.81218 1.71484,1.2832 4.81379,2.9752 4.67257,1.86774 5.50196,2.00781 0.82939,0.14008 1.45541,0.20694 2.13476,0.27344 1.35871,0.133 2.84221,0.22918 4.57618,0.31445 3.46793,0.17056 7.84728,0.28409 12.53125,0.31641 6.49874,0.0448 10.81555,0.0155 14.55859,-0.33008 1.87152,-0.17281 3.60297,-0.36303 5.93555,-1.11328 2.33257,-0.75025 6.05669,-2.39202 8.68554,-6.54297 3.38639,-5.34701 2.09035,-5.31062 2.25977,-6.45117 0.081,-0.54501 0.11433,-1.06234 0.16797,-1.57812 2.55108,4.29501 5.92688,7.98541 9.91015,10.91992 -5.72558,0.0691 -6.85513,1.13544 -10.16406,2.17968 -3.41906,1.07901 -7.26727,2.4533 -11.0625,3.91211 -3.79523,1.45882 -7.4875,2.9815 -10.61914,4.42579 -1.56582,0.72214 -2.97323,1.40893 -4.37891,2.19921 -1.40567,0.79028 -2.30873,0.16569 -5.86914,4.81641 -3.14697,4.11061 -3.13246,5.99269 -3.5625,8.19336 1.583,-0.12372 1.09296,-0.0834 -0.0137,0.0664 l -0.80661,0.17382 c -4.29561,0.98688 -7.85419,3.97998 -9.5625,8.04297 -2.67023,-2.02468 -5.517,-3.87837 -8.80078,-5.29101 -9.96875,-4.28844 -21.56894,-5.65241 -33.93945,-5.79297 -12.37114,-0.14058 -25.17953,1.19998 -36.46289,4.55078 -2.63947,0.78384 -5.5176,1.09022 -9.99805,3.77344 -1.36974,0.8203 -2.6461,2.01269 -3.85156,3.33203 -0.37545,-0.96068 -1.08274,-2.18043 -2.99805,-4.0957 -3.04494,-3.04493 -4.72149,-3.22549 -6.00781,-3.66211 -1.28632,-0.43663 -2.23444,-0.63467 -3.16211,-0.81055 -1.85535,-0.35177 -3.58115,-0.53441 -5.48047,-0.68945 -3.79864,-0.3101 -8.15188,-0.4357 -12.52734,-0.42774 -4.37546,0.008 -8.67845,0.14634 -12.41797,0.47461 -1.86976,0.16414 -3.54978,0.34984 -5.44532,0.74219 -0.94776,0.19617 -1.92935,0.4095 -3.39062,0.97851 -0.84712,0.32987 -2.05913,0.63347 -3.52539,1.70508 -1.31531,-0.94193 -2.4382,-1.30087 -3.26172,-1.64062 -1.50388,-0.62045 -2.5413,-0.86224 -3.53125,-1.07813 -1.9799,-0.43177 -3.7161,-0.62735 -5.63281,-0.79687 -3.83343,-0.33905 -8.19616,-0.45757 -12.625,-0.42969 -4.42847,0.0279 -8.81944,0.20216 -12.6836,0.58594 -1.93207,0.19189 -3.69467,0.41172 -5.63671,0.84179 -0.97103,0.21504 -1.97803,0.46005 -3.35743,1.00391 -1.37939,0.54387 -3.3229,0.93307 -6.21679,4.41992 l -0.002,0.002 c -2.71771,3.27603 -2.76549,4.93998 -3.10742,6.29687 -0.19056,0.75622 -0.2456,1.32858 -0.3457,1.95703 -1.80993,-5.46888 -6.84735,-9.22158 -12.60547,-9.39062 l -0.47852,-0.29102 c -2.89708,-5.79271 -9.45464,-8.76557 -15.7207,-7.12695 l -0.53906,-0.14453 c -4.41199,-4.74153 -11.54144,-5.74606 -17.0918,-2.40821 l -0.56055,0.0137 c -5.56898,-3.3052 -12.69158,-2.25999 -17.07617,2.50585 l -0.5332,0.16993 c -6.27438,-1.60336 -12.81451,1.4052 -15.67969,7.21289 l -0.46484,0.31247 c -6.47279,0.22995 -11.90039,4.96097 -13.01172,11.34179 -0.0918,0.74024 -0.30274,0.41407 -0.0918,0.74024 -0.0698,-0.10936 -0.13989,-0.21766 -0.21094,-0.32617 -0.0183,0.006 -0.0365,0.013 -0.0547,0.0195 l -0.008,-0.11914 c -1.88344,-2.85542 -4.03333,-5.51628 -6.60351,-7.64649 -7.09356,-5.87924 -16.00675,-9.2867 -26.08594,-10.99023 -3.64684,-0.61637 -7.295,-0.94969 -10.90625,-1.00586 -15.63643,-0.24326 -30.8147,4.3953 -41.67773,14.9375 -2.03437,1.97429 -3.80281,4.13003 -5.44922,6.35937 -0.69442,-1.42612 -1.31729,-2.88464 -2.25195,-4.19726 -5.14921,-7.23141 -12.12568,-10.5803 -19.52149,-13.08399 -7.3958,-2.50368 -15.56893,-3.80729 -23.99805,-3.95507 -5.62105,-0.0985 -11.34317,0.33508 -16.97851,1.44531 -10.23083,2.01559 -19.21065,5.9953 -26.0918,12.41992 -0.30676,-1.13571 -0.58165,-2.55786 -2.73242,-5.19336 -0.0621,-0.0761 -0.19282,-0.17307 -0.25977,-0.25195 2.34556,-3.41805 4.30274,-7.31462 4.30274,-13.13672 0,-5.02927 -1.73484,-9.43864 -4.2461,-13.13867 1.04089,-0.32909 2.09388,-0.61882 3.11719,-1.00196 16.66347,-6.23895 29.87891,-20.04307 29.87891,-37.71679 0,-3.73788 -0.46392,-7.57829 -2.41797,-11.59766 -0.44665,-0.91874 -1.0337,-1.83557 -1.6875,-2.73047 0.49652,-0.73136 0.97333,-1.21473 1.42187,-2.03906 z m -95.326167,38.10937 c 3.753396,4.37476 8.256221,8.02946 13.265625,11.07618 -4.984754,4.43871 -8.458986,10.42962 -8.9375,16.99804 -0.279186,3.83232 0.644281,7.57048 2.123047,11.10157 -3.750064,-5.74344 -8.184898,-10.3872 -14.193359,-14.89063 -4.622774,-3.46482 -9.760666,-6.19742 -15.279297,-8.36133 0.157471,-0.0434 0.3316,-0.067 0.488281,-0.11133 5.339585,-1.50949 10.201026,-3.07616 15.154297,-7.5 l 0.002,-0.002 3.9375,-3.51562 c 1.481144,-1.32952 2.654845,-2.96578 3.439453,-4.79493 z" id="path8851" inkscape:connector-curvature="0" sodipodi:nodetypes="cccccssscssccssssccssscsscsssssccccccssscssscssssssssssssscsssscsssccccccssscssssscsssssccssscssscccccccccccccccccccscsccsssscccssccccssscssscsssscsscssscsssssssscssscccccscsscssscssccssssscssssscsscsssccccccsscssssssccssccccssccscsscccccssssccccssssscssssccscssssccsssssccsssccccsccsscccssscsscccsssssccccsssscsssssssscsssssssccsccccccccccccccccsssscsssscccscssscccccscscccccccc"/>
        <path style="opacity:1;fill:#0574b9;fill-opacity:1;stroke:none;stroke-width:27.39999962;stroke-linejoin:round;stroke-miterlimit:4;stroke-dasharray:none" d="m 374.13164,692.86791 c -4.99744,0.0439 -9.43809,0.28481 -11.20312,0.75781 l -2.8125,0.75391 0,61.63867 c 0,57.65133 0.14147,61.67431 2.1875,62.20899 4.43633,1.15934 29.30533,0.81829 31.64453,-0.4336 2.23001,-1.19348 2.41797,-2.79042 2.41797,-20.57421 l 0,-19.28126 9.40625,18.38672 c 5.17437,10.11343 10.58063,19.37305 12.01367,20.57618 2.18429,1.83384 5.1942,2.1875 18.61523,2.1875 8.8051,0 16.89914,-0.34246 17.98633,-0.75977 3.9125,-1.50136 1.7604,-6.69126 -11.84766,-28.56836 -7.60397,-12.22456 -13.56013,-22.86096 -13.23437,-23.63672 0.32576,-0.77575 5.79861,-8.05526 12.61719,-15.78515 18.31983,-20.7683 14.67207,-19.30582 -5.66211,-19.72071 l -16.97852,-0.34765 -11.45312,17.22265 -11.45313,17.22071 -0.006,-34.64454 c -0.005,-32.96881 -0.12092,-34.70607 -2.42187,-35.9375 -1.61188,-0.86265 -11.48733,-1.33686 -19.81641,-1.26367 z m -319.580073,1.42774 c -3.50736,0.0218 -7.80198,0.32716 -11.45508,0.35351 -7.3062,0.0527 -15.03058,-0.47723 -16.375,0.86719 -1.60965,1.60966 -1.60547,5.85719 -1.60547,21.0957 l 0,18.59571 -3.86524,-1.34571 c -6.28004,-2.18923 -18.7196303,-0.56297 -25.9980403,3.39844 -12.5062997,6.80678 -20.1074197,22.14545 -20.1074197,40.57813 0,21.18221 8.41817,33.89041 26.6132797,40.17773 14.4348603,4.98798 45.7780603,1.95641 53.7929703,-5.20313 l 3.93945,-3.51757 0.34961,-55.86719 c 0.25574,-40.796 2.12864,-56.28421 1.44531,-57.7832 -0.50593,-1.10983 -3.22702,-1.37138 -6.73437,-1.34961 z m 700.550773,1.19531 c -5.8234,0.0225 -11.70968,1.91086 -15.45703,5.6582 -6.60183,6.60183 -2.65969,17.35797 7.47461,20.39063 7.85683,2.35114 16.96234,0.64238 22.65235,-4.25196 4.58663,-3.94525 4.77935,-11.60298 0.4082,-16.25585 -3.49415,-3.71936 -9.25472,-5.56353 -15.07813,-5.54102 z m -508.625,7.34766 c -8.9185,0 -16.48611,0.43896 -16.81836,0.97656 -0.79319,1.2834 -14.13896,54.43444 -15.29101,60.89844 l -0.89063,5 -1.08398,-5.625 c -2.774,-14.38992 -12.70915,-57.11489 -13.74219,-59.09571 -1.04426,-2.00236 -3.01959,-2.18597 -20.16015,-1.875 l -19,0.34571 -0.25196,3.125 c -0.13818,1.71875 8.01807,27.3125 18.125,56.875 l 18.37696,53.75 5.625,0.625 c 3.09375,0.34375 9.98635,0.44114 15.31835,0.21679 7.5399,-0.31724 9.92652,-0.87289 10.73829,-2.5 3.47379,-6.9628 36.71029,-108.96577 36.05859,-110.66406 -0.67461,-1.75802 -3.1184,-2.05273 -17.00391,-2.05273 z m 458.04688,1.79882 c -2.32784,0.0836 -6.73004,1.42843 -14.87109,4.44532 -8.00314,2.96578 -15.20762,6.1819 -16.00977,7.14843 -0.80216,0.96654 -1.59298,4.11365 -1.75586,6.99414 -0.16287,2.8805 -0.3458,5.62742 -0.4082,6.10352 -0.0624,0.47609 -2.50391,1.03859 -5.42578,1.25 l -5.3125,0.38477 -0.37891,7.29296 c -0.44285,8.54345 0.95201,10.83204 6.60352,10.83204 l 4.04492,0 0.62695,26.11914 c 0.57237,23.83995 0.8732,26.62762 3.45313,31.95703 3.27151,6.75803 9.56414,11.44841 17.63085,13.14258 7.10391,1.49195 19.73734,0.65237 25.32813,-1.6836 5.89496,-2.46308 9.11623,-7.40985 7.34961,-11.28711 -1.0329,-2.267 -2.62269,-3.04629 -7.28906,-3.57226 -3.69348,-0.4163 -6.59336,-1.52528 -7.60743,-2.91211 -1.22079,-1.66954 -1.63671,-8.55341 -1.63671,-27.00196 l 0,-24.76171 6.83007,0 c 9.01018,0 9.72192,-1.53522 8.25391,-17.8125 -0.0465,-0.51563 -3.43895,-0.9375 -7.53906,-0.9375 l -7.45508,0 -0.35742,-12.05469 c -0.28098,-9.46747 -0.7918,-12.32714 -2.37696,-13.32422 -0.37641,-0.23677 -0.92132,-0.35012 -1.69726,-0.32227 z m -399.4082,22.81641 c -12.99772,0 -18.45464,1.53449 -23.75,3.29297 -12.51849,4.15714 -18.75,10.24079 -18.75,18.30469 0,7.96437 5.58833,12.55067 15.25,12.51757 6.93474,-0.0238 10.88158,-2.08914 14.31835,-7.49804 4.45095,-7.00502 6.46432,-8.73242 10.18165,-8.73242 5.13112,0 6.5,2.15398 6.5,10.22656 0,8.12599 1.46087,7.08126 -14.4961,10.34375 -17.81405,3.64217 -29.47012,10.21383 -33.61719,18.95312 -1.56968,3.30786 -2.02005,6.71733 -1.65234,12.49219 0.42745,6.71295 1.07639,8.54177 4.19727,11.82422 4.5878,4.82532 9.38733,7.41146 17.44336,9.40234 15.1006,3.73178 47.66693,1.37352 56.97851,-4.12695 5.88667,-3.47742 6.30649,-6.2272 5.89844,-38.6875 l -0.37695,-29.99414 -3.375,-5.09375 c -2.32377,-3.50879 -5.63047,-6.2018 -10.625,-8.6543 -6.8839,-3.38024 -8.10488,-4.57031 -24.125,-4.57031 z m 524.98046,0.42383 c -9.89671,0.14143 -20.08056,2.64306 -26.82031,7.25781 -12.5778,8.61211 -17.43025,20.61139 -16.7207,41.3418 0.41357,12.08296 0.84556,14.12241 4.60156,21.75195 4.63844,9.422 12.74336,16.55239 22.70899,19.97852 8.49876,2.92186 27.02644,2.74108 35.26562,-0.34375 12.45384,-4.66283 20.98438,-14.9596 20.98438,-25.33008 0,-8.87716 -5.92738,-10.73619 -14.88282,-4.66797 -9.62434,6.52147 -18.99831,7.55512 -27.70117,3.05469 -3.8961,-2.01474 -8.0991,-7.94262 -6.5957,-9.30274 0.57964,-0.52439 10.60317,-2.45324 22.27539,-4.28515 11.67223,-1.8319 22.50035,-4.16785 24.0625,-5.19141 2.36221,-1.54777 2.8418,-2.97571 2.8418,-8.48437 0,-13.68352 -7.19119,-25.5566 -19.20313,-31.70704 -5.59438,-2.86447 -13.11896,-4.18226 -20.81641,-4.07226 z m -713.23242,0.0508 c -9.552,0 -14.17583,0.68799 -22.453123,4.91016 -10.03997,5.12128 -16.63336,12.84771 -19.94336,23.37109 -3.05571,9.71491 -2.17987,31.14156 1.61719,39.54297 4.89915,10.83992 11.3202,16.98512 22.5957,21.62304 9.495793,3.90589 26.952963,4.13812 36.701173,0.48829 12.66066,-4.74027 20.98438,-14.61217 20.98438,-24.88672 0,-9.33569 -5.74027,-11.30635 -14.88282,-5.11133 -9.69181,6.56717 -18.9918,7.55738 -27.86523,2.96875 -4.2155,-2.17992 -8.20093,-9.00537 -5.73438,-9.82227 0.88342,-0.29258 11.16993,-2.02173 22.85743,-3.84179 14.23142,-2.2162 22.01724,-3.9939 23.57617,-5.38282 1.97667,-1.7611 2.24297,-3.42042 1.75976,-11.0039 -0.86449,-13.56706 -6.95576,-22.48764 -20.1914,-29.56836 -4.41641,-2.36266 -8.62967,-3.28711 -19.02149,-3.28711 z m 389.13867,0.0684 c -24.98782,0.0637 -40.70596,7.96818 -40.84375,20.86133 -0.0869,8.12935 5.4358,12.74443 15.20704,12.71093 6.93474,-0.0238 10.88158,-2.08914 14.31835,-7.49804 4.34648,-6.84061 6.45045,-8.73242 9.7168,-8.73242 4.92115,0 6.96485,3.13529 6.96485,10.68945 0,6.01989 -0.30863,6.82074 -2.8125,7.29883 -23.9607,4.5751 -36.42427,9.66619 -42.69141,17.43945 -3.59373,4.45737 -3.87109,5.51186 -3.87109,14.61914 0,9.45814 0.1529,9.97281 4.22656,14.17578 5.7486,5.93105 14.20539,9.30353 26.61719,10.61719 24.15543,2.55661 49.29079,-2.60467 52.39062,-10.75781 0.76078,-2.00104 1.11391,-15.26873 0.88867,-33.48047 l -0.37304,-30.16602 -3.44336,-5.20117 c -2.22401,-3.35826 -5.76491,-6.3891 -10,-8.5625 -5.73213,-2.94166 -8.39602,-3.43481 -21.17579,-3.91992 -1.74638,-0.0663 -3.45328,-0.098 -5.11914,-0.0937 z m 100.36329,0.4668 c -21.19249,0 -32.68507,1.81348 -39.16407,6.17968 l -3.96093,2.66992 0,39.9375 0,39.9375 3.65625,0.63868 c 4.55945,0.79443 27.86182,0.41645 30.2246,-0.49024 1.4294,-0.5485 1.74415,-6.48716 1.74415,-32.93164 0,-27.17572 0.30617,-32.69885 1.94531,-35.03906 2.55898,-3.65344 9.87732,-3.87674 11.75976,-0.35938 0.79681,1.48888 1.29493,14.90736 1.29493,34.92579 0,19.7809 0.47672,32.80313 1.21875,33.26171 0.67068,0.41452 8.60631,0.80489 17.63476,0.86719 12.71636,0.0877 16.66266,-0.27653 17.51172,-1.61719 1.62448,-2.56501 1.39501,-63.23345 -0.26172,-69.23046 -1.82428,-6.60346 -9.22831,-13.52342 -17.58594,-16.43555 -5.36102,-1.86799 -10.38366,-2.31445 -26.01757,-2.31445 z m 158.32812,2.00976 c -2.47605,5.6e-4 -5.73678,0.0601 -10.04687,0.14453 l -17.65625,0.34571 -0.33008,41.86523 c -0.18135,23.02636 -0.0582,42.57324 0.27343,43.4375 0.44429,1.15775 5.18404,1.57227 18.00782,1.57227 15.00265,0 17.51495,-0.28368 18.19531,-2.05664 0.97657,-2.54496 0.86832,-79.01264 -0.11719,-82.78126 -0.52275,-1.99903 -0.89801,-2.52901 -8.32617,-2.52734 z m 63.06445,15.16211 c 4.43913,-0.0318 8.17931,4.16815 8.82032,10.91602 0.40433,4.25644 0.30542,4.35746 -5.21289,5.26757 -3.09375,0.51023 -7.45313,1.25406 -9.6875,1.6543 -3.9445,0.70657 -4.0625,0.60284 -4.0625,-3.62109 0,-6.06261 1.84099,-10.27508 5.55859,-12.71094 1.54652,-1.01332 3.10428,-1.49526 4.58398,-1.50586 z m -714.66992,0.15234 c 3.07252,0.0593 6.84528,1.87441 8.08008,4.18165 0.66256,1.23801 1.39811,4.19386 1.63672,6.56835 0.42539,4.23331 0.3262,4.33649 -5.18945,5.26368 -3.09375,0.52007 -7.45313,1.27163 -9.6875,1.67187 -3.99803,0.71617 -4.0636,0.65335 -4.0586,-4.01562 0.005,-5.45004 3.69874,-12.2888 7.24414,-13.41407 0.59491,-0.18881 1.26557,-0.26955 1.97461,-0.25586 z m -91.613283,4.55079 3.64063,0 0,24.86523 c 0,21.52166 -0.26723,24.96832 -1.97852,25.625 -4.12866,1.58432 -6.37051,0.19648 -9.45898,-5.85742 -2.93746,-5.7579 -4.4774403,-21.68291 -3.0293,-31.33985 1.1194,-7.46466 5.86563,-13.29296 10.82617,-13.29296 z m 489.890633,27.22851 0,11.13477 c 0,6.99428 -0.55784,11.69456 -1.5,12.63672 -1.79478,1.79478 -7.05646,1.90039 -9.96875,0.20117 -1.15156,-0.6719 -2.72708,-3.13653 -3.5,-5.47852 -2.52853,-7.6615 2.55538,-15.44158 11.53125,-17.64844 z m -204.81641,0.27149 c 2.07813,0 2.31641,1.1261 2.31641,11 0,6.88889 -0.5606,11.5606 -1.5,12.5 -2.08039,2.08039 -7.40791,1.87406 -10.67188,-0.41211 -3.53153,-2.47359 -4.82972,-9.3085 -2.63477,-13.87305 1.90809,-3.96803 9.01971,-9.21484 12.49024,-9.21484 z m -198.28906,53.625 c -3.3341,-0.0313 -6.74054,0.54854 -9.896483,1.86718 -10.38912,4.34085 -11.2527,16.18919 -1.60743,22.07032 5.046613,3.07715 16.831013,3.28019 22.912113,0.39453 4.19243,-1.98945 7.94727,-7.16767 7.94727,-10.96094 0,-7.67903 -9.35319,-13.27733 -19.35547,-13.37109 z m -95.636723,6.82421 c -4.2335203,0.0219 -8.6643303,0.25779 -13.28515032,0.70899 -8.72253998,0.85172 -15.99279968,2.21288 -17.66210968,3.30664 l -2.83789,1.85937 0.32617,53.38477 0.32617,53.38281 3.4375,1.64649 c 1.891,0.90619 8.9222497,2.06913 15.6249997,2.58203 44.1817503,3.38076 69.5037403,-10.19261 75.9726603,-40.72071 3.50543,-16.54288 1.5105,-36.36824 -4.89454,-48.63867 -4.07148,-7.79995 -6.30425,-10.41237 -13.53515,-15.83203 -10.47364,-7.85012 -25.12739,-11.77468 -43.47266,-11.67969 z m 662.011723,2.05079 c -4.34548,0 -29.89537,9.82105 -31.70703,12.1875 -0.85938,1.12253 -1.5625,4.43069 -1.5625,7.35351 l 0,5.31445 -5.3125,0.38477 -5.3125,0.38477 -0.36915,8.36328 c -0.32414,7.36843 -0.0626,8.5287 2.20118,9.74023 1.41326,0.75636 3.26756,1.28358 4.11914,1.17383 4.61737,-0.59538 4.67383,-0.32501 4.67383,22.53516 0,12.34117 0.61695,25.32406 1.37304,28.8496 1.64121,7.6527 7.07059,14.37375 14.24024,17.63086 3.37125,1.53153 8.03024,2.28619 14.24023,2.30469 15.4598,0.046 23.89649,-3.91862 23.89649,-11.22851 0,-4.1798 -2.83871,-6.24414 -8.58008,-6.24414 -7.31184,0 -7.66992,-1.35251 -7.66992,-28.83985 l 0,-24.91015 3.59375,0 c 1.97656,0 5.37408,-0.35568 7.55078,-0.79102 l 3.95703,-0.79297 -0.36328,-8.89453 -0.36328,-8.89648 -7.1875,-0.375 -7.1875,-0.375 -0.14844,-7.75 c -0.0814,-4.26257 -0.0391,-8.52873 0.0937,-9.48047 0.58821,-4.21546 -1.28557,-7.64453 -4.17578,-7.64453 z m -300.30078,18.65429 -7.28516,7.20703 -7.33203,-7.15625 -4.96094,8.9668 -9.05273,-4.80078 -2.23243,10 -10.03906,-2.05664 0.67578,10.22656 -10.21093,0.85547 3.52734,9.61914 -9.55664,3.69922 6.09766,8.23633 -8.12891,6.24023 8.16992,6.18555 -6.04101,8.27734 9.58203,3.63281 -3.46289,9.64454 10.21679,0.78711 -0.60742,10.22851 10.02539,-2.12305 2.30078,9.98438 9.01953,-4.86133 5.02149,8.9336 7.28515,-7.20704 7.33204,7.15625 4.96093,-8.96484 9.05274,4.79883 2.23242,-10 10.03906,2.05664 -0.67578,-10.22461 10.21094,-0.85742 -3.52735,-9.61914 9.55665,-3.69922 -6.09766,-8.23633 8.1289,-6.24023 -8.16992,-6.18555 6.03907,-8.27734 -9.58008,-3.63282 3.46289,-9.64453 -10.2168,-0.78711 0.60742,-10.22851 -10.02539,2.12304 -2.30078,-9.98437 -9.01953,4.86133 z m -355.949223,0.32617 c 3.84544,-0.0507 11.05454,3.12744 13.30859,6.17579 3.69168,4.99258 5.8807,16.53912 5.90235,31.14257 0.0238,16.08889 -2.43037,26.66204 -7.33594,31.60547 -4.36154,4.3952 -13.06315,6.06955 -14.33398,2.75781 -0.44675,-1.16418 -0.81055,-17.55808 -0.81055,-36.42968 0,-29.16789 0.27611,-34.41694 1.85156,-35.02149 0.38784,-0.14882 0.86862,-0.22322 1.41797,-0.23047 z m 822.603513,3.81055 c -17.74553,0.20748 -37.02681,4.75464 -39.67383,11.7168 -1.29583,3.40832 -1.69908,73.98815 -0.4414,77.26562 0.6411,1.67068 3.43149,1.97657 17.99219,1.97657 14.5607,0 17.34913,-0.30594 17.99023,-1.97657 0.41731,-1.08747 0.75977,-16.76931 0.75977,-34.84765 0,-27.20977 0.31197,-33.13001 1.81445,-34.37696 2.8401,-2.35708 6.74804,-0.3135 9.41992,4.92383 4.7206,9.25313 12.09389,12.24727 20.03906,8.13867 4.82224,-2.49367 6.51368,-5.94681 6.51368,-13.29882 -1e-5,-6.96127 -2.38797,-11.34564 -8.05665,-14.79297 -5.61542,-3.41495 -15.7101,-4.853 -26.35742,-4.72852 z m -565.22851,0.0605 c -12.62809,-0.19646 -24.41285,3.78116 -31.92383,11.07031 -15.91088,15.441 -17.71281,47.81662 -3.73438,67.11328 3.9735,5.48525 12.05892,10.80264 20.3711,13.40039 16.61935,5.19394 38.59486,-1.27182 47.04492,-13.84179 3.55704,-5.29129 7.07357,-15.5739 2.59766,-19.9668 -4.14017,-4.06339 -8.46107,-2.21294 -14.63086,2.49805 -4.77453,3.64561 -6.76649,4.375 -11.94727,4.375 -5.52437,0 -6.74153,-0.52667 -10.93164,-4.7168 -5.54314,-5.54312 -7.47438,-11.48895 -7.48438,-23.05274 -0.0153,-18.4536 9.71533,-24.92088 16.31055,-10.83984 3.71086,7.92286 7.62802,11.10938 13.66406,11.10938 10.88308,0 16.26954,-4.68286 16.26954,-14.14649 0,-10.98318 -10.12496,-19.37433 -26.76954,-22.1875 -2.96175,-0.50058 -5.92176,-0.76912 -8.83593,-0.81445 z m -92.92578,0.0586 c -4.73611,-0.083 -9.53454,0.29201 -14.08985,1.18945 -19.71386,3.88386 -29.04262,14.97316 -26.10547,31.03516 1.69054,9.24486 9.14164,16.10037 23.10157,21.25586 16.08607,5.94067 21.77749,10.5038 20.01757,16.04883 -2.21109,6.96651 -9.68532,5.59536 -15.49023,-2.8418 -3.93615,-5.721 -5.37028,-6.69003 -12.40234,-8.375 -8.80317,-2.10935 -17.75,3.7219 -17.75,11.56836 0,9.46364 7.85257,17.12509 21.57812,21.05078 4.28814,1.22646 12.12759,2.26936 17.42188,2.31836 26.13396,0.24177 41.56335,-10.62009 41.59765,-29.28515 0.025,-13.62243 -6.41638,-20.35122 -26.92578,-28.12891 -17.2723,-6.55009 -22.48126,-12.41275 -16.13476,-18.15625 3.52206,-3.18743 8.30057,-1.31362 12.52734,4.91016 4.0858,6.0162 8.95518,8.66206 15.94726,8.66406 10.66517,0.004 15.75367,-10.91084 9.30664,-19.96485 -4.75413,-6.67657 -18.3913,-11.03995 -32.5996,-11.28906 z m 392.37304,0.041 c -11.1868,-0.12712 -22.9952,1.18959 -32.40625,3.98437 -12.02663,3.57153 -11.43554,1.20057 -11.43554,45.98047 0,21.54168 0.38836,39.55629 0.86523,40.0332 0.47687,0.47684 8.49249,0.7119 17.8125,0.52149 l 16.94727,-0.3457 0.625,-34.16602 c 0.58505,-31.98148 0.77944,-34.27825 3.05078,-35.9375 3.36351,-2.45709 6.50659,-2.2141 9.44922,0.72852 2.36948,2.36949 2.49947,4.18042 2.51757,34.6875 0.0105,17.70313 0.47665,32.90693 1.03516,33.7871 0.76161,1.2002 5.20947,1.51271 17.79297,1.25 l 16.7793,-0.3496 0.34961,-34.375 c 0.19294,-18.90625 0.0447,-35.62981 -0.33008,-37.16407 -1.14145,-4.67318 -7.78071,-11.12192 -14.3711,-13.95703 -6.92823,-2.98044 -17.49483,-4.55062 -28.68164,-4.67773 z m 172.4336,0.21679 c -22.70687,0.0927 -37.50598,10.35175 -43.20313,29.94922 -3.12017,10.73305 -2.08833,28.97328 2.16406,38.26172 5.67467,12.39511 15.13914,20.31152 28.19532,23.58399 2.58093,0.64688 9.59319,1.02962 15.58203,0.84961 9.59115,-0.28827 11.89373,-0.84099 19.32226,-4.63282 5.78851,-2.9547 9.55414,-5.90143 12.00586,-9.39648 10.90933,-15.5518 3.40212,-27.89596 -10.85351,-17.84766 -4.70444,3.31599 -7.24884,4.16618 -13.6875,4.57617 -9.11027,0.5801 -14.1104,-1.37533 -18.20313,-7.12304 -1.4292,-2.00712 -2.59765,-3.90699 -2.59765,-4.22071 0,-0.31372 10.21385,-2.17897 22.69921,-4.14453 14.35414,-2.25976 23.6095,-4.30675 25.16993,-5.57031 1.9472,-1.57675 2.43407,-3.41903 2.31445,-8.72852 -0.33833,-15.01726 -6.60945,-24.94217 -19.89063,-31.48046 -7.5157,-3.69998 -9.44968,-4.11518 -19.01757,-4.07618 z m -302.50977,1.70899 c -8.19161,0.0516 -16.4399,0.70032 -17.4375,1.90234 -1.07805,1.29952 -0.30068,12.81065 -0.0184,37.81892 0.78262,15.62314 -1.21625,34.0346 2.84263,37.79436 3.79105,5.72495 12.17088,10.45617 22.31641,12.59766 2.97255,0.62751 12.71875,0.93248 21.65625,0.67773 22.78613,-0.64949 33.7322,-4.13752 37.79296,-12.03906 2.17088,-4.22424 2.24625,-74.96469 0.082,-77.1289 -2.14152,-2.14151 -32.97508,-2.08544 -34.36524,0.0625 -0.5562,0.85938 0.10443,17.24238 -0.0276,35.10463 l -0.23214,31.40123 c 0.65188,3.9273 -9.70683,3.06462 -13.12891,1.12304 -1.8787,-1.18345 -1.29977,-5.04022 -1.85323,-33.70117 -0.34375,-17.80108 0.0266,-33.06835 -0.52958,-33.92773 -0.77076,-1.1909 -8.90605,-1.73711 -17.09766,-1.68555 z m -345.337893,0.084 c -6.67582,-0.0228 -8.23941,0.16312 -8.91992,2.01563 -1.03802,2.70507 -1.50278,84.18387 0.0742,85.93945 0.43315,0.4822 8.31455,0.83399 17.457033,0.83399 15.15505,0 17.53903,-0.12378 18.71875,-2.32813 0.87952,-1.64342 0.51758,-22.13664 0.51758,-42.53906 0,-20.40242 0.63063,-43.30386 -1.32032,-42.44727 -0.97461,-1.57695 -2.76144,-1.43554 -17.99023,-1.43554 -3.51816,0 -6.31184,-0.0315 -8.537113,-0.0391 z m 644.119143,16.53516 c 4.07252,0.0829 8.1201,3.80393 9.44531,10.57422 l 0.77344,3.94726 -7.32031,1.41602 c -4.02628,0.77849 -8.58594,1.68389 -10.13281,2.01367 -2.43317,0.51874 -2.8125,0.0867 -2.8125,-3.21289 0,-2.09767 0.79452,-5.71999 1.76757,-8.04883 1.92907,-4.61689 5.11179,-6.7539 8.2793,-6.68945 z" id="path8851-4" inkscape:connector-curvature="0" sodipodi:nodetypes="cccssssccsscssscccccsccssssccssscccsssssssssscccscccccssssscsssscccscsssssssscsssccscssssssssssssssccsssssssssssssssssssssssssssssssscssssssssssssccssccscccccssssscssssssscscscssssssssssssssccsscssssscssssccsssssscsssscsscccccssssscssccccscssssssscscccccccsccccccccccccccccccccccccccccccccccccccccccccccccsssssccssssssssssssssssssssscssssssssssssssssssscssssscccsssscccccsssssssssssssssssscccccsssssccssccccsssscsccscccssss"/>
        <path sodipodi:type="star" style="opacity:1;fill:#e82079;fill-opacity:1;stroke:none;stroke-width:0.66062278;stroke-linecap:butt;stroke-linejoin:bevel;stroke-miterlimit:4;stroke-dasharray:none;stroke-opacity:1" id="path8853-1" sodipodi:sides="22" sodipodi:cx="367.33069" sodipodi:cy="909.79266" sodipodi:r1="43.810207" sodipodi:r2="51.54142" sodipodi:arg1="0.71061929" sodipodi:arg2="0.85341896" inkscape:flatsided="false" inkscape:rounded="0" inkscape:randomized="0" d="m 400.53699,938.37021 0.67758,10.26059 -10.07389,-2.06289 -2.24061,10.03586 -9.08465,-4.81747 -4.97728,8.99809 -7.35942,-7.18177 -7.31071,7.23134 -5.03797,-8.96424 -9.05189,4.87875 -2.30838,-10.02049 -10.05972,2.13092 0.60823,-10.26494 -10.25259,-0.78955 3.47556,-9.67777 -9.61484,-3.64606 6.06131,-8.30658 -8.19816,-6.20718 8.15603,-6.26243 -6.11732,-8.26543 9.58998,-3.71095 -3.54087,-9.65407 10.24701,-0.85882 -0.67758,-10.26059 10.07389,2.06289 2.24061,-10.03586 9.08465,4.81746 4.97727,-8.99808 7.35942,7.18177 7.31072,-7.23134 5.03797,8.96424 9.05188,-4.87875 2.30838,10.02049 10.05973,-2.13092 -0.60823,10.26493 10.25258,0.78955 -3.47555,9.67778 9.61484,3.64606 -6.06131,8.30658 8.19815,6.20717 -8.15602,6.26244 6.11731,8.26543 -9.58998,3.71095 3.54088,9.65407 z"/>
      </g>
      <g transform="matrix(0.32341816,0,0,0.32341816,-6.2887394,857.62306)" id="g9586">
        <path style="opacity:1;fill:#5b1750;fill-opacity:1;stroke:none;stroke-width:1;stroke-linecap:butt;stroke-linejoin:round;stroke-miterlimit:4;stroke-dasharray:none;stroke-opacity:1" d="m 70.206283,40.210641 0,0.20118 c -27.127974,2.03066 -48.659615,23.654598 -50.57422,50.79101 l -0.1875,0 0,136.874999 0.0117,0 c 0.135804,28.59395 22.23393,52.27732 50.75,54.39063 l 0,0.1582 4.03906,0 595.001957,0 6.03906,0 0,-0.36133 c 27.748,-3.07657 48.74768,-26.52141 48.76172,-54.43945 -0.0145,-1.51819 0.0866,-3.03513 -0.0539,-4.54688 l 0.0539,0 0,-128.267569 0,-8.60743 -2e-4,0 C 720.15415,62.086858 699.75982,43.353759 675.28634,40.609081 l 0,-0.39844 -6.03906,0 -595.001957,0 -4.03906,0 z" id="path9479" inkscape:connector-curvature="0" sodipodi:nodetypes="cccccccccccccccccccccccc"/>
        <path style="opacity:1;fill:#ffffff;fill-opacity:1" d="m 141.40647,93.958636 c -32.86826,0 -34.41305,0.20169 -38.15821,4.96289 l -1.95117,2.480474 0,58.78711 c 0,42.50766 0.28602,59.41601 1.03711,61.06445 1.13638,2.4941 4.25496,4.8453 7.88477,5.94531 3.53856,1.07236 56.66591,1.00554 60.56054,-0.0762 8.46046,-2.34975 9.68715,-13.87524 1.90039,-17.85742 -1.30736,-0.6686 -10.27427,-1.00586 -26.77343,-1.00586 l -24.81055,0 0,-18.90039 0,-18.90039 23.00977,0 c 15.17341,0 23.67823,-0.34094 24.9746,-1.00391 3.33102,-1.7035 5.07454,-4.62898 5.09571,-8.54883 0.0253,-4.67747 -2.52251,-8.06807 -6.9961,-9.31054 -1.85181,-0.51432 -12.83681,-0.92887 -24.70898,-0.93164 l -21.375,-0.004 0,-18.45117 0,-18.44922 23.87891,0 c 25.6205,0 28.41544,-0.41079 31.35351,-4.60547 0.80719,-1.15242 1.46875,-3.66463 1.46875,-5.58399 0,-2.76872 -0.63277,-4.123014 -3.06055,-6.550784 l -3.06054,-3.06054 z m 54.20898,0 -3.05859,3.06054 c -2.42778,2.42777 -3.06055,3.782064 -3.06055,6.550784 0,6.52474 4.84527,10.18946 13.4707,10.18946 l 4.5293,0 0,47.04883 c 0,52.73199 -0.37531,49.74187 6.64453,52.92968 2.03817,0.92557 4.5916,1.6903 5.67578,1.70118 1.08419,0.0109 18.50036,-2.42213 38.70117,-5.40625 20.20082,-2.98411 38.5075,-5.67797 40.68164,-5.98829 2.51844,-0.35945 5.0493,-1.52831 6.97461,-3.21875 2.58788,-2.27218 3.02149,-3.23379 3.02149,-6.69921 0,-3.40221 -0.48598,-4.53483 -3.0586,-7.10743 -1.68299,-1.683 -3.94331,-3.06054 -5.02148,-3.06054 -2.00087,0 -66.84765,9.47292 -71.34375,10.42187 l -2.47461,0.52149 0,-46.75 c 0,-46.59426 -0.006,-46.7583 -1.95117,-49.230474 -3.1655,-4.02428 -6.72173,-4.96289 -18.81055,-4.96289 z m 137.99609,0.87109 c -2.44972,0.0574 -4.69536,1.07488 -6.80078,3.06055 0,0 -2.9623,-5.7313 -3.21484,63.044924 0,66.09585 -0.20367,63.67009 5.57812,66.51953 3.66829,1.80784 4.50053,1.82975 8.32813,0.23047 5.49058,-2.29412 5.40195,-1.58517 5.89453,-46.59961 l 0.44922,-41.12305 5.44727,10.07422 c 15.82105,29.26044 20.80194,37.90537 23.45898,40.72266 2.52115,2.6732 3.50126,3.09961 7.12305,3.09961 3.54717,0 4.64963,-0.45375 7.08593,-2.92383 1.58673,-1.60875 8.73475,-13.65158 15.88477,-26.75977 l 13,-23.83203 0.45117,41.14063 0.44922,41.14258 2.83008,2.83007 c 5.12435,5.12281 13.34161,3.42145 16.16992,-3.34765 1.90673,-4.56344 1.45925,-119.5069 -0.47656,-122.419924 -3.05947,-4.60391 -9.36329,-6.05845 -14.89063,-3.43555 -2.51204,1.19204 -5.06775,5.210674 -17.60547,27.675784 -22.04603,39.50212 -22.06414,39.53215 -22.91406,39.52148 -0.43527,-0.005 -8.94998,-14.73085 -18.92187,-32.7246 -15.81777,-28.54238 -18.52343,-32.918164 -21.21094,-34.291024 -2.18128,-1.11426 -4.20989,-1.65009 -6.11524,-1.60547 z m 163.21875,0.20703 c -2.37812,0.10201 -4.71413,0.99344 -6.48437,2.76367 -1.4833,1.4833 -5.46266,11.309364 -12.51172,30.892584 -5.68526,15.79439 -14.94614,41.47391 -20.58008,57.06641 -5.63394,15.5925 -10.50604,29.42874 -10.82812,30.74804 -0.76412,3.12999 1.54884,7.98783 4.75,9.97266 3.74795,2.32384 7.83485,1.9913 11.0332,-0.89648 2.11075,-1.90578 3.94897,-5.78682 7.99023,-16.875 l 5.24805,-14.39844 21.94922,-0.23633 21.94922,-0.23437 5.30664,14.82617 c 3.17441,8.86991 6.10445,15.57693 7.29492,16.69531 4.46235,4.19216 12.45621,2.79495 15.28321,-2.67187 1.89655,-3.66751 1.72094,-6.06917 -0.9629,-13.19727 -1.28021,-3.40018 -10.42591,-28.66031 -20.32421,-56.13281 -9.8983,-27.4725 -18.57763,-51.18271 -19.28711,-52.68946 -1.78124,-3.782904 -5.86263,-5.802824 -9.82618,-5.632814 z m 85.78516,1.75977 c -17.90988,-0.0492 -19.47096,0.823 -22.99609,6.099614 l -2.06055,3.08593 0.24414,58.31836 0.24414,58.31836 2.33594,2.33789 c 3.05501,3.05453 8.48357,3.83568 12.4375,1.79102 4.96308,-2.56649 5.47656,-5.17876 5.47656,-27.91016 l 0,-20.27734 10.125,0.0332 10.125,0.0332 13.51172,23.59179 c 11.58878,20.23136 13.9603,23.81456 16.65039,25.16406 3.82769,1.9202 4.76098,1.94779 8.07813,0.23243 3.59055,-1.85674 5.4082,-4.76168 5.4082,-8.63672 0,-2.53473 -2.45414,-7.6052 -10.79883,-22.30664 -5.94,-10.46493 -10.79405,-19.32842 -10.78516,-19.69531 0.009,-0.3669 1.93994,-1.9219 4.28907,-3.45704 12.56339,-8.21014 19.75851,-27.73306 16.43945,-44.60351 -2.48718,-12.64208 -11.17773,-24.58428 -21.36523,-29.357424 -5.21714,-2.44439 -5.27781,-2.44967 -28.62891,-2.69532 -3.27925,-0.0345 -6.17191,-0.0594 -8.73047,-0.0664 z m -4.31836,18.646484 15.66797,0.28321 15.66992,0.2832 3.45508,2.78906 c 1.90057,1.53364 4.65961,5.12684 6.13086,7.98633 4.7972,9.32369 3.1272,22.1792 -3.84766,29.61133 -4.19107,4.46583 -6.86749,5.0625 -22.64843,5.0625 l -14.42774,0 0,-23.00782 z m -307.08398,2.13477 c -1.48376,0.0109 -3.171,0.16579 -5.09766,0.44336 -5.93531,0.85507 -7.16772,1.36206 -9.4043,3.86523 -2.22015,2.48477 -2.53251,3.48217 -2.26953,7.25586 0.34029,4.8833 0.86928,4.53051 -8.69531,5.79883 -5.74692,0.76208 -7.29634,1.62617 -9.07031,5.05664 -1.33501,2.58163 -1.30239,3.77563 0.46875,16.39844 2.87338,20.47851 2.89913,20.61642 3.98828,22.46093 1.33417,2.25946 5.84063,4.16095 8.66406,3.65625 1.2375,-0.22121 13.79094,-2.00457 27.89844,-3.96289 9.54865,-2.15041 23.27753,-2.86426 28.22851,-6.40625 3.01209,-2.16026 2.5583,-3.06716 1.95899,-9.24023 -0.34147,-3.51725 -0.96148,-8.21781 -1.37695,-10.44531 -0.41548,-2.2275 -1.23759,-7.59161 -1.82618,-11.92188 -0.96345,-7.08811 -1.34798,-8.10936 -3.87109,-10.23242 -2.64694,-2.22726 -3.1702,-2.3254 -9.39062,-1.76172 -3.62239,0.32825 -7.14028,0.81011 -7.81836,1.07031 -0.82936,0.31825 -1.44384,-0.50524 -1.87696,-2.51562 -1.49206,-6.92554 -4.08015,-9.5667 -10.50976,-9.51953 z m -0.6211,5.5332 c 3.38311,0.0975 5.01194,1.65895 5.45899,5.03125 0.27681,2.08806 -0.0845,2.30544 -5.55469,3.33399 -8.68238,1.63251 -9.88091,1.53094 -10.00586,-0.8418 -0.28157,-5.34699 0.87386,-6.48623 7.4707,-7.36133 0.97462,-0.12929 1.85015,-0.18462 2.63086,-0.16211 z m 226.67383,11.59375 c 0.63627,0.13449 1.83771,2.88652 4.13477,9.3125 2.10216,5.88079 5.46955,15.24766 7.48242,20.81641 l 3.66016,10.125 -14.82422,0 c -8.32535,0 -14.82227,-0.35945 -14.82227,-0.82032 0,-0.66469 11.52879,-32.85349 14.01172,-39.12109 0.093,-0.23471 0.21059,-0.34353 0.35742,-0.3125 z m -198.74023,74.26953 c -2.3967,0.0688 -4.87158,0.99903 -6.97657,2.97656 -4.34137,4.0785 -3.41191,12.11832 1.76563,15.2754 3.41165,2.08029 6.10916,2.18372 9.9043,0.38281 3.645,-1.72966 5.05446,-4.04254 5.23242,-8.58399 0.24244,-6.18737 -4.65304,-10.20222 -9.92578,-10.05078 z m -99.44922,0.006 c -3.68978,0 -6.43047,1.3512 -8.17774,4.03516 -3.35765,5.15762 -1.7706,11.94881 3.38672,14.49218 3.8326,1.89006 6.77626,1.80115 10.23633,-0.30859 8.13008,-4.95724 4.16663,-18.21875 -5.44531,-18.21875 z" id="path9475" inkscape:connector-curvature="0" sodipodi:nodetypes="sscsssssscccssssccccsssscsccsscsscssssssccscscsccsscccssscccccsssscsssssssssscccccssssssscccccssccccsssscsssssccccssscccsssssssssccsssssssssssssscsccssscsssssssssss"/>
        <path style="opacity:1;fill:#fbee26;fill-opacity:1" d="m 271.21311,117.57779 c -1.48376,0.0109 -3.171,0.16579 -5.09766,0.44336 -5.93531,0.85507 -7.16772,1.36206 -9.4043,3.86523 -2.22015,2.48477 -2.53251,3.48217 -2.26953,7.25586 0.34029,4.8833 0.86928,4.53051 -8.69531,5.79883 -5.74692,0.76208 -7.29634,1.62617 -9.07031,5.05664 -1.33501,2.58163 -1.30239,3.77563 0.46875,16.39844 2.87338,20.47851 2.89913,20.61642 3.98828,22.46093 1.33417,2.25946 5.84063,4.16095 8.66406,3.65625 1.2375,-0.22121 13.79094,-2.00457 27.89844,-3.96289 9.54865,-2.15041 23.27753,-2.86426 28.22851,-6.40625 3.01209,-2.16026 2.5583,-3.06716 1.95899,-9.24023 -0.34147,-3.51725 -0.96148,-8.21781 -1.37695,-10.44531 -0.41548,-2.2275 -1.23759,-7.59161 -1.82618,-11.92188 -0.96345,-7.08811 -1.34798,-8.10936 -3.87109,-10.23242 -2.64694,-2.22726 -3.1702,-2.3254 -9.39062,-1.76172 -3.62239,0.32825 -7.14028,0.81011 -7.81836,1.07031 -0.82936,0.31825 -1.44384,-0.50524 -1.87696,-2.51562 -1.49206,-6.92554 -4.08015,-9.5667 -10.50976,-9.51953 z m -0.6211,5.5332 c 3.38311,0.0975 5.01194,1.65895 5.45899,5.03125 0.27681,2.08806 -0.0845,2.30544 -5.55469,3.33399 -8.68238,1.63251 -9.88091,1.53094 -10.00586,-0.8418 -0.28157,-5.34699 0.87386,-6.48623 7.4707,-7.36133 0.97462,-0.12929 1.85015,-0.18462 2.63086,-0.16211 z m 27.9336,85.86327 c -2.3967,0.0688 -4.87158,0.99903 -6.97657,2.97656 -4.34137,4.0785 -3.41191,12.11832 1.76563,15.2754 3.41165,2.08029 6.10916,2.18372 9.9043,0.38281 3.645,-1.72966 5.05446,-4.04254 5.23242,-8.58399 0.24244,-6.18737 -4.65304,-10.20222 -9.92578,-10.05078 z m -99.44922,0.006 c -3.68978,0 -6.43047,1.3512 -8.17774,4.03516 -3.35765,5.15762 -1.7706,11.94881 3.38672,14.49218 3.8326,1.89006 6.77626,1.80115 10.23633,-0.30859 8.13008,-4.95724 4.16663,-18.21875 -5.44531,-18.21875 z" id="path9475-0" inkscape:connector-curvature="0" sodipodi:nodetypes="sssssssssccsssssssssssssssssssssssss"/>
      </g>
    </g>
  </g>
</svg>